<svg width="36" height="36" viewBox="0 0 36 36" fill="none" xmlns="http://www.w3.org/2000/svg">
<rect width="2" height="3" transform="translate(17 22)" fill="#87C54A"/>
<rect width="2" height="4" transform="translate(19 22)" fill="white"/>
<rect width="2" height="3" transform="translate(20 19)" fill="white"/>
<rect width="2" height="2" transform="translate(22 18)" fill="white"/>
<rect width="2" height="2" transform="translate(22 16)" fill="white"/>
<rect width="2" height="2" transform="translate(22 14)" fill="white"/>
<rect width="2" height="2" transform="translate(22 12)" fill="white"/>
<rect width="3" height="3" transform="translate(19 10)" fill="white"/>
<rect width="2" height="2" transform="translate(17 9)" fill="white"/>
<rect width="3" height="3" transform="translate(14 10)" fill="white"/>
<rect width="2" height="2" transform="translate(12 12)" fill="white"/>
<rect width="2" height="2" transform="translate(12 14)" fill="white"/>
<rect width="2" height="2" transform="translate(12 16)" fill="white"/>
<rect width="2" height="2" transform="translate(12 18)" fill="white"/>
<rect width="2" height="3" transform="translate(14 19)" fill="white"/>
<rect width="2" height="4" transform="translate(15 22)" fill="white"/>
<rect width="2" height="2" transform="translate(17 25)" fill="white"/>
<rect width="4" height="3" transform="translate(16 19)" fill="#87C54A"/>
<rect width="4" height="1" transform="translate(16 12)" fill="#87C54A"/>
<rect width="2" height="1" transform="translate(17 11)" fill="#87C54A"/>
<rect width="8" height="6" transform="translate(14 13)" fill="#87C54A"/>
<rect width="3" height="3" transform="translate(16.5 15)" fill="#FFEE25"/>
<rect width="2" height="2" transform="translate(17 13)" fill="#548D3F"/>
</svg>
