<svg width="560" height="360" viewBox="0 0 560 360" fill="none" xmlns="http://www.w3.org/2000/svg">
<path d="M35 142.5V125H17.5V107.5H0V55H17.5V37.5H35V20H122.5V37.5H52.5V55H35V107.5H52.5V125H87.5V90H70V72.5H122.5V142.5H35ZM140 142.5V55H157.5V37.5H175V20H227.5V37.5H245V55H262.5V142.5H227.5V107.5H175V142.5H140ZM175 90H227.5V55H210V37.5H192.5V55H175V90ZM280 142.5V20H315V37.5H332.5V55H350V37.5H367.5V20H402.5V142.5H367.5V72.5H350V107.5H332.5V72.5H315V142.5H280ZM420 142.5V20H542.5V37.5H455V72.5H525V90H455V125H542.5V142.5H420ZM17.5 322.5V305H0V217.5H17.5V200H105V217.5H122.5V305H105V322.5H17.5ZM35 305H87.5V217.5H35V305ZM192.5 322.5V305H175V287.5H157.5V270H140V200H175V252.5H192.5V270H210V252.5H227.5V200H262.5V270H245V287.5H227.5V305H210V322.5H192.5ZM280 322.5V200H402.5V217.5H315V252.5H385V270H315V305H402.5V322.5H280ZM420 322.5V200H525V217.5H542.5V270H507.5V287.5H525V305H542.5V322.5H490V305H472.5V287.5H455V322.5H420ZM455 270H490V252.5H507.5V217.5H455V270Z" fill="white"/>
<path d="M35 142.5H30V147.5H35V142.5ZM35 125H40V120H35V125ZM17.5 125H12.5V130H17.5V125ZM17.5 107.5H22.5V102.5H17.5V107.5ZM0 107.5H-5V112.5H0V107.5ZM0 55V50H-5V55H0ZM17.5 55V60H22.5V55H17.5ZM17.5 37.5V32.5H12.5V37.5H17.5ZM35 37.5V42.5H40V37.5H35ZM35 20V15H30V20H35ZM122.5 20H127.5V15H122.5V20ZM122.5 37.5V42.5H127.5V37.5H122.5ZM52.5 37.5V32.5H47.5V37.5H52.5ZM52.5 55V60H57.5V55H52.5ZM35 55V50H30V55H35ZM35 107.5H30V112.5H35V107.5ZM52.5 107.5H57.5V102.5H52.5V107.5ZM52.5 125H47.5V130H52.5V125ZM87.5 125V130H92.5V125H87.5ZM87.5 90H92.5V85H87.5V90ZM70 90H65V95H70V90ZM70 72.5V67.5H65V72.5H70ZM122.5 72.5H127.5V67.5H122.5V72.5ZM122.5 142.5V147.5H127.5V142.5H122.5ZM40 142.5V125H30V142.5H40ZM35 120H17.5V130H35V120ZM22.5 125V107.5H12.5V125H22.5ZM17.5 102.5H0V112.5H17.5V102.5ZM5 107.5V55H-5V107.5H5ZM0 60H17.5V50H0V60ZM22.5 55V37.5H12.5V55H22.5ZM17.5 42.5H35V32.5H17.5V42.5ZM40 37.5V20H30V37.5H40ZM35 25H122.5V15H35V25ZM117.5 20V37.5H127.5V20H117.5ZM122.5 32.5H52.5V42.5H122.5V32.5ZM47.5 37.5V55H57.5V37.5H47.5ZM52.5 50H35V60H52.5V50ZM30 55V107.5H40V55H30ZM35 112.5H52.5V102.5H35V112.5ZM47.5 107.5V125H57.5V107.5H47.5ZM52.5 130H87.5V120H52.5V130ZM92.5 125V90H82.5V125H92.5ZM87.5 85H70V95H87.5V85ZM75 90V72.5H65V90H75ZM70 77.5H122.5V67.5H70V77.5ZM117.5 72.5V142.5H127.5V72.5H117.5ZM122.5 137.5H35V147.5H122.5V137.5ZM140 142.5H135V147.5H140V142.5ZM140 55V50H135V55H140ZM157.5 55V60H162.5V55H157.5ZM157.5 37.5V32.5H152.5V37.5H157.5ZM175 37.5V42.5H180V37.5H175ZM175 20V15H170V20H175ZM227.5 20H232.5V15H227.5V20ZM227.5 37.5H222.5V42.5H227.5V37.5ZM245 37.5H250V32.5H245V37.5ZM245 55H240V60H245V55ZM262.5 55H267.5V50H262.5V55ZM262.5 142.5V147.5H267.5V142.5H262.5ZM227.5 142.5H222.5V147.5H227.5V142.5ZM227.5 107.5H232.5V102.5H227.5V107.5ZM175 107.5V102.5H170V107.5H175ZM175 142.5V147.5H180V142.5H175ZM175 90H170V95H175V90ZM227.5 90V95H232.5V90H227.5ZM227.5 55H232.5V50H227.5V55ZM210 55H205V60H210V55ZM210 37.5H215V32.5H210V37.5ZM192.5 37.5V32.5H187.5V37.5H192.5ZM192.5 55V60H197.5V55H192.5ZM175 55V50H170V55H175ZM145 142.5V55H135V142.5H145ZM140 60H157.5V50H140V60ZM162.5 55V37.5H152.5V55H162.5ZM157.5 42.5H175V32.5H157.5V42.5ZM180 37.5V20H170V37.5H180ZM175 25H227.5V15H175V25ZM222.5 20V37.5H232.5V20H222.5ZM227.5 42.5H245V32.5H227.5V42.5ZM240 37.5V55H250V37.5H240ZM245 60H262.5V50H245V60ZM257.5 55V142.5H267.5V55H257.5ZM262.5 137.5H227.5V147.5H262.5V137.5ZM232.5 142.5V107.5H222.5V142.5H232.5ZM227.5 102.5H175V112.5H227.5V102.5ZM170 107.5V142.5H180V107.5H170ZM175 137.5H140V147.5H175V137.5ZM175 95H227.5V85H175V95ZM232.5 90V55H222.5V90H232.5ZM227.5 50H210V60H227.5V50ZM215 55V37.5H205V55H215ZM210 32.5H192.5V42.5H210V32.5ZM187.5 37.5V55H197.5V37.5H187.5ZM192.5 50H175V60H192.5V50ZM170 55V90H180V55H170ZM280 142.5H275V147.5H280V142.5ZM280 20V15H275V20H280ZM315 20H320V15H315V20ZM315 37.5H310V42.5H315V37.5ZM332.5 37.5H337.5V32.5H332.5V37.5ZM332.5 55H327.5V60H332.5V55ZM350 55V60H355V55H350ZM350 37.5V32.5H345V37.5H350ZM367.5 37.5V42.5H372.5V37.5H367.5ZM367.5 20V15H362.5V20H367.5ZM402.5 20H407.5V15H402.5V20ZM402.5 142.5V147.5H407.5V142.5H402.5ZM367.5 142.5H362.5V147.5H367.5V142.5ZM367.5 72.5H372.5V67.5H367.5V72.5ZM350 72.5V67.5H345V72.5H350ZM350 107.5V112.5H355V107.5H350ZM332.5 107.5H327.5V112.5H332.5V107.5ZM332.5 72.5H337.5V67.5H332.5V72.5ZM315 72.5V67.5H310V72.5H315ZM315 142.5V147.5H320V142.5H315ZM285 142.5V20H275V142.5H285ZM280 25H315V15H280V25ZM310 20V37.5H320V20H310ZM315 42.5H332.5V32.5H315V42.5ZM327.5 37.5V55H337.5V37.5H327.5ZM332.5 60H350V50H332.5V60ZM355 55V37.5H345V55H355ZM350 42.5H367.5V32.5H350V42.5ZM372.5 37.5V20H362.5V37.5H372.5ZM367.5 25H402.5V15H367.5V25ZM397.5 20V142.5H407.5V20H397.5ZM402.5 137.5H367.5V147.5H402.5V137.5ZM372.5 142.5V72.5H362.5V142.5H372.5ZM367.5 67.5H350V77.5H367.5V67.5ZM345 72.5V107.5H355V72.5H345ZM350 102.5H332.5V112.5H350V102.5ZM337.5 107.5V72.5H327.5V107.5H337.5ZM332.5 67.5H315V77.5H332.5V67.5ZM310 72.5V142.5H320V72.5H310ZM315 137.5H280V147.5H315V137.5ZM420 142.5H415V147.5H420V142.5ZM420 20V15H415V20H420ZM542.5 20H547.5V15H542.5V20ZM542.5 37.5V42.5H547.5V37.5H542.5ZM455 37.5V32.5H450V37.5H455ZM455 72.5H450V77.5H455V72.5ZM525 72.5H530V67.5H525V72.5ZM525 90V95H530V90H525ZM455 90V85H450V90H455ZM455 125H450V130H455V125ZM542.5 125H547.5V120H542.5V125ZM542.5 142.5V147.5H547.5V142.5H542.5ZM425 142.5V20H415V142.5H425ZM420 25H542.5V15H420V25ZM537.5 20V37.5H547.5V20H537.5ZM542.5 32.5H455V42.5H542.5V32.5ZM450 37.5V72.5H460V37.5H450ZM455 77.5H525V67.5H455V77.5ZM520 72.5V90H530V72.5H520ZM525 85H455V95H525V85ZM450 90V125H460V90H450ZM455 130H542.5V120H455V130ZM537.5 125V142.5H547.5V125H537.5ZM542.5 137.5H420V147.5H542.5V137.5ZM17.5 322.5H12.5V327.5H17.5V322.5ZM17.5 305H22.5V300H17.5V305ZM0 305H-5V310H0V305ZM0 217.5V212.5H-5V217.5H0ZM17.5 217.5V222.5H22.5V217.5H17.5ZM17.5 200V195H12.5V200H17.5ZM105 200H110V195H105V200ZM105 217.5H100V222.5H105V217.5ZM122.5 217.5H127.5V212.5H122.5V217.5ZM122.5 305V310H127.5V305H122.5ZM105 305V300H100V305H105ZM105 322.5V327.5H110V322.5H105ZM35 305H30V310H35V305ZM87.5 305V310H92.5V305H87.5ZM87.5 217.5H92.5V212.5H87.5V217.5ZM35 217.5V212.5H30V217.5H35ZM22.5 322.5V305H12.5V322.5H22.5ZM17.5 300H0V310H17.5V300ZM5 305V217.5H-5V305H5ZM0 222.5H17.5V212.5H0V222.5ZM22.5 217.5V200H12.5V217.5H22.5ZM17.5 205H105V195H17.5V205ZM100 200V217.5H110V200H100ZM105 222.5H122.5V212.5H105V222.5ZM117.5 217.5V305H127.5V217.5H117.5ZM122.5 300H105V310H122.5V300ZM100 305V322.5H110V305H100ZM105 317.5H17.5V327.5H105V317.5ZM35 310H87.5V300H35V310ZM92.5 305V217.5H82.5V305H92.5ZM87.5 212.5H35V222.5H87.5V212.5ZM30 217.5V305H40V217.5H30ZM192.5 322.5H187.5V327.5H192.5V322.5ZM192.5 305H197.5V300H192.5V305ZM175 305H170V310H175V305ZM175 287.5H180V282.5H175V287.5ZM157.5 287.5H152.5V292.5H157.5V287.5ZM157.5 270H162.5V265H157.5V270ZM140 270H135V275H140V270ZM140 200V195H135V200H140ZM175 200H180V195H175V200ZM175 252.5H170V257.5H175V252.5ZM192.5 252.5H197.5V247.5H192.5V252.5ZM192.5 270H187.5V275H192.5V270ZM210 270V275H215V270H210ZM210 252.5V247.5H205V252.5H210ZM227.5 252.5V257.5H232.5V252.5H227.5ZM227.5 200V195H222.5V200H227.5ZM262.5 200H267.5V195H262.5V200ZM262.5 270V275H267.5V270H262.5ZM245 270V265H240V270H245ZM245 287.5V292.5H250V287.5H245ZM227.5 287.5V282.5H222.5V287.5H227.5ZM227.5 305V310H232.5V305H227.5ZM210 305V300H205V305H210ZM210 322.5V327.5H215V322.5H210ZM197.5 322.5V305H187.5V322.5H197.5ZM192.5 300H175V310H192.5V300ZM180 305V287.5H170V305H180ZM175 282.5H157.5V292.5H175V282.5ZM162.5 287.5V270H152.5V287.5H162.5ZM157.5 265H140V275H157.5V265ZM145 270V200H135V270H145ZM140 205H175V195H140V205ZM170 200V252.5H180V200H170ZM175 257.5H192.5V247.5H175V257.5ZM187.5 252.5V270H197.5V252.5H187.5ZM192.5 275H210V265H192.5V275ZM215 270V252.5H205V270H215ZM210 257.5H227.5V247.5H210V257.5ZM232.5 252.5V200H222.5V252.5H232.5ZM227.5 205H262.5V195H227.5V205ZM257.5 200V270H267.5V200H257.5ZM262.5 265H245V275H262.5V265ZM240 270V287.5H250V270H240ZM245 282.5H227.5V292.5H245V282.5ZM222.5 287.5V305H232.5V287.5H222.5ZM227.5 300H210V310H227.5V300ZM205 305V322.5H215V305H205ZM210 317.5H192.5V327.5H210V317.5ZM280 322.5H275V327.5H280V322.5ZM280 200V195H275V200H280ZM402.5 200H407.5V195H402.5V200ZM402.5 217.5V222.5H407.5V217.5H402.5ZM315 217.5V212.5H310V217.5H315ZM315 252.5H310V257.5H315V252.5ZM385 252.5H390V247.5H385V252.5ZM385 270V275H390V270H385ZM315 270V265H310V270H315ZM315 305H310V310H315V305ZM402.5 305H407.5V300H402.5V305ZM402.5 322.5V327.5H407.5V322.5H402.5ZM285 322.5V200H275V322.5H285ZM280 205H402.5V195H280V205ZM397.5 200V217.5H407.5V200H397.5ZM402.5 212.5H315V222.5H402.5V212.5ZM310 217.5V252.5H320V217.5H310ZM315 257.5H385V247.5H315V257.5ZM380 252.5V270H390V252.5H380ZM385 265H315V275H385V265ZM310 270V305H320V270H310ZM315 310H402.5V300H315V310ZM397.5 305V322.5H407.5V305H397.5ZM402.5 317.5H280V327.5H402.5V317.5ZM420 322.5H415V327.5H420V322.5ZM420 200V195H415V200H420ZM525 200H530V195H525V200ZM525 217.5H520V222.5H525V217.5ZM542.5 217.5H547.5V212.5H542.5V217.5ZM542.5 270V275H547.5V270H542.5ZM507.5 270V265H502.5V270H507.5ZM507.5 287.5H502.5V292.5H507.5V287.5ZM525 287.5H530V282.5H525V287.5ZM525 305H520V310H525V305ZM542.5 305H547.5V300H542.5V305ZM542.5 322.5V327.5H547.5V322.5H542.5ZM490 322.5H485V327.5H490V322.5ZM490 305H495V300H490V305ZM472.5 305H467.5V310H472.5V305ZM472.5 287.5H477.5V282.5H472.5V287.5ZM455 287.5V282.5H450V287.5H455ZM455 322.5V327.5H460V322.5H455ZM455 270H450V275H455V270ZM490 270V275H495V270H490ZM490 252.5V247.5H485V252.5H490ZM507.5 252.5V257.5H512.5V252.5H507.5ZM507.5 217.5H512.5V212.5H507.5V217.5ZM455 217.5V212.5H450V217.5H455ZM425 322.5V200H415V322.5H425ZM420 205H525V195H420V205ZM520 200V217.5H530V200H520ZM525 222.5H542.5V212.5H525V222.5ZM537.5 217.5V270H547.5V217.5H537.5ZM542.5 265H507.5V275H542.5V265ZM502.5 270V287.5H512.5V270H502.5ZM507.5 292.5H525V282.5H507.5V292.5ZM520 287.5V305H530V287.5H520ZM525 310H542.5V300H525V310ZM537.5 305V322.5H547.5V305H537.5ZM542.5 317.5H490V327.5H542.5V317.5ZM495 322.5V305H485V322.5H495ZM490 300H472.5V310H490V300ZM477.5 305V287.5H467.5V305H477.5ZM472.5 282.5H455V292.5H472.5V282.5ZM450 287.5V322.5H460V287.5H450ZM455 317.5H420V327.5H455V317.5ZM455 275H490V265H455V275ZM495 270V252.5H485V270H495ZM490 257.5H507.5V247.5H490V257.5ZM512.5 252.5V217.5H502.5V252.5H512.5ZM507.5 212.5H455V222.5H507.5V212.5ZM450 217.5V270H460V217.5H450Z" fill="#585858"/>
<g clip-path="url(#clip0_78_1223)">
<rect width="36" height="71" transform="translate(87 72)" fill="#984215"/>
<rect width="16" height="10" transform="translate(87 72)" fill="white" fill-opacity="0.2"/>
<mask id="path-3-inside-1_78_1223" fill="white">
<path d="M67 86H103V102H67V86Z"/>
</mask>
<path d="M67 86H103V102H67V86Z" fill="white" fill-opacity="0.2"/>
<path d="M67 86V82H63V86H67ZM67 90H103V82H67V90ZM71 102V86H63V102H71Z" fill="#650B09" mask="url(#path-3-inside-1_78_1223)"/>
<mask id="path-5-inside-2_78_1223" fill="white">
<path d="M70 126H106V142H70V126Z"/>
</mask>
<path d="M70 126H106V142H70V126Z" fill="white" fill-opacity="0.2"/>
<path d="M70 126V122H66V126H70ZM70 130H106V122H70V130ZM74 142V126H66V142H74Z" fill="#650B09" mask="url(#path-5-inside-2_78_1223)"/>
<mask id="path-7-inside-3_78_1223" fill="white">
<path d="M87 106H123V122H87V106Z"/>
</mask>
<path d="M87 106H123V122H87V106Z" fill="white" fill-opacity="0.2"/>
<path d="M87 106V102H83V106H87ZM87 110H123V102H87V110ZM91 122V106H83V122H91Z" fill="#650B09" mask="url(#path-7-inside-3_78_1223)"/>
<mask id="path-9-inside-4_78_1223" fill="white">
<path d="M107 86H143V102H107V86Z"/>
</mask>
<path d="M107 86H143V102H107V86Z" fill="white" fill-opacity="0.2"/>
<path d="M107 86V82H103V86H107ZM107 90H143V82H107V90ZM111 102V86H103V102H111Z" fill="#650B09" mask="url(#path-9-inside-4_78_1223)"/>
<mask id="path-11-inside-5_78_1223" fill="white">
<path d="M110 126H146V142H110V126Z"/>
</mask>
<path d="M110 126H146V142H110V126Z" fill="white" fill-opacity="0.2"/>
<path d="M110 126V122H106V126H110ZM110 130H146V122H110V130ZM114 142V126H106V142H114Z" fill="#650B09" mask="url(#path-11-inside-5_78_1223)"/>
<rect width="16" height="10" transform="translate(107 72)" fill="white" fill-opacity="0.2"/>
</g>
<g clip-path="url(#clip1_78_1223)">
<rect width="36" height="71" transform="translate(140 72)" fill="#984215"/>
<rect width="16" height="10" transform="translate(140 72)" fill="white" fill-opacity="0.2"/>
<mask id="path-13-inside-6_78_1223" fill="white">
<path d="M120 86H156V102H120V86Z"/>
</mask>
<path d="M120 86H156V102H120V86Z" fill="white" fill-opacity="0.2"/>
<path d="M120 86V82H116V86H120ZM120 90H156V82H120V90ZM124 102V86H116V102H124Z" fill="#650B09" mask="url(#path-13-inside-6_78_1223)"/>
<mask id="path-15-inside-7_78_1223" fill="white">
<path d="M123 126H159V142H123V126Z"/>
</mask>
<path d="M123 126H159V142H123V126Z" fill="white" fill-opacity="0.2"/>
<path d="M123 126V122H119V126H123ZM123 130H159V122H123V130ZM127 142V126H119V142H127Z" fill="#650B09" mask="url(#path-15-inside-7_78_1223)"/>
<mask id="path-17-inside-8_78_1223" fill="white">
<path d="M140 106H176V122H140V106Z"/>
</mask>
<path d="M140 106H176V122H140V106Z" fill="white" fill-opacity="0.2"/>
<path d="M140 106V102H136V106H140ZM140 110H176V102H140V110ZM144 122V106H136V122H144Z" fill="#650B09" mask="url(#path-17-inside-8_78_1223)"/>
<mask id="path-19-inside-9_78_1223" fill="white">
<path d="M160 86H196V102H160V86Z"/>
</mask>
<path d="M160 86H196V102H160V86Z" fill="white" fill-opacity="0.2"/>
<path d="M160 86V82H156V86H160ZM160 90H196V82H160V90ZM164 102V86H156V102H164Z" fill="#650B09" mask="url(#path-19-inside-9_78_1223)"/>
<mask id="path-21-inside-10_78_1223" fill="white">
<path d="M163 126H199V142H163V126Z"/>
</mask>
<path d="M163 126H199V142H163V126Z" fill="white" fill-opacity="0.2"/>
<path d="M163 126V122H159V126H163ZM163 130H199V122H163V130ZM167 142V126H159V142H167Z" fill="#650B09" mask="url(#path-21-inside-10_78_1223)"/>
<mask id="path-23-inside-11_78_1223" fill="white">
<path d="M160 72H176V82H160V72Z"/>
</mask>
<path d="M160 72H176V82H160V72Z" fill="white" fill-opacity="0.2"/>
<path d="M164 82V72H156V82H164Z" fill="#650B09" mask="url(#path-23-inside-11_78_1223)"/>
</g>
<g clip-path="url(#clip2_78_1223)">
<rect width="36" height="88" transform="translate(227 55)" fill="#984215"/>
<rect width="16" height="10" transform="translate(229 52)" fill="white" fill-opacity="0.2"/>
<mask id="path-25-inside-12_78_1223" fill="white">
<path d="M209 66H245V82H209V66Z"/>
</mask>
<path d="M209 66H245V82H209V66Z" fill="white" fill-opacity="0.2"/>
<path d="M209 66V62H205V66H209ZM209 70H245V62H209V70ZM213 82V66H205V82H213Z" fill="#650B09" mask="url(#path-25-inside-12_78_1223)"/>
<mask id="path-27-inside-13_78_1223" fill="white">
<path d="M212 106H248V122H212V106Z"/>
</mask>
<path d="M212 106H248V122H212V106Z" fill="white" fill-opacity="0.2"/>
<path d="M212 106V102H208V106H212ZM212 110H248V102H212V110ZM216 122V106H208V122H216Z" fill="#650B09" mask="url(#path-27-inside-13_78_1223)"/>
<mask id="path-29-inside-14_78_1223" fill="white">
<path d="M229 86H265V102H229V86Z"/>
</mask>
<path d="M229 86H265V102H229V86Z" fill="white" fill-opacity="0.2"/>
<path d="M229 86V82H225V86H229ZM229 90H265V82H229V90ZM233 102V86H225V102H233Z" fill="#650B09" mask="url(#path-29-inside-14_78_1223)"/>
<mask id="path-31-inside-15_78_1223" fill="white">
<path d="M249 66H285V82H249V66Z"/>
</mask>
<path d="M249 66H285V82H249V66Z" fill="white" fill-opacity="0.2"/>
<path d="M249 66V62H245V66H249ZM249 70H285V62H249V70ZM253 82V66H245V82H253Z" fill="#650B09" mask="url(#path-31-inside-15_78_1223)"/>
<mask id="path-33-inside-16_78_1223" fill="white">
<path d="M252 106H288V122H252V106Z"/>
</mask>
<path d="M252 106H288V122H252V106Z" fill="white" fill-opacity="0.2"/>
<path d="M252 106V102H248V106H252ZM252 110H288V102H252V110ZM256 122V106H248V122H256Z" fill="#650B09" mask="url(#path-33-inside-16_78_1223)"/>
<mask id="path-35-inside-17_78_1223" fill="white">
<path d="M229 126H265V142H229V126Z"/>
</mask>
<path d="M229 126H265V142H229V126Z" fill="white" fill-opacity="0.2"/>
<path d="M229 126V122H225V126H229ZM229 130H265V122H229V130ZM233 142V126H225V142H233Z" fill="#650B09" mask="url(#path-35-inside-17_78_1223)"/>
<mask id="path-37-inside-18_78_1223" fill="white">
<path d="M249 52H265V62H249V52Z"/>
</mask>
<path d="M249 52H265V62H249V52Z" fill="white" fill-opacity="0.2"/>
<path d="M253 62V52H245V62H253Z" fill="#650B09" mask="url(#path-37-inside-18_78_1223)"/>
</g>
<g clip-path="url(#clip3_78_1223)">
<rect width="38" height="123" transform="translate(280 20)" fill="#984215"/>
<mask id="path-39-inside-19_78_1223" fill="white">
<path d="M262 66H298V82H262V66Z"/>
</mask>
<path d="M262 66H298V82H262V66Z" fill="white" fill-opacity="0.2"/>
<path d="M262 66V62H258V66H262ZM262 70H298V62H262V70ZM266 82V66H258V82H266Z" fill="#650B09" mask="url(#path-39-inside-19_78_1223)"/>
<mask id="path-41-inside-20_78_1223" fill="white">
<path d="M265 106H301V122H265V106Z"/>
</mask>
<path d="M265 106H301V122H265V106Z" fill="white" fill-opacity="0.2"/>
<path d="M265 106V102H261V106H265ZM265 110H301V102H265V110ZM269 122V106H261V122H269Z" fill="#650B09" mask="url(#path-41-inside-20_78_1223)"/>
<mask id="path-43-inside-21_78_1223" fill="white">
<path d="M282 86H318V102H282V86Z"/>
</mask>
<path d="M282 86H318V102H282V86Z" fill="white" fill-opacity="0.2"/>
<path d="M282 86V82H278V86H282ZM282 90H318V82H282V90ZM286 102V86H278V102H286Z" fill="#650B09" mask="url(#path-43-inside-21_78_1223)"/>
<mask id="path-45-inside-22_78_1223" fill="white">
<path d="M302 66H338V82H302V66Z"/>
</mask>
<path d="M302 66H338V82H302V66Z" fill="white" fill-opacity="0.2"/>
<path d="M302 66V62H298V66H302ZM302 70H338V62H302V70ZM306 82V66H298V82H306Z" fill="#650B09" mask="url(#path-45-inside-22_78_1223)"/>
<mask id="path-47-inside-23_78_1223" fill="white">
<path d="M262 26H298V42H262V26Z"/>
</mask>
<path d="M262 26H298V42H262V26Z" fill="white" fill-opacity="0.2"/>
<path d="M262 26V22H258V26H262ZM262 30H298V22H262V30ZM266 42V26H258V42H266Z" fill="#650B09" mask="url(#path-47-inside-23_78_1223)"/>
<mask id="path-49-inside-24_78_1223" fill="white">
<path d="M282 46H318V62H282V46Z"/>
</mask>
<path d="M282 46H318V62H282V46Z" fill="white" fill-opacity="0.2"/>
<path d="M282 46V42H278V46H282ZM282 50H318V42H282V50ZM286 62V46H278V62H286Z" fill="#650B09" mask="url(#path-49-inside-24_78_1223)"/>
<mask id="path-51-inside-25_78_1223" fill="white">
<path d="M282 6H318V22H282V6Z"/>
</mask>
<path d="M282 6H318V22H282V6Z" fill="white" fill-opacity="0.2"/>
<path d="M282 6V2H278V6H282ZM282 10H318V2H282V10ZM286 22V6H278V22H286Z" fill="#650B09" mask="url(#path-51-inside-25_78_1223)"/>
<mask id="path-53-inside-26_78_1223" fill="white">
<path d="M302 26H338V42H302V26Z"/>
</mask>
<path d="M302 26H338V42H302V26Z" fill="white" fill-opacity="0.2"/>
<path d="M302 26V22H298V26H302ZM302 30H338V22H302V30ZM306 42V26H298V42H306Z" fill="#650B09" mask="url(#path-53-inside-26_78_1223)"/>
<mask id="path-55-inside-27_78_1223" fill="white">
<path d="M305 106H341V122H305V106Z"/>
</mask>
<path d="M305 106H341V122H305V106Z" fill="white" fill-opacity="0.2"/>
<path d="M305 106V102H301V106H305ZM305 110H341V102H305V110ZM309 122V106H301V122H309Z" fill="#650B09" mask="url(#path-55-inside-27_78_1223)"/>
<mask id="path-57-inside-28_78_1223" fill="white">
<path d="M282 126H318V142H282V126Z"/>
</mask>
<path d="M282 126H318V142H282V126Z" fill="white" fill-opacity="0.2"/>
<path d="M282 126V122H278V126H282ZM282 130H318V122H282V130ZM286 142V126H278V142H286Z" fill="#650B09" mask="url(#path-57-inside-28_78_1223)"/>
</g>
<g clip-path="url(#clip4_78_1223)">
<rect width="36" height="123" transform="translate(367 20)" fill="#984215"/>
<mask id="path-59-inside-29_78_1223" fill="white">
<path d="M349 66H385V82H349V66Z"/>
</mask>
<path d="M349 66H385V82H349V66Z" fill="white" fill-opacity="0.2"/>
<path d="M349 66V62H345V66H349ZM349 70H385V62H349V70ZM353 82V66H345V82H353Z" fill="#650B09" mask="url(#path-59-inside-29_78_1223)"/>
<mask id="path-61-inside-30_78_1223" fill="white">
<path d="M352 106H388V122H352V106Z"/>
</mask>
<path d="M352 106H388V122H352V106Z" fill="white" fill-opacity="0.2"/>
<path d="M352 106V102H348V106H352ZM352 110H388V102H352V110ZM356 122V106H348V122H356Z" fill="#650B09" mask="url(#path-61-inside-30_78_1223)"/>
<mask id="path-63-inside-31_78_1223" fill="white">
<path d="M369 86H405V102H369V86Z"/>
</mask>
<path d="M369 86H405V102H369V86Z" fill="white" fill-opacity="0.2"/>
<path d="M369 86V82H365V86H369ZM369 90H405V82H369V90ZM373 102V86H365V102H373Z" fill="#650B09" mask="url(#path-63-inside-31_78_1223)"/>
<mask id="path-65-inside-32_78_1223" fill="white">
<path d="M389 66H425V82H389V66Z"/>
</mask>
<path d="M389 66H425V82H389V66Z" fill="white" fill-opacity="0.2"/>
<path d="M389 66V62H385V66H389ZM389 70H425V62H389V70ZM393 82V66H385V82H393Z" fill="#650B09" mask="url(#path-65-inside-32_78_1223)"/>
<mask id="path-67-inside-33_78_1223" fill="white">
<path d="M349 26H385V42H349V26Z"/>
</mask>
<path d="M349 26H385V42H349V26Z" fill="white" fill-opacity="0.2"/>
<path d="M349 26V22H345V26H349ZM349 30H385V22H349V30ZM353 42V26H345V42H353Z" fill="#650B09" mask="url(#path-67-inside-33_78_1223)"/>
<mask id="path-69-inside-34_78_1223" fill="white">
<path d="M369 46H405V62H369V46Z"/>
</mask>
<path d="M369 46H405V62H369V46Z" fill="white" fill-opacity="0.2"/>
<path d="M369 46V42H365V46H369ZM369 50H405V42H369V50ZM373 62V46H365V62H373Z" fill="#650B09" mask="url(#path-69-inside-34_78_1223)"/>
<mask id="path-71-inside-35_78_1223" fill="white">
<path d="M369 6H405V22H369V6Z"/>
</mask>
<path d="M369 6H405V22H369V6Z" fill="white" fill-opacity="0.2"/>
<path d="M369 6V2H365V6H369ZM369 10H405V2H369V10ZM373 22V6H365V22H373Z" fill="#650B09" mask="url(#path-71-inside-35_78_1223)"/>
<mask id="path-73-inside-36_78_1223" fill="white">
<path d="M389 26H425V42H389V26Z"/>
</mask>
<path d="M389 26H425V42H389V26Z" fill="white" fill-opacity="0.2"/>
<path d="M389 26V22H385V26H389ZM389 30H425V22H389V30ZM393 42V26H385V42H393Z" fill="#650B09" mask="url(#path-73-inside-36_78_1223)"/>
<mask id="path-75-inside-37_78_1223" fill="white">
<path d="M392 106H428V122H392V106Z"/>
</mask>
<path d="M392 106H428V122H392V106Z" fill="white" fill-opacity="0.2"/>
<path d="M392 106V102H388V106H392ZM392 110H428V102H392V110ZM396 122V106H388V122H396Z" fill="#650B09" mask="url(#path-75-inside-37_78_1223)"/>
<mask id="path-77-inside-38_78_1223" fill="white">
<path d="M369 126H405V142H369V126Z"/>
</mask>
<path d="M369 126H405V142H369V126Z" fill="white" fill-opacity="0.2"/>
<path d="M369 126V122H365V126H369ZM369 130H405V122H369V130ZM373 142V126H365V142H373Z" fill="#650B09" mask="url(#path-77-inside-38_78_1223)"/>
</g>
<g clip-path="url(#clip5_78_1223)">
<rect width="35" height="123" transform="translate(420 20)" fill="#984215"/>
<mask id="path-79-inside-39_78_1223" fill="white">
<path d="M402 66H438V82H402V66Z"/>
</mask>
<path d="M402 66H438V82H402V66Z" fill="white" fill-opacity="0.2"/>
<path d="M402 66V62H398V66H402ZM402 70H438V62H402V70ZM406 82V66H398V82H406Z" fill="#650B09" mask="url(#path-79-inside-39_78_1223)"/>
<mask id="path-81-inside-40_78_1223" fill="white">
<path d="M405 106H441V122H405V106Z"/>
</mask>
<path d="M405 106H441V122H405V106Z" fill="white" fill-opacity="0.2"/>
<path d="M405 106V102H401V106H405ZM405 110H441V102H405V110ZM409 122V106H401V122H409Z" fill="#650B09" mask="url(#path-81-inside-40_78_1223)"/>
<mask id="path-83-inside-41_78_1223" fill="white">
<path d="M422 86H458V102H422V86Z"/>
</mask>
<path d="M422 86H458V102H422V86Z" fill="white" fill-opacity="0.2"/>
<path d="M422 86V82H418V86H422ZM422 90H458V82H422V90ZM426 102V86H418V102H426Z" fill="#650B09" mask="url(#path-83-inside-41_78_1223)"/>
<mask id="path-85-inside-42_78_1223" fill="white">
<path d="M442 66H478V82H442V66Z"/>
</mask>
<path d="M442 66H478V82H442V66Z" fill="white" fill-opacity="0.2"/>
<path d="M442 66V62H438V66H442ZM442 70H478V62H442V70ZM446 82V66H438V82H446Z" fill="#650B09" mask="url(#path-85-inside-42_78_1223)"/>
<mask id="path-87-inside-43_78_1223" fill="white">
<path d="M402 26H438V42H402V26Z"/>
</mask>
<path d="M402 26H438V42H402V26Z" fill="white" fill-opacity="0.2"/>
<path d="M402 26V22H398V26H402ZM402 30H438V22H402V30ZM406 42V26H398V42H406Z" fill="#650B09" mask="url(#path-87-inside-43_78_1223)"/>
<mask id="path-89-inside-44_78_1223" fill="white">
<path d="M422 46H458V62H422V46Z"/>
</mask>
<path d="M422 46H458V62H422V46Z" fill="white" fill-opacity="0.2"/>
<path d="M422 46V42H418V46H422ZM422 50H458V42H422V50ZM426 62V46H418V62H426Z" fill="#650B09" mask="url(#path-89-inside-44_78_1223)"/>
<mask id="path-91-inside-45_78_1223" fill="white">
<path d="M422 6H458V22H422V6Z"/>
</mask>
<path d="M422 6H458V22H422V6Z" fill="white" fill-opacity="0.2"/>
<path d="M422 6V2H418V6H422ZM422 10H458V2H422V10ZM426 22V6H418V22H426Z" fill="#650B09" mask="url(#path-91-inside-45_78_1223)"/>
<mask id="path-93-inside-46_78_1223" fill="white">
<path d="M442 26H478V42H442V26Z"/>
</mask>
<path d="M442 26H478V42H442V26Z" fill="white" fill-opacity="0.2"/>
<path d="M442 26V22H438V26H442ZM442 30H478V22H442V30ZM446 42V26H438V42H446Z" fill="#650B09" mask="url(#path-93-inside-46_78_1223)"/>
<mask id="path-95-inside-47_78_1223" fill="white">
<path d="M445 106H481V122H445V106Z"/>
</mask>
<path d="M445 106H481V122H445V106Z" fill="white" fill-opacity="0.2"/>
<path d="M445 106V102H441V106H445ZM445 110H481V102H445V110ZM449 122V106H441V122H449Z" fill="#650B09" mask="url(#path-95-inside-47_78_1223)"/>
<mask id="path-97-inside-48_78_1223" fill="white">
<path d="M422 126H458V142H422V126Z"/>
</mask>
<path d="M422 126H458V142H422V126Z" fill="white" fill-opacity="0.2"/>
<path d="M422 126V122H418V126H422ZM422 130H458V122H422V130ZM426 142V126H418V142H426Z" fill="#650B09" mask="url(#path-97-inside-48_78_1223)"/>
</g>
<g clip-path="url(#clip6_78_1223)">
<rect width="35" height="123" transform="translate(280 200)" fill="#984215"/>
<mask id="path-99-inside-49_78_1223" fill="white">
<path d="M262 246H298V262H262V246Z"/>
</mask>
<path d="M262 246H298V262H262V246Z" fill="white" fill-opacity="0.2"/>
<path d="M262 246V242H258V246H262ZM262 250H298V242H262V250ZM266 262V246H258V262H266Z" fill="#650B09" mask="url(#path-99-inside-49_78_1223)"/>
<mask id="path-101-inside-50_78_1223" fill="white">
<path d="M265 286H301V302H265V286Z"/>
</mask>
<path d="M265 286H301V302H265V286Z" fill="white" fill-opacity="0.2"/>
<path d="M265 286V282H261V286H265ZM265 290H301V282H265V290ZM269 302V286H261V302H269Z" fill="#650B09" mask="url(#path-101-inside-50_78_1223)"/>
<mask id="path-103-inside-51_78_1223" fill="white">
<path d="M282 266H318V282H282V266Z"/>
</mask>
<path d="M282 266H318V282H282V266Z" fill="white" fill-opacity="0.2"/>
<path d="M282 266V262H278V266H282ZM282 270H318V262H282V270ZM286 282V266H278V282H286Z" fill="#650B09" mask="url(#path-103-inside-51_78_1223)"/>
<mask id="path-105-inside-52_78_1223" fill="white">
<path d="M302 246H338V262H302V246Z"/>
</mask>
<path d="M302 246H338V262H302V246Z" fill="white" fill-opacity="0.2"/>
<path d="M302 246V242H298V246H302ZM302 250H338V242H302V250ZM306 262V246H298V262H306Z" fill="#650B09" mask="url(#path-105-inside-52_78_1223)"/>
<mask id="path-107-inside-53_78_1223" fill="white">
<path d="M262 206H298V222H262V206Z"/>
</mask>
<path d="M262 206H298V222H262V206Z" fill="white" fill-opacity="0.2"/>
<path d="M262 206V202H258V206H262ZM262 210H298V202H262V210ZM266 222V206H258V222H266Z" fill="#650B09" mask="url(#path-107-inside-53_78_1223)"/>
<mask id="path-109-inside-54_78_1223" fill="white">
<path d="M282 226H318V242H282V226Z"/>
</mask>
<path d="M282 226H318V242H282V226Z" fill="white" fill-opacity="0.2"/>
<path d="M282 226V222H278V226H282ZM282 230H318V222H282V230ZM286 242V226H278V242H286Z" fill="#650B09" mask="url(#path-109-inside-54_78_1223)"/>
<mask id="path-111-inside-55_78_1223" fill="white">
<path d="M282 186H318V202H282V186Z"/>
</mask>
<path d="M282 186H318V202H282V186Z" fill="white" fill-opacity="0.2"/>
<path d="M282 186V182H278V186H282ZM282 190H318V182H282V190ZM286 202V186H278V202H286Z" fill="#650B09" mask="url(#path-111-inside-55_78_1223)"/>
<mask id="path-113-inside-56_78_1223" fill="white">
<path d="M302 206H338V222H302V206Z"/>
</mask>
<path d="M302 206H338V222H302V206Z" fill="white" fill-opacity="0.2"/>
<path d="M302 206V202H298V206H302ZM302 210H338V202H302V210ZM306 222V206H298V222H306Z" fill="#650B09" mask="url(#path-113-inside-56_78_1223)"/>
<mask id="path-115-inside-57_78_1223" fill="white">
<path d="M305 286H341V302H305V286Z"/>
</mask>
<path d="M305 286H341V302H305V286Z" fill="white" fill-opacity="0.2"/>
<path d="M305 286V282H301V286H305ZM305 290H341V282H305V290ZM309 302V286H301V302H309Z" fill="#650B09" mask="url(#path-115-inside-57_78_1223)"/>
<mask id="path-117-inside-58_78_1223" fill="white">
<path d="M282 306H318V322H282V306Z"/>
</mask>
<path d="M282 306H318V322H282V306Z" fill="white" fill-opacity="0.2"/>
<path d="M282 306V302H278V306H282ZM282 310H318V302H282V310ZM286 322V306H278V322H286Z" fill="#650B09" mask="url(#path-117-inside-58_78_1223)"/>
</g>
<g clip-path="url(#clip7_78_1223)">
<rect width="35" height="123" transform="translate(420 200)" fill="#984215"/>
<mask id="path-119-inside-59_78_1223" fill="white">
<path d="M402 246H438V262H402V246Z"/>
</mask>
<path d="M402 246H438V262H402V246Z" fill="white" fill-opacity="0.2"/>
<path d="M402 246V242H398V246H402ZM402 250H438V242H402V250ZM406 262V246H398V262H406Z" fill="#650B09" mask="url(#path-119-inside-59_78_1223)"/>
<mask id="path-121-inside-60_78_1223" fill="white">
<path d="M405 286H441V302H405V286Z"/>
</mask>
<path d="M405 286H441V302H405V286Z" fill="white" fill-opacity="0.2"/>
<path d="M405 286V282H401V286H405ZM405 290H441V282H405V290ZM409 302V286H401V302H409Z" fill="#650B09" mask="url(#path-121-inside-60_78_1223)"/>
<mask id="path-123-inside-61_78_1223" fill="white">
<path d="M422 266H458V282H422V266Z"/>
</mask>
<path d="M422 266H458V282H422V266Z" fill="white" fill-opacity="0.2"/>
<path d="M422 266V262H418V266H422ZM422 270H458V262H422V270ZM426 282V266H418V282H426Z" fill="#650B09" mask="url(#path-123-inside-61_78_1223)"/>
<mask id="path-125-inside-62_78_1223" fill="white">
<path d="M442 246H478V262H442V246Z"/>
</mask>
<path d="M442 246H478V262H442V246Z" fill="white" fill-opacity="0.2"/>
<path d="M442 246V242H438V246H442ZM442 250H478V242H442V250ZM446 262V246H438V262H446Z" fill="#650B09" mask="url(#path-125-inside-62_78_1223)"/>
<mask id="path-127-inside-63_78_1223" fill="white">
<path d="M402 206H438V222H402V206Z"/>
</mask>
<path d="M402 206H438V222H402V206Z" fill="white" fill-opacity="0.2"/>
<path d="M402 206V202H398V206H402ZM402 210H438V202H402V210ZM406 222V206H398V222H406Z" fill="#650B09" mask="url(#path-127-inside-63_78_1223)"/>
<mask id="path-129-inside-64_78_1223" fill="white">
<path d="M422 226H458V242H422V226Z"/>
</mask>
<path d="M422 226H458V242H422V226Z" fill="white" fill-opacity="0.2"/>
<path d="M422 226V222H418V226H422ZM422 230H458V222H422V230ZM426 242V226H418V242H426Z" fill="#650B09" mask="url(#path-129-inside-64_78_1223)"/>
<mask id="path-131-inside-65_78_1223" fill="white">
<path d="M422 186H458V202H422V186Z"/>
</mask>
<path d="M422 186H458V202H422V186Z" fill="white" fill-opacity="0.2"/>
<path d="M422 186V182H418V186H422ZM422 190H458V182H422V190ZM426 202V186H418V202H426Z" fill="#650B09" mask="url(#path-131-inside-65_78_1223)"/>
<mask id="path-133-inside-66_78_1223" fill="white">
<path d="M442 206H478V222H442V206Z"/>
</mask>
<path d="M442 206H478V222H442V206Z" fill="white" fill-opacity="0.2"/>
<path d="M442 206V202H438V206H442ZM442 210H478V202H442V210ZM446 222V206H438V222H446Z" fill="#650B09" mask="url(#path-133-inside-66_78_1223)"/>
<mask id="path-135-inside-67_78_1223" fill="white">
<path d="M445 286H481V302H445V286Z"/>
</mask>
<path d="M445 286H481V302H445V286Z" fill="white" fill-opacity="0.2"/>
<path d="M445 286V282H441V286H445ZM445 290H481V282H445V290ZM449 302V286H441V302H449Z" fill="#650B09" mask="url(#path-135-inside-67_78_1223)"/>
<mask id="path-137-inside-68_78_1223" fill="white">
<path d="M422 306H458V322H422V306Z"/>
</mask>
<path d="M422 306H458V322H422V306Z" fill="white" fill-opacity="0.2"/>
<path d="M422 306V302H418V306H422ZM422 310H458V302H422V310ZM426 322V306H418V322H426Z" fill="#650B09" mask="url(#path-137-inside-68_78_1223)"/>
</g>
<g clip-path="url(#clip8_78_1223)">
<rect width="35" height="89" transform="translate(0 217)" fill="#984215"/>
<mask id="path-139-inside-69_78_1223" fill="white">
<path d="M-18 251H18V267H-18V251Z"/>
</mask>
<path d="M-18 251H18V267H-18V251Z" fill="white" fill-opacity="0.2"/>
<path d="M-18 251V247H-22V251H-18ZM-18 255H18V247H-18V255ZM-14 267V251H-22V267H-14Z" fill="#650B09" mask="url(#path-139-inside-69_78_1223)"/>
<mask id="path-141-inside-70_78_1223" fill="white">
<path d="M-15 291H21V307H-15V291Z"/>
</mask>
<path d="M-15 291H21V307H-15V291Z" fill="white" fill-opacity="0.2"/>
<path d="M-15 291V287H-19V291H-15ZM-15 295H21V287H-15V295ZM-11 307V291H-19V307H-11Z" fill="#650B09" mask="url(#path-141-inside-70_78_1223)"/>
<mask id="path-143-inside-71_78_1223" fill="white">
<path d="M2 271H38V287H2V271Z"/>
</mask>
<path d="M2 271H38V287H2V271Z" fill="white" fill-opacity="0.2"/>
<path d="M2 271V267H-2V271H2ZM2 275H38V267H2V275ZM6 287V271H-2V287H6Z" fill="#650B09" mask="url(#path-143-inside-71_78_1223)"/>
<mask id="path-145-inside-72_78_1223" fill="white">
<path d="M22 251H58V267H22V251Z"/>
</mask>
<path d="M22 251H58V267H22V251Z" fill="white" fill-opacity="0.2"/>
<path d="M22 251V247H18V251H22ZM22 255H58V247H22V255ZM26 267V251H18V267H26Z" fill="#650B09" mask="url(#path-145-inside-72_78_1223)"/>
<mask id="path-147-inside-73_78_1223" fill="white">
<path d="M-18 211H18V227H-18V211Z"/>
</mask>
<path d="M-18 211H18V227H-18V211Z" fill="white" fill-opacity="0.2"/>
<path d="M-18 211V207H-22V211H-18ZM-18 215H18V207H-18V215ZM-14 227V211H-22V227H-14Z" fill="#650B09" mask="url(#path-147-inside-73_78_1223)"/>
<mask id="path-149-inside-74_78_1223" fill="white">
<path d="M2 231H38V247H2V231Z"/>
</mask>
<path d="M2 231H38V247H2V231Z" fill="white" fill-opacity="0.2"/>
<path d="M2 231V227H-2V231H2ZM2 235H38V227H2V235ZM6 247V231H-2V247H6Z" fill="#650B09" mask="url(#path-149-inside-74_78_1223)"/>
<mask id="path-151-inside-75_78_1223" fill="white">
<path d="M22 211H58V227H22V211Z"/>
</mask>
<path d="M22 211H58V227H22V211Z" fill="white" fill-opacity="0.2"/>
<path d="M22 211V207H18V211H22ZM22 215H58V207H22V215ZM26 227V211H18V227H26Z" fill="#650B09" mask="url(#path-151-inside-75_78_1223)"/>
<mask id="path-153-inside-76_78_1223" fill="white">
<path d="M25 291H61V307H25V291Z"/>
</mask>
<path d="M25 291H61V307H25V291Z" fill="white" fill-opacity="0.2"/>
<path d="M25 291V287H21V291H25ZM25 295H61V287H25V295ZM29 307V291H21V307H29Z" fill="#650B09" mask="url(#path-153-inside-76_78_1223)"/>
</g>
<g clip-path="url(#clip9_78_1223)">
<rect width="36" height="88" transform="translate(87 217)" fill="#984215"/>
<mask id="path-155-inside-77_78_1223" fill="white">
<path d="M62 250H98V266H62V250Z"/>
</mask>
<path d="M62 250H98V266H62V250Z" fill="white" fill-opacity="0.2"/>
<path d="M62 250V246H58V250H62ZM62 254H98V246H62V254ZM66 266V250H58V266H66Z" fill="#650B09" mask="url(#path-155-inside-77_78_1223)"/>
<mask id="path-157-inside-78_78_1223" fill="white">
<path d="M65 290H101V306H65V290Z"/>
</mask>
<path d="M65 290H101V306H65V290Z" fill="white" fill-opacity="0.2"/>
<path d="M65 290V286H61V290H65ZM65 294H101V286H65V294ZM69 306V290H61V306H69Z" fill="#650B09" mask="url(#path-157-inside-78_78_1223)"/>
<mask id="path-159-inside-79_78_1223" fill="white">
<path d="M82 270H118V286H82V270Z"/>
</mask>
<path d="M82 270H118V286H82V270Z" fill="white" fill-opacity="0.2"/>
<path d="M82 270V266H78V270H82ZM82 274H118V266H82V274ZM86 286V270H78V286H86Z" fill="#650B09" mask="url(#path-159-inside-79_78_1223)"/>
<mask id="path-161-inside-80_78_1223" fill="white">
<path d="M102 250H138V266H102V250Z"/>
</mask>
<path d="M102 250H138V266H102V250Z" fill="white" fill-opacity="0.2"/>
<path d="M102 250V246H98V250H102ZM102 254H138V246H102V254ZM106 266V250H98V266H106Z" fill="#650B09" mask="url(#path-161-inside-80_78_1223)"/>
<mask id="path-163-inside-81_78_1223" fill="white">
<path d="M62 210H98V226H62V210Z"/>
</mask>
<path d="M62 210H98V226H62V210Z" fill="white" fill-opacity="0.2"/>
<path d="M62 210V206H58V210H62ZM62 214H98V206H62V214ZM66 226V210H58V226H66Z" fill="#650B09" mask="url(#path-163-inside-81_78_1223)"/>
<mask id="path-165-inside-82_78_1223" fill="white">
<path d="M82 230H118V246H82V230Z"/>
</mask>
<path d="M82 230H118V246H82V230Z" fill="white" fill-opacity="0.2"/>
<path d="M82 230V226H78V230H82ZM82 234H118V226H82V234ZM86 246V230H78V246H86Z" fill="#650B09" mask="url(#path-165-inside-82_78_1223)"/>
<mask id="path-167-inside-83_78_1223" fill="white">
<path d="M102 210H138V226H102V210Z"/>
</mask>
<path d="M102 210H138V226H102V210Z" fill="white" fill-opacity="0.2"/>
<path d="M102 210V206H98V210H102ZM102 214H138V206H102V214ZM106 226V210H98V226H106Z" fill="#650B09" mask="url(#path-167-inside-83_78_1223)"/>
<mask id="path-169-inside-84_78_1223" fill="white">
<path d="M105 290H141V306H105V290Z"/>
</mask>
<path d="M105 290H141V306H105V290Z" fill="white" fill-opacity="0.2"/>
<path d="M105 290V286H101V290H105ZM105 294H141V286H105V294ZM109 306V290H101V306H109Z" fill="#650B09" mask="url(#path-169-inside-84_78_1223)"/>
<mask id="path-171-inside-85_78_1223" fill="white">
<path d="M122 270H158V286H122V270Z"/>
</mask>
<path d="M122 270H158V286H122V270Z" fill="white" fill-opacity="0.2"/>
<path d="M122 270V266H118V270H122ZM122 274H158V266H122V274ZM126 286V270H118V286H126Z" fill="#650B09" mask="url(#path-171-inside-85_78_1223)"/>
<rect width="16" height="10" transform="translate(122 236)" fill="white" fill-opacity="0.2"/>
</g>
<g clip-path="url(#clip10_78_1223)">
<rect width="36" height="70" transform="translate(139 200)" fill="#984215"/>
<mask id="path-173-inside-86_78_1223" fill="white">
<path d="M122 203H158V219H122V203Z"/>
</mask>
<path d="M122 203H158V219H122V203Z" fill="white" fill-opacity="0.2"/>
<path d="M122 203V199H118V203H122ZM122 207H158V199H122V207ZM126 219V203H118V219H126Z" fill="#650B09" mask="url(#path-173-inside-86_78_1223)"/>
<mask id="path-175-inside-87_78_1223" fill="white">
<path d="M125 243H161V259H125V243Z"/>
</mask>
<path d="M125 243H161V259H125V243Z" fill="white" fill-opacity="0.2"/>
<path d="M125 243V239H121V243H125ZM125 247H161V239H125V247ZM129 259V243H121V259H129Z" fill="#650B09" mask="url(#path-175-inside-87_78_1223)"/>
<mask id="path-177-inside-88_78_1223" fill="white">
<path d="M142 223H178V239H142V223Z"/>
</mask>
<path d="M142 223H178V239H142V223Z" fill="white" fill-opacity="0.2"/>
<path d="M142 223V219H138V223H142ZM142 227H178V219H142V227ZM146 239V223H138V239H146Z" fill="#650B09" mask="url(#path-177-inside-88_78_1223)"/>
<mask id="path-179-inside-89_78_1223" fill="white">
<path d="M162 203H198V219H162V203Z"/>
</mask>
<path d="M162 203H198V219H162V203Z" fill="white" fill-opacity="0.2"/>
<path d="M162 203V199H158V203H162ZM162 207H198V199H162V207ZM166 219V203H158V219H166Z" fill="#650B09" mask="url(#path-179-inside-89_78_1223)"/>
<mask id="path-181-inside-90_78_1223" fill="white">
<path d="M165 243H201V259H165V243Z"/>
</mask>
<path d="M165 243H201V259H165V243Z" fill="white" fill-opacity="0.2"/>
<path d="M165 243V239H161V243H165ZM165 247H201V239H165V247ZM169 259V243H161V259H169Z" fill="#650B09" mask="url(#path-181-inside-90_78_1223)"/>
<mask id="path-183-inside-91_78_1223" fill="white">
<path d="M142 263H178V279H142V263Z"/>
</mask>
<path d="M142 263H178V279H142V263Z" fill="white" fill-opacity="0.2"/>
<path d="M142 263V259H138V263H142ZM142 267H178V259H142V267ZM146 279V263H138V279H146Z" fill="#650B09" mask="url(#path-183-inside-91_78_1223)"/>
</g>
<g clip-path="url(#clip11_78_1223)">
<rect width="36" height="53" transform="translate(0 55)" fill="#984215"/>
<mask id="path-185-inside-92_78_1223" fill="white">
<path d="M-20 46H16V62H-20V46Z"/>
</mask>
<path d="M-20 46H16V62H-20V46Z" fill="white" fill-opacity="0.2"/>
<path d="M-20 46V42H-24V46H-20ZM-20 50H16V42H-20V50ZM-16 62V46H-24V62H-16Z" fill="#650B09" mask="url(#path-185-inside-92_78_1223)"/>
<mask id="path-187-inside-93_78_1223" fill="white">
<path d="M-17 86H19V102H-17V86Z"/>
</mask>
<path d="M-17 86H19V102H-17V86Z" fill="white" fill-opacity="0.2"/>
<path d="M-17 86V82H-21V86H-17ZM-17 90H19V82H-17V90ZM-13 102V86H-21V102H-13Z" fill="#650B09" mask="url(#path-187-inside-93_78_1223)"/>
<mask id="path-189-inside-94_78_1223" fill="white">
<path d="M0 66H36V82H0V66Z"/>
</mask>
<path d="M0 66H36V82H0V66Z" fill="white" fill-opacity="0.2"/>
<path d="M0 66V62H-4V66H0ZM0 70H36V62H0V70ZM4 82V66H-4V82H4Z" fill="#650B09" mask="url(#path-189-inside-94_78_1223)"/>
<mask id="path-191-inside-95_78_1223" fill="white">
<path d="M20 46H56V62H20V46Z"/>
</mask>
<path d="M20 46H56V62H20V46Z" fill="white" fill-opacity="0.2"/>
<path d="M20 46V42H16V46H20ZM20 50H56V42H20V50ZM24 62V46H16V62H24Z" fill="#650B09" mask="url(#path-191-inside-95_78_1223)"/>
<mask id="path-193-inside-96_78_1223" fill="white">
<path d="M23 86H59V102H23V86Z"/>
</mask>
<path d="M23 86H59V102H23V86Z" fill="white" fill-opacity="0.2"/>
<path d="M23 86V82H19V86H23ZM23 90H59V82H23V90ZM27 102V86H19V102H27Z" fill="#650B09" mask="url(#path-193-inside-96_78_1223)"/>
</g>
<g clip-path="url(#clip12_78_1223)">
<rect width="49" height="18" transform="translate(318 55)" fill="#984215"/>
<mask id="path-195-inside-97_78_1223" fill="white">
<path d="M305 66H341V82H305V66Z"/>
</mask>
<path d="M305 66H341V82H305V66Z" fill="white" fill-opacity="0.2"/>
<path d="M305 66V62H301V66H305ZM305 70H341V62H305V70ZM309 82V66H301V82H309Z" fill="#650B09" mask="url(#path-195-inside-97_78_1223)"/>
<mask id="path-197-inside-98_78_1223" fill="white">
<path d="M322 46H364V62H322V46Z"/>
</mask>
<path d="M322 46H364V62H322V46Z" fill="white" fill-opacity="0.2"/>
<path d="M322 46V42H318V46H322ZM322 50H364V42H322V50ZM326 62V46H318V62H326Z" fill="#650B09" mask="url(#path-197-inside-98_78_1223)"/>
<mask id="path-199-inside-99_78_1223" fill="white">
<path d="M345 66H381V82H345V66Z"/>
</mask>
<path d="M345 66H381V82H345V66Z" fill="white" fill-opacity="0.2"/>
<path d="M345 66V62H341V66H345ZM345 70H381V62H345V70ZM349 82V66H341V82H349Z" fill="#650B09" mask="url(#path-199-inside-99_78_1223)"/>
</g>
<g clip-path="url(#clip13_78_1223)">
<rect width="50" height="20" transform="translate(178 270)" fill="#984215"/>
<mask id="path-201-inside-100_78_1223" fill="white">
<path d="M165 283H201V299H165V283Z"/>
</mask>
<path d="M165 283H201V299H165V283Z" fill="white" fill-opacity="0.2"/>
<path d="M165 283V279H161V283H165ZM165 287H201V279H165V287ZM169 299V283H161V299H169Z" fill="#650B09" mask="url(#path-201-inside-100_78_1223)"/>
<mask id="path-203-inside-101_78_1223" fill="white">
<path d="M182 263H224V279H182V263Z"/>
</mask>
<path d="M182 263H224V279H182V263Z" fill="white" fill-opacity="0.2"/>
<path d="M182 263V259H178V263H182ZM182 267H224V259H182V267ZM186 279V263H178V279H186Z" fill="#650B09" mask="url(#path-203-inside-101_78_1223)"/>
<mask id="path-205-inside-102_78_1223" fill="white">
<path d="M205 283H241V299H205V283Z"/>
</mask>
<path d="M205 283H241V299H205V283Z" fill="white" fill-opacity="0.2"/>
<path d="M205 283V279H201V283H205ZM205 287H241V279H205V287ZM209 299V283H201V299H209Z" fill="#650B09" mask="url(#path-205-inside-102_78_1223)"/>
</g>
<g clip-path="url(#clip14_78_1223)">
<rect width="15" height="20" transform="translate(318 35)" fill="#984215"/>
<mask id="path-207-inside-103_78_1223" fill="white">
<path d="M299 26H335V42H299V26Z"/>
</mask>
<path d="M299 26H335V42H299V26Z" fill="white" fill-opacity="0.2"/>
<path d="M299 26V22H295V26H299ZM299 30H335V22H299V30ZM303 42V26H295V42H303Z" fill="#650B09" mask="url(#path-207-inside-103_78_1223)"/>
<mask id="path-209-inside-104_78_1223" fill="white">
<path d="M322 46H358V62H322V46Z"/>
</mask>
<path d="M322 46H358V62H322V46Z" fill="white" fill-opacity="0.2"/>
<path d="M322 46V42H318V46H322ZM322 50H358V42H322V50ZM326 62V46H318V62H326Z" fill="#650B09" mask="url(#path-209-inside-104_78_1223)"/>
</g>
<g clip-path="url(#clip15_78_1223)">
<rect width="18" height="20" transform="translate(175 252)" fill="#984215"/>
<mask id="path-211-inside-105_78_1223" fill="white">
<path d="M142 263H178V279H142V263Z"/>
</mask>
<path d="M142 263H178V279H142V263Z" fill="white" fill-opacity="0.2"/>
<path d="M142 263V259H138V263H142ZM142 267H178V259H142V267ZM146 279V263H138V279H146Z" fill="#650B09" mask="url(#path-211-inside-105_78_1223)"/>
<mask id="path-213-inside-106_78_1223" fill="white">
<path d="M159 243H195V259H159V243Z"/>
</mask>
<path d="M159 243H195V259H159V243Z" fill="white" fill-opacity="0.2"/>
<path d="M159 243V239H155V243H159ZM159 247H195V239H159V247ZM163 259V243H155V259H163Z" fill="#650B09" mask="url(#path-213-inside-106_78_1223)"/>
<mask id="path-215-inside-107_78_1223" fill="white">
<path d="M182 263H218V279H182V263Z"/>
</mask>
<path d="M182 263H218V279H182V263Z" fill="white" fill-opacity="0.2"/>
<path d="M182 263V259H178V263H182ZM182 267H218V259H182V267ZM186 279V263H178V279H186Z" fill="#650B09" mask="url(#path-215-inside-107_78_1223)"/>
</g>
<g clip-path="url(#clip16_78_1223)">
<rect width="18" height="35" transform="translate(332 73)" fill="#984215"/>
<mask id="path-217-inside-108_78_1223" fill="white">
<path d="M307 65H341V81H307V65Z"/>
</mask>
<path d="M307 65H341V81H307V65Z" fill="white" fill-opacity="0.2"/>
<path d="M307 65V61H303V65H307ZM307 69H341V61H307V69ZM311 81V65H303V81H311Z" fill="#650B09" mask="url(#path-217-inside-108_78_1223)"/>
<mask id="path-219-inside-109_78_1223" fill="white">
<path d="M330 85H366V101H330V85Z"/>
</mask>
<path d="M330 85H366V101H330V85Z" fill="white" fill-opacity="0.2"/>
<path d="M330 85V81H326V85H330ZM330 89H366V81H330V89ZM334 101V85H326V101H334Z" fill="#650B09" mask="url(#path-219-inside-109_78_1223)"/>
<mask id="path-221-inside-110_78_1223" fill="white">
<path d="M345 65H381V81H345V65Z"/>
</mask>
<path d="M345 65H381V81H345V65Z" fill="white" fill-opacity="0.2"/>
<path d="M345 65V61H341V65H345ZM345 69H381V61H345V69ZM349 81V65H341V81H349Z" fill="#650B09" mask="url(#path-221-inside-110_78_1223)"/>
<mask id="path-223-inside-111_78_1223" fill="white">
<path d="M307 105H341V121H307V105Z"/>
</mask>
<path d="M307 105H341V121H307V105Z" fill="white" fill-opacity="0.2"/>
<path d="M307 105V101H303V105H307ZM307 109H341V101H307V109ZM311 121V105H303V121H311Z" fill="#650B09" mask="url(#path-223-inside-111_78_1223)"/>
<mask id="path-225-inside-112_78_1223" fill="white">
<path d="M345 105H381V121H345V105Z"/>
</mask>
<path d="M345 105H381V121H345V105Z" fill="white" fill-opacity="0.2"/>
<path d="M345 105V101H341V105H345ZM345 109H381V101H345V109ZM349 121V105H341V121H349Z" fill="#650B09" mask="url(#path-225-inside-112_78_1223)"/>
</g>
<g clip-path="url(#clip17_78_1223)">
<rect width="18" height="33" transform="translate(192 290)" fill="#984215"/>
<mask id="path-227-inside-113_78_1223" fill="white">
<path d="M167 282H201V298H167V282Z"/>
</mask>
<path d="M167 282H201V298H167V282Z" fill="white" fill-opacity="0.2"/>
<path d="M167 282V278H163V282H167ZM167 286H201V278H167V286ZM171 298V282H163V298H171Z" fill="#650B09" mask="url(#path-227-inside-113_78_1223)"/>
<mask id="path-229-inside-114_78_1223" fill="white">
<path d="M190 302H226V318H190V302Z"/>
</mask>
<path d="M190 302H226V318H190V302Z" fill="white" fill-opacity="0.2"/>
<path d="M190 302V298H186V302H190ZM190 306H226V298H190V306ZM194 318V302H186V318H194Z" fill="#650B09" mask="url(#path-229-inside-114_78_1223)"/>
<mask id="path-231-inside-115_78_1223" fill="white">
<path d="M205 282H241V298H205V282Z"/>
</mask>
<path d="M205 282H241V298H205V282Z" fill="white" fill-opacity="0.2"/>
<path d="M205 282V278H201V282H205ZM205 286H241V278H205V286ZM209 298V282H201V298H209Z" fill="#650B09" mask="url(#path-231-inside-115_78_1223)"/>
<mask id="path-233-inside-116_78_1223" fill="white">
<path d="M167 322H201V338H167V322Z"/>
</mask>
<path d="M167 322H201V338H167V322Z" fill="white" fill-opacity="0.2"/>
<path d="M167 322V318H163V322H167ZM167 326H201V318H167V326ZM171 338V322H163V338H171Z" fill="#650B09" mask="url(#path-233-inside-116_78_1223)"/>
<mask id="path-235-inside-117_78_1223" fill="white">
<path d="M205 322H241V338H205V322Z"/>
</mask>
<path d="M205 322H241V338H205V322Z" fill="white" fill-opacity="0.2"/>
<path d="M205 322V318H201V322H205ZM205 326H241V318H205V326ZM209 338V322H201V338H209Z" fill="#650B09" mask="url(#path-235-inside-117_78_1223)"/>
</g>
<g clip-path="url(#clip18_78_1223)">
<rect width="17" height="20" transform="translate(350 35)" fill="#984215"/>
<mask id="path-237-inside-118_78_1223" fill="white">
<path d="M322 46H364V62H322V46Z"/>
</mask>
<path d="M322 46H364V62H322V46Z" fill="white" fill-opacity="0.2"/>
<path d="M322 46V42H318V46H322ZM322 50H364V42H322V50ZM326 62V46H318V62H326Z" fill="#650B09" mask="url(#path-237-inside-118_78_1223)"/>
<mask id="path-239-inside-119_78_1223" fill="white">
<path d="M339 26H375V42H339V26Z"/>
</mask>
<path d="M339 26H375V42H339V26Z" fill="white" fill-opacity="0.2"/>
<path d="M339 26V22H335V26H339ZM339 30H375V22H339V30ZM343 42V26H335V42H343Z" fill="#650B09" mask="url(#path-239-inside-119_78_1223)"/>
</g>
<g clip-path="url(#clip19_78_1223)">
<rect width="18" height="20" transform="translate(210 252)" fill="#984215"/>
<mask id="path-241-inside-120_78_1223" fill="white">
<path d="M182 263H224V279H182V263Z"/>
</mask>
<path d="M182 263H224V279H182V263Z" fill="white" fill-opacity="0.2"/>
<path d="M182 263V259H178V263H182ZM182 267H224V259H182V267ZM186 279V263H178V279H186Z" fill="#650B09" mask="url(#path-241-inside-120_78_1223)"/>
<mask id="path-243-inside-121_78_1223" fill="white">
<path d="M199 243H235V259H199V243Z"/>
</mask>
<path d="M199 243H235V259H199V243Z" fill="white" fill-opacity="0.2"/>
<path d="M199 243V239H195V243H199ZM199 247H235V239H199V247ZM203 259V243H195V259H203Z" fill="#650B09" mask="url(#path-243-inside-121_78_1223)"/>
</g>
<g clip-path="url(#clip20_78_1223)">
<rect width="18" height="18" transform="translate(227 270)" fill="#984215"/>
<mask id="path-245-inside-122_78_1223" fill="white">
<path d="M201 283H243V299H201V283Z"/>
</mask>
<path d="M201 283H243V299H201V283Z" fill="white" fill-opacity="0.2"/>
<path d="M201 283V279H197V283H201ZM201 287H243V279H201V287ZM205 299V283H197V299H205Z" fill="#650B09" mask="url(#path-245-inside-122_78_1223)"/>
<mask id="path-247-inside-123_78_1223" fill="white">
<path d="M227 263H263V279H227V263Z"/>
</mask>
<path d="M227 263H263V279H227V263Z" fill="white" fill-opacity="0.2"/>
<path d="M227 263V259H223V263H227ZM227 267H263V259H227V267ZM231 279V263H223V279H231Z" fill="#650B09" mask="url(#path-247-inside-123_78_1223)"/>
</g>
<g clip-path="url(#clip21_78_1223)">
<rect width="18" height="15" transform="translate(210 290)" fill="#984215"/>
<mask id="path-249-inside-124_78_1223" fill="white">
<path d="M184 282H229V298H184V282Z"/>
</mask>
<path d="M184 282H229V298H184V282Z" fill="white" fill-opacity="0.2"/>
<path d="M184 282V278H180V282H184ZM184 286H229V278H184V286ZM188 298V282H180V298H188Z" fill="#650B09" mask="url(#path-249-inside-124_78_1223)"/>
<mask id="path-251-inside-125_78_1223" fill="white">
<path d="M184 302H226V318H184V302Z"/>
</mask>
<path d="M184 302H226V318H184V302Z" fill="white" fill-opacity="0.2"/>
<path d="M184 302V298H180V302H184ZM184 306H226V298H184V306ZM188 318V302H180V318H188Z" fill="#650B09" mask="url(#path-251-inside-125_78_1223)"/>
</g>
<g clip-path="url(#clip22_78_1223)">
<rect width="18" height="18" transform="translate(174 287)" fill="#984215"/>
<mask id="path-253-inside-126_78_1223" fill="white">
<path d="M148 282H193V298H148V282Z"/>
</mask>
<path d="M148 282H193V298H148V282Z" fill="white" fill-opacity="0.2"/>
<path d="M148 282V278H144V282H148ZM148 286H193V278H148V286ZM152 298V282H144V298H152Z" fill="#650B09" mask="url(#path-253-inside-126_78_1223)"/>
<mask id="path-255-inside-127_78_1223" fill="white">
<path d="M144 302H186V318H144V302Z"/>
</mask>
<path d="M144 302H186V318H144V302Z" fill="white" fill-opacity="0.2"/>
<path d="M144 302V298H140V302H144ZM144 306H186V298H144V306ZM148 318V302H140V318H148Z" fill="#650B09" mask="url(#path-255-inside-127_78_1223)"/>
</g>
<g clip-path="url(#clip23_78_1223)">
<rect width="21" height="18" transform="translate(157 270)" fill="#984215"/>
<mask id="path-257-inside-128_78_1223" fill="white">
<path d="M163 283H208V299H163V283Z"/>
</mask>
<path d="M163 283H208V299H163V283Z" fill="white" fill-opacity="0.2"/>
<path d="M163 283V279H159V283H163ZM163 287H208V279H163V287ZM167 299V283H159V299H167Z" fill="#650B09" mask="url(#path-257-inside-128_78_1223)"/>
<mask id="path-259-inside-129_78_1223" fill="white">
<path d="M143 263H188V279H143V263Z"/>
</mask>
<path d="M143 263H188V279H143V263Z" fill="white" fill-opacity="0.2"/>
<path d="M143 263V259H139V263H143ZM143 267H188V259H143V267ZM147 279V263H139V279H147Z" fill="#650B09" mask="url(#path-259-inside-129_78_1223)"/>
<mask id="path-261-inside-130_78_1223" fill="white">
<path d="M114 283H159V299H114V283Z"/>
</mask>
<path d="M114 283H159V299H114V283Z" fill="white" fill-opacity="0.2"/>
<path d="M114 283V279H110V283H114ZM114 287H159V279H114V287ZM118 299V283H110V299H118Z" fill="#650B09" mask="url(#path-261-inside-130_78_1223)"/>
</g>
<g clip-path="url(#clip24_78_1223)">
<rect width="36" height="17" transform="translate(140 55)" fill="#984215"/>
<mask id="path-263-inside-131_78_1223" fill="white">
<path d="M120 66H156V82H120V66Z"/>
</mask>
<path d="M120 66H156V82H120V66Z" fill="white" fill-opacity="0.2"/>
<path d="M120 66V62H116V66H120ZM120 70H156V62H120V70ZM124 82V66H116V82H124Z" fill="#650B09" mask="url(#path-263-inside-131_78_1223)"/>
<mask id="path-265-inside-132_78_1223" fill="white">
<path d="M137 46H173V62H137V46Z"/>
</mask>
<path d="M137 46H173V62H137V46Z" fill="white" fill-opacity="0.2"/>
<path d="M137 46V42H133V46H137ZM137 50H173V42H137V50ZM141 62V46H133V62H141Z" fill="#650B09" mask="url(#path-265-inside-132_78_1223)"/>
<mask id="path-267-inside-133_78_1223" fill="white">
<path d="M160 66H196V82H160V66Z"/>
</mask>
<path d="M160 66H196V82H160V66Z" fill="white" fill-opacity="0.2"/>
<path d="M160 66V62H156V66H160ZM160 70H196V62H160V70ZM164 82V66H156V82H164Z" fill="#650B09" mask="url(#path-267-inside-133_78_1223)"/>
</g>
<g clip-path="url(#clip25_78_1223)">
<rect width="36" height="18" transform="translate(157 37)" fill="#984215"/>
<mask id="path-269-inside-134_78_1223" fill="white">
<path d="M137 46H173V62H137V46Z"/>
</mask>
<path d="M137 46H173V62H137V46Z" fill="white" fill-opacity="0.2"/>
<path d="M137 46V42H133V46H137ZM137 50H173V42H137V50ZM141 62V46H133V62H141Z" fill="#650B09" mask="url(#path-269-inside-134_78_1223)"/>
<mask id="path-271-inside-135_78_1223" fill="white">
<path d="M157 26H193V42H157V26Z"/>
</mask>
<path d="M157 26H193V42H157V26Z" fill="white" fill-opacity="0.2"/>
<path d="M157 26V22H153V26H157ZM157 30H193V22H157V30ZM161 42V26H153V42H161Z" fill="#650B09" mask="url(#path-271-inside-135_78_1223)"/>
<mask id="path-273-inside-136_78_1223" fill="white">
<path d="M177 46H213V62H177V46Z"/>
</mask>
<path d="M177 46H213V62H177V46Z" fill="white" fill-opacity="0.2"/>
<path d="M177 46V42H173V46H177ZM177 50H213V42H177V50ZM181 62V46H173V62H181Z" fill="#650B09" mask="url(#path-273-inside-136_78_1223)"/>
</g>
<g clip-path="url(#clip26_78_1223)">
<rect width="35" height="18" transform="translate(210 37)" fill="#984215"/>
<mask id="path-275-inside-137_78_1223" fill="white">
<path d="M177 46H213V62H177V46Z"/>
</mask>
<path d="M177 46H213V62H177V46Z" fill="white" fill-opacity="0.2"/>
<path d="M177 46V42H173V46H177ZM177 50H213V42H177V50ZM181 62V46H173V62H181Z" fill="#650B09" mask="url(#path-275-inside-137_78_1223)"/>
<mask id="path-277-inside-138_78_1223" fill="white">
<path d="M197 26H233V42H197V26Z"/>
</mask>
<path d="M197 26H233V42H197V26Z" fill="white" fill-opacity="0.2"/>
<path d="M197 26V22H193V26H197ZM197 30H233V22H197V30ZM201 42V26H193V42H201Z" fill="#650B09" mask="url(#path-277-inside-138_78_1223)"/>
<mask id="path-279-inside-139_78_1223" fill="white">
<path d="M217 46H253V62H217V46Z"/>
</mask>
<path d="M217 46H253V62H217V46Z" fill="white" fill-opacity="0.2"/>
<path d="M217 46V42H213V46H217ZM217 50H253V42H217V50ZM221 62V46H213V62H221Z" fill="#650B09" mask="url(#path-279-inside-139_78_1223)"/>
<mask id="path-281-inside-140_78_1223" fill="white">
<path d="M237 26H273V42H237V26Z"/>
</mask>
<path d="M237 26H273V42H237V26Z" fill="white" fill-opacity="0.2"/>
<path d="M237 26V22H233V26H237ZM237 30H273V22H237V30ZM241 42V26H233V42H241Z" fill="#650B09" mask="url(#path-281-inside-140_78_1223)"/>
</g>
<g clip-path="url(#clip27_78_1223)">
<rect width="52" height="18" transform="translate(35 125)" fill="#984215"/>
<mask id="path-283-inside-141_78_1223" fill="white">
<path d="M33 126H69V142H33V126Z"/>
</mask>
<path d="M33 126H69V142H33V126Z" fill="white" fill-opacity="0.2"/>
<path d="M33 126V122H29V126H33ZM33 130H69V122H33V130ZM37 142V126H29V142H37Z" fill="#650B09" mask="url(#path-283-inside-141_78_1223)"/>
<mask id="path-285-inside-142_78_1223" fill="white">
<path d="M73 126H109V142H73V126Z"/>
</mask>
<path d="M73 126H109V142H73V126Z" fill="white" fill-opacity="0.2"/>
<path d="M73 126V122H69V126H73ZM73 130H109V122H73V130ZM77 142V126H69V142H77Z" fill="#650B09" mask="url(#path-285-inside-142_78_1223)"/>
</g>
<g clip-path="url(#clip28_78_1223)">
<rect width="88" height="18" transform="translate(17 200)" fill="#984215"/>
<mask id="path-287-inside-143_78_1223" fill="white">
<path d="M-18 211H18V227H-18V211Z"/>
</mask>
<path d="M-18 211H18V227H-18V211Z" fill="white" fill-opacity="0.2"/>
<path d="M-18 211V207H-22V211H-18ZM-18 215H18V207H-18V215ZM-14 227V211H-22V227H-14Z" fill="#650B09" mask="url(#path-287-inside-143_78_1223)"/>
<mask id="path-289-inside-144_78_1223" fill="white">
<path d="M2 191H38V207H2V191Z"/>
</mask>
<path d="M2 191H38V207H2V191Z" fill="white" fill-opacity="0.2"/>
<path d="M2 191V187H-2V191H2ZM2 195H38V187H2V195ZM6 207V191H-2V207H6Z" fill="#650B09" mask="url(#path-289-inside-144_78_1223)"/>
<mask id="path-291-inside-145_78_1223" fill="white">
<path d="M22 211H58V227H22V211Z"/>
</mask>
<path d="M22 211H58V227H22V211Z" fill="white" fill-opacity="0.2"/>
<path d="M22 211V207H18V211H22ZM22 215H58V207H22V215ZM26 227V211H18V227H26Z" fill="#650B09" mask="url(#path-291-inside-145_78_1223)"/>
<mask id="path-293-inside-146_78_1223" fill="white">
<path d="M62 211H98V227H62V211Z"/>
</mask>
<path d="M62 211H98V227H62V211Z" fill="white" fill-opacity="0.2"/>
<path d="M62 211V207H58V211H62ZM62 215H98V207H62V215ZM66 227V211H58V227H66Z" fill="#650B09" mask="url(#path-293-inside-146_78_1223)"/>
<mask id="path-295-inside-147_78_1223" fill="white">
<path d="M42 191H78V207H42V191Z"/>
</mask>
<path d="M42 191H78V207H42V191Z" fill="white" fill-opacity="0.2"/>
<path d="M42 191V187H38V191H42ZM42 195H78V187H42V195ZM46 207V191H38V207H46Z" fill="#650B09" mask="url(#path-295-inside-147_78_1223)"/>
<mask id="path-297-inside-148_78_1223" fill="white">
<path d="M82 191H118V207H82V191Z"/>
</mask>
<path d="M82 191H118V207H82V191Z" fill="white" fill-opacity="0.2"/>
<path d="M82 191V187H78V191H82ZM82 195H118V187H82V195ZM86 207V191H78V207H86Z" fill="#650B09" mask="url(#path-297-inside-148_78_1223)"/>
<mask id="path-299-inside-149_78_1223" fill="white">
<path d="M102 211H138V227H102V211Z"/>
</mask>
<path d="M102 211H138V227H102V211Z" fill="white" fill-opacity="0.2"/>
<path d="M102 211V207H98V211H102ZM102 215H138V207H102V215ZM106 227V211H98V227H106Z" fill="#650B09" mask="url(#path-299-inside-149_78_1223)"/>
</g>
<g clip-path="url(#clip29_78_1223)">
<rect width="88" height="18" transform="translate(17 305)" fill="#984215"/>
<mask id="path-301-inside-150_78_1223" fill="white">
<path d="M-15 290H21V306H-15V290Z"/>
</mask>
<path d="M-15 290H21V306H-15V290Z" fill="white" fill-opacity="0.2"/>
<path d="M-15 290V286H-19V290H-15ZM-15 294H21V286H-15V294ZM-11 306V290H-19V306H-11Z" fill="#650B09" mask="url(#path-301-inside-150_78_1223)"/>
<mask id="path-303-inside-151_78_1223" fill="white">
<path d="M5 310H41V326H5V310Z"/>
</mask>
<path d="M5 310H41V326H5V310Z" fill="white" fill-opacity="0.2"/>
<path d="M5 310V306H1V310H5ZM5 314H41V306H5V314ZM9 326V310H1V326H9Z" fill="#650B09" mask="url(#path-303-inside-151_78_1223)"/>
<mask id="path-305-inside-152_78_1223" fill="white">
<path d="M45 310H81V326H45V310Z"/>
</mask>
<path d="M45 310H81V326H45V310Z" fill="white" fill-opacity="0.2"/>
<path d="M45 310V306H41V310H45ZM45 314H81V306H45V314ZM49 326V310H41V326H49Z" fill="#650B09" mask="url(#path-305-inside-152_78_1223)"/>
<mask id="path-307-inside-153_78_1223" fill="white">
<path d="M25 290H61V306H25V290Z"/>
</mask>
<path d="M25 290H61V306H25V290Z" fill="white" fill-opacity="0.2"/>
<path d="M25 290V286H21V290H25ZM25 294H61V286H25V294ZM29 306V290H21V306H29Z" fill="#650B09" mask="url(#path-307-inside-153_78_1223)"/>
<mask id="path-309-inside-154_78_1223" fill="white">
<path d="M65 290H101V306H65V290Z"/>
</mask>
<path d="M65 290H101V306H65V290Z" fill="white" fill-opacity="0.2"/>
<path d="M65 290V286H61V290H65ZM65 294H101V286H65V294ZM69 306V290H61V306H69Z" fill="#650B09" mask="url(#path-309-inside-154_78_1223)"/>
<mask id="path-311-inside-155_78_1223" fill="white">
<path d="M85 310H121V326H85V310Z"/>
</mask>
<path d="M85 310H121V326H85V310Z" fill="white" fill-opacity="0.2"/>
<path d="M85 310V306H81V310H85ZM85 314H121V306H85V314ZM89 326V310H81V326H89Z" fill="#650B09" mask="url(#path-311-inside-155_78_1223)"/>
</g>
<g clip-path="url(#clip30_78_1223)">
<rect width="51" height="18" transform="translate(176 90)" fill="#984215"/>
<mask id="path-313-inside-156_78_1223" fill="white">
<path d="M143 106H179V122H143V106Z"/>
</mask>
<path d="M143 106H179V122H143V106Z" fill="white" fill-opacity="0.2"/>
<path d="M143 106V102H139V106H143ZM143 110H179V102H143V110ZM147 122V106H139V122H147Z" fill="#650B09" mask="url(#path-313-inside-156_78_1223)"/>
<mask id="path-315-inside-157_78_1223" fill="white">
<path d="M160 86H196V102H160V86Z"/>
</mask>
<path d="M160 86H196V102H160V86Z" fill="white" fill-opacity="0.2"/>
<path d="M160 86V82H156V86H160ZM160 90H196V82H160V90ZM164 102V86H156V102H164Z" fill="#650B09" mask="url(#path-315-inside-157_78_1223)"/>
<mask id="path-317-inside-158_78_1223" fill="white">
<path d="M200 86H236V102H200V86Z"/>
</mask>
<path d="M200 86H236V102H200V86Z" fill="white" fill-opacity="0.2"/>
<path d="M200 86V82H196V86H200ZM200 90H236V82H200V90ZM204 102V86H196V102H204Z" fill="#650B09" mask="url(#path-317-inside-158_78_1223)"/>
<mask id="path-319-inside-159_78_1223" fill="white">
<path d="M183 106H219V122H183V106Z"/>
</mask>
<path d="M183 106H219V122H183V106Z" fill="white" fill-opacity="0.2"/>
<path d="M183 106V102H179V106H183ZM183 110H219V102H183V110ZM187 122V106H179V122H187Z" fill="#650B09" mask="url(#path-319-inside-159_78_1223)"/>
</g>
<g clip-path="url(#clip31_78_1223)">
<rect width="53" height="18" transform="translate(175 20)" fill="#984215"/>
<mask id="path-321-inside-160_78_1223" fill="white">
<path d="M174 7H210V23H174V7Z"/>
</mask>
<path d="M174 7H210V23H174V7Z" fill="white" fill-opacity="0.2"/>
<path d="M174 7V3H170V7H174ZM174 11H210V3H174V11ZM178 23V7H170V23H178Z" fill="#650B09" mask="url(#path-321-inside-160_78_1223)"/>
<mask id="path-323-inside-161_78_1223" fill="white">
<path d="M157 27H193V43H157V27Z"/>
</mask>
<path d="M157 27H193V43H157V27Z" fill="white" fill-opacity="0.2"/>
<path d="M157 27V23H153V27H157ZM157 31H193V23H157V31ZM161 43V27H153V43H161Z" fill="#650B09" mask="url(#path-323-inside-161_78_1223)"/>
<mask id="path-325-inside-162_78_1223" fill="white">
<path d="M197 27H233V43H197V27Z"/>
</mask>
<path d="M197 27H233V43H197V27Z" fill="white" fill-opacity="0.2"/>
<path d="M197 27V23H193V27H197ZM197 31H233V23H197V31ZM201 43V27H193V43H201Z" fill="#650B09" mask="url(#path-325-inside-162_78_1223)"/>
<mask id="path-327-inside-163_78_1223" fill="white">
<path d="M214 7H250V23H214V7Z"/>
</mask>
<path d="M214 7H250V23H214V7Z" fill="white" fill-opacity="0.2"/>
<path d="M214 7V3H210V7H214ZM214 11H250V3H214V11ZM218 23V7H210V23H218Z" fill="#650B09" mask="url(#path-327-inside-163_78_1223)"/>
</g>
<g clip-path="url(#clip32_78_1223)">
<rect width="88" height="18" transform="translate(35 20)" fill="#984215"/>
<mask id="path-329-inside-164_78_1223" fill="white">
<path d="M0 26H36V42H0V26Z"/>
</mask>
<path d="M0 26H36V42H0V26Z" fill="white" fill-opacity="0.2"/>
<path d="M0 26V22H-4V26H0ZM0 30H36V22H0V30ZM4 42V26H-4V42H4Z" fill="#650B09" mask="url(#path-329-inside-164_78_1223)"/>
<mask id="path-331-inside-165_78_1223" fill="white">
<path d="M20 6H56V22H20V6Z"/>
</mask>
<path d="M20 6H56V22H20V6Z" fill="white" fill-opacity="0.2"/>
<path d="M20 6V2H16V6H20ZM20 10H56V2H20V10ZM24 22V6H16V22H24Z" fill="#650B09" mask="url(#path-331-inside-165_78_1223)"/>
<mask id="path-333-inside-166_78_1223" fill="white">
<path d="M40 26H76V42H40V26Z"/>
</mask>
<path d="M40 26H76V42H40V26Z" fill="white" fill-opacity="0.2"/>
<path d="M40 26V22H36V26H40ZM40 30H76V22H40V30ZM44 42V26H36V42H44Z" fill="#650B09" mask="url(#path-333-inside-166_78_1223)"/>
<mask id="path-335-inside-167_78_1223" fill="white">
<path d="M80 26H116V42H80V26Z"/>
</mask>
<path d="M80 26H116V42H80V26Z" fill="white" fill-opacity="0.2"/>
<path d="M80 26V22H76V26H80ZM80 30H116V22H80V30ZM84 42V26H76V42H84Z" fill="#650B09" mask="url(#path-335-inside-167_78_1223)"/>
<mask id="path-337-inside-168_78_1223" fill="white">
<path d="M120 26H156V42H120V26Z"/>
</mask>
<path d="M120 26H156V42H120V26Z" fill="white" fill-opacity="0.2"/>
<path d="M120 26V22H116V26H120ZM120 30H156V22H120V30ZM124 42V26H116V42H124Z" fill="#650B09" mask="url(#path-337-inside-168_78_1223)"/>
<mask id="path-339-inside-169_78_1223" fill="white">
<path d="M60 6H96V22H60V6Z"/>
</mask>
<path d="M60 6H96V22H60V6Z" fill="white" fill-opacity="0.2"/>
<path d="M60 6V2H56V6H60ZM60 10H96V2H60V10ZM64 22V6H56V22H64Z" fill="#650B09" mask="url(#path-339-inside-169_78_1223)"/>
<mask id="path-341-inside-170_78_1223" fill="white">
<path d="M100 6H136V22H100V6Z"/>
</mask>
<path d="M100 6H136V22H100V6Z" fill="white" fill-opacity="0.2"/>
<path d="M100 6V2H96V6H100ZM100 10H136V2H100V10ZM104 22V6H96V22H104Z" fill="#650B09" mask="url(#path-341-inside-170_78_1223)"/>
</g>
<g clip-path="url(#clip33_78_1223)">
<rect width="88" height="18" transform="translate(455 20)" fill="#984215"/>
<mask id="path-343-inside-171_78_1223" fill="white">
<path d="M422 6H458V22H422V6Z"/>
</mask>
<path d="M422 6H458V22H422V6Z" fill="white" fill-opacity="0.2"/>
<path d="M422 6V2H418V6H422ZM422 10H458V2H422V10ZM426 22V6H418V22H426Z" fill="#650B09" mask="url(#path-343-inside-171_78_1223)"/>
<mask id="path-345-inside-172_78_1223" fill="white">
<path d="M442 26H478V42H442V26Z"/>
</mask>
<path d="M442 26H478V42H442V26Z" fill="white" fill-opacity="0.2"/>
<path d="M442 26V22H438V26H442ZM442 30H478V22H442V30ZM446 42V26H438V42H446Z" fill="#650B09" mask="url(#path-345-inside-172_78_1223)"/>
<mask id="path-347-inside-173_78_1223" fill="white">
<path d="M482 26H518V42H482V26Z"/>
</mask>
<path d="M482 26H518V42H482V26Z" fill="white" fill-opacity="0.2"/>
<path d="M482 26V22H478V26H482ZM482 30H518V22H482V30ZM486 42V26H478V42H486Z" fill="#650B09" mask="url(#path-347-inside-173_78_1223)"/>
<mask id="path-349-inside-174_78_1223" fill="white">
<path d="M522 26H558V42H522V26Z"/>
</mask>
<path d="M522 26H558V42H522V26Z" fill="white" fill-opacity="0.2"/>
<path d="M522 26V22H518V26H522ZM522 30H558V22H522V30ZM526 42V26H518V42H526Z" fill="#650B09" mask="url(#path-349-inside-174_78_1223)"/>
<mask id="path-351-inside-175_78_1223" fill="white">
<path d="M462 6H498V22H462V6Z"/>
</mask>
<path d="M462 6H498V22H462V6Z" fill="white" fill-opacity="0.2"/>
<path d="M462 6V2H458V6H462ZM462 10H498V2H462V10ZM466 22V6H458V22H466Z" fill="#650B09" mask="url(#path-351-inside-175_78_1223)"/>
<mask id="path-353-inside-176_78_1223" fill="white">
<path d="M502 6H538V22H502V6Z"/>
</mask>
<path d="M502 6H538V22H502V6Z" fill="white" fill-opacity="0.2"/>
<path d="M502 6V2H498V6H502ZM502 10H538V2H502V10ZM506 22V6H498V22H506Z" fill="#650B09" mask="url(#path-353-inside-176_78_1223)"/>
</g>
<g clip-path="url(#clip34_78_1223)">
<rect width="88" height="18" transform="translate(315 200)" fill="#984215"/>
<mask id="path-355-inside-177_78_1223" fill="white">
<path d="M282 186H318V202H282V186Z"/>
</mask>
<path d="M282 186H318V202H282V186Z" fill="white" fill-opacity="0.2"/>
<path d="M282 186V182H278V186H282ZM282 190H318V182H282V190ZM286 202V186H278V202H286Z" fill="#650B09" mask="url(#path-355-inside-177_78_1223)"/>
<mask id="path-357-inside-178_78_1223" fill="white">
<path d="M302 206H338V222H302V206Z"/>
</mask>
<path d="M302 206H338V222H302V206Z" fill="white" fill-opacity="0.2"/>
<path d="M302 206V202H298V206H302ZM302 210H338V202H302V210ZM306 222V206H298V222H306Z" fill="#650B09" mask="url(#path-357-inside-178_78_1223)"/>
<mask id="path-359-inside-179_78_1223" fill="white">
<path d="M342 206H378V222H342V206Z"/>
</mask>
<path d="M342 206H378V222H342V206Z" fill="white" fill-opacity="0.2"/>
<path d="M342 206V202H338V206H342ZM342 210H378V202H342V210ZM346 222V206H338V222H346Z" fill="#650B09" mask="url(#path-359-inside-179_78_1223)"/>
<mask id="path-361-inside-180_78_1223" fill="white">
<path d="M382 206H418V222H382V206Z"/>
</mask>
<path d="M382 206H418V222H382V206Z" fill="white" fill-opacity="0.2"/>
<path d="M382 206V202H378V206H382ZM382 210H418V202H382V210ZM386 222V206H378V222H386Z" fill="#650B09" mask="url(#path-361-inside-180_78_1223)"/>
<mask id="path-363-inside-181_78_1223" fill="white">
<path d="M322 186H358V202H322V186Z"/>
</mask>
<path d="M322 186H358V202H322V186Z" fill="white" fill-opacity="0.2"/>
<path d="M322 186V182H318V186H322ZM322 190H358V182H322V190ZM326 202V186H318V202H326Z" fill="#650B09" mask="url(#path-363-inside-181_78_1223)"/>
<mask id="path-365-inside-182_78_1223" fill="white">
<path d="M362 186H398V202H362V186Z"/>
</mask>
<path d="M362 186H398V202H362V186Z" fill="white" fill-opacity="0.2"/>
<path d="M362 186V182H358V186H362ZM362 190H398V182H362V190ZM366 202V186H358V202H366Z" fill="#650B09" mask="url(#path-365-inside-182_78_1223)"/>
</g>
<g clip-path="url(#clip35_78_1223)">
<rect width="70" height="18" transform="translate(455 200)" fill="#984215"/>
<mask id="path-367-inside-183_78_1223" fill="white">
<path d="M422 186H458V202H422V186Z"/>
</mask>
<path d="M422 186H458V202H422V186Z" fill="white" fill-opacity="0.2"/>
<path d="M422 186V182H418V186H422ZM422 190H458V182H422V190ZM426 202V186H418V202H426Z" fill="#650B09" mask="url(#path-367-inside-183_78_1223)"/>
<mask id="path-369-inside-184_78_1223" fill="white">
<path d="M442 206H478V222H442V206Z"/>
</mask>
<path d="M442 206H478V222H442V206Z" fill="white" fill-opacity="0.2"/>
<path d="M442 206V202H438V206H442ZM442 210H478V202H442V210ZM446 222V206H438V222H446Z" fill="#650B09" mask="url(#path-369-inside-184_78_1223)"/>
<mask id="path-371-inside-185_78_1223" fill="white">
<path d="M482 206H518V222H482V206Z"/>
</mask>
<path d="M482 206H518V222H482V206Z" fill="white" fill-opacity="0.2"/>
<path d="M482 206V202H478V206H482ZM482 210H518V202H482V210ZM486 222V206H478V222H486Z" fill="#650B09" mask="url(#path-371-inside-185_78_1223)"/>
<mask id="path-373-inside-186_78_1223" fill="white">
<path d="M522 206H558V222H522V206Z"/>
</mask>
<path d="M522 206H558V222H522V206Z" fill="white" fill-opacity="0.2"/>
<path d="M522 206V202H518V206H522ZM522 210H558V202H522V210ZM526 222V206H518V222H526Z" fill="#650B09" mask="url(#path-373-inside-186_78_1223)"/>
<mask id="path-375-inside-187_78_1223" fill="white">
<path d="M462 186H498V202H462V186Z"/>
</mask>
<path d="M462 186H498V202H462V186Z" fill="white" fill-opacity="0.2"/>
<path d="M462 186V182H458V186H462ZM462 190H498V182H462V190ZM466 202V186H458V202H466Z" fill="#650B09" mask="url(#path-375-inside-187_78_1223)"/>
<mask id="path-377-inside-188_78_1223" fill="white">
<path d="M502 186H538V202H502V186Z"/>
</mask>
<path d="M502 186H538V202H502V186Z" fill="white" fill-opacity="0.2"/>
<path d="M502 186V182H498V186H502ZM502 190H538V182H502V190ZM506 202V186H498V202H506Z" fill="#650B09" mask="url(#path-377-inside-188_78_1223)"/>
</g>
<g clip-path="url(#clip36_78_1223)">
<rect width="88" height="18" transform="translate(455 125)" fill="#984215"/>
<mask id="path-379-inside-189_78_1223" fill="white">
<path d="M422 126H458V142H422V126Z"/>
</mask>
<path d="M422 126H458V142H422V126Z" fill="white" fill-opacity="0.2"/>
<path d="M422 126V122H418V126H422ZM422 130H458V122H422V130ZM426 142V126H418V142H426Z" fill="#650B09" mask="url(#path-379-inside-189_78_1223)"/>
<mask id="path-381-inside-190_78_1223" fill="white">
<path d="M462 126H498V142H462V126Z"/>
</mask>
<path d="M462 126H498V142H462V126Z" fill="white" fill-opacity="0.2"/>
<path d="M462 126V122H458V126H462ZM462 130H498V122H462V130ZM466 142V126H458V142H466Z" fill="#650B09" mask="url(#path-381-inside-190_78_1223)"/>
<mask id="path-383-inside-191_78_1223" fill="white">
<path d="M502 126H538V142H502V126Z"/>
</mask>
<path d="M502 126H538V142H502V126Z" fill="white" fill-opacity="0.2"/>
<path d="M502 126V122H498V126H502ZM502 130H538V122H502V130ZM506 142V126H498V142H506Z" fill="#650B09" mask="url(#path-383-inside-191_78_1223)"/>
</g>
<g clip-path="url(#clip37_78_1223)">
<rect width="88" height="18" transform="translate(315 305)" fill="#984215"/>
<mask id="path-385-inside-192_78_1223" fill="white">
<path d="M282 306H318V322H282V306Z"/>
</mask>
<path d="M282 306H318V322H282V306Z" fill="white" fill-opacity="0.2"/>
<path d="M282 306V302H278V306H282ZM282 310H318V302H282V310ZM286 322V306H278V322H286Z" fill="#650B09" mask="url(#path-385-inside-192_78_1223)"/>
<mask id="path-387-inside-193_78_1223" fill="white">
<path d="M322 306H358V322H322V306Z"/>
</mask>
<path d="M322 306H358V322H322V306Z" fill="white" fill-opacity="0.2"/>
<path d="M322 306V302H318V306H322ZM322 310H358V302H322V310ZM326 322V306H318V322H326Z" fill="#650B09" mask="url(#path-387-inside-193_78_1223)"/>
<mask id="path-389-inside-194_78_1223" fill="white">
<path d="M362 306H398V322H362V306Z"/>
</mask>
<path d="M362 306H398V322H362V306Z" fill="white" fill-opacity="0.2"/>
<path d="M362 306V302H358V306H362ZM362 310H398V302H362V310ZM366 322V306H358V322H366Z" fill="#650B09" mask="url(#path-389-inside-194_78_1223)"/>
</g>
<g clip-path="url(#clip38_78_1223)">
<rect width="53" height="18" transform="translate(490 305)" fill="#984215"/>
<mask id="path-391-inside-195_78_1223" fill="white">
<path d="M472 306H508V322H472V306Z"/>
</mask>
<path d="M472 306H508V322H472V306Z" fill="white" fill-opacity="0.2"/>
<path d="M472 306V302H468V306H472ZM472 310H508V302H472V310ZM476 322V306H468V322H476Z" fill="#650B09" mask="url(#path-391-inside-195_78_1223)"/>
<mask id="path-393-inside-196_78_1223" fill="white">
<path d="M512 306H548V322H512V306Z"/>
</mask>
<path d="M512 306H548V322H512V306Z" fill="white" fill-opacity="0.2"/>
<path d="M512 306V302H508V306H512ZM512 310H548V302H512V310ZM516 322V306H508V322H516Z" fill="#650B09" mask="url(#path-393-inside-196_78_1223)"/>
</g>
<g clip-path="url(#clip39_78_1223)">
<rect width="53" height="20" transform="translate(472 285)" fill="#984215"/>
<mask id="path-395-inside-197_78_1223" fill="white">
<path d="M452 286H488V302H452V286Z"/>
</mask>
<path d="M452 286H488V302H452V286Z" fill="white" fill-opacity="0.2"/>
<path d="M452 286V282H448V286H452ZM452 290H488V282H452V290ZM456 302V286H448V302H456Z" fill="#650B09" mask="url(#path-395-inside-197_78_1223)"/>
<mask id="path-397-inside-198_78_1223" fill="white">
<path d="M492 286H528V302H492V286Z"/>
</mask>
<path d="M492 286H528V302H492V286Z" fill="white" fill-opacity="0.2"/>
<path d="M492 286V282H488V286H492ZM492 290H528V282H492V290ZM496 302V286H488V302H496Z" fill="#650B09" mask="url(#path-397-inside-198_78_1223)"/>
</g>
<g clip-path="url(#clip40_78_1223)">
<rect width="53" height="18" transform="translate(455 270)" fill="#984215"/>
<mask id="path-399-inside-199_78_1223" fill="white">
<path d="M422 266H458V282H422V266Z"/>
</mask>
<path d="M422 266H458V282H422V266Z" fill="white" fill-opacity="0.2"/>
<path d="M422 266V262H418V266H422ZM422 270H458V262H422V270ZM426 282V266H418V282H426Z" fill="#650B09" mask="url(#path-399-inside-199_78_1223)"/>
<mask id="path-401-inside-200_78_1223" fill="white">
<path d="M462 266H498V282H462V266Z"/>
</mask>
<path d="M462 266H498V282H462V266Z" fill="white" fill-opacity="0.2"/>
<path d="M462 266V262H458V266H462ZM462 270H498V262H462V270ZM466 282V266H458V282H466Z" fill="#650B09" mask="url(#path-401-inside-200_78_1223)"/>
<mask id="path-403-inside-201_78_1223" fill="white">
<path d="M452 286H488V302H452V286Z"/>
</mask>
<path d="M452 286H488V302H452V286Z" fill="white" fill-opacity="0.2"/>
<path d="M452 286V282H448V286H452ZM452 290H488V282H452V290ZM456 302V286H448V302H456Z" fill="#650B09" mask="url(#path-403-inside-201_78_1223)"/>
<mask id="path-405-inside-202_78_1223" fill="white">
<path d="M492 286H528V302H492V286Z"/>
</mask>
<path d="M492 286H528V302H492V286Z" fill="white" fill-opacity="0.2"/>
<path d="M492 286V282H488V286H492ZM492 290H528V282H492V290ZM496 302V286H488V302H496Z" fill="#650B09" mask="url(#path-405-inside-202_78_1223)"/>
<mask id="path-407-inside-203_78_1223" fill="white">
<path d="M502 266H538V282H502V266Z"/>
</mask>
<path d="M502 266H538V282H502V266Z" fill="white" fill-opacity="0.2"/>
<path d="M502 266V262H498V266H502ZM502 270H538V262H502V270ZM506 282V266H498V282H506Z" fill="#650B09" mask="url(#path-407-inside-203_78_1223)"/>
</g>
<g clip-path="url(#clip41_78_1223)">
<rect width="18" height="18" transform="translate(490 252)" fill="#984215"/>
<mask id="path-409-inside-204_78_1223" fill="white">
<path d="M462 266H498V282H462V266Z"/>
</mask>
<path d="M462 266H498V282H462V266Z" fill="white" fill-opacity="0.2"/>
<path d="M462 266V262H458V266H462ZM462 270H498V262H462V270ZM466 282V266H458V282H466Z" fill="#650B09" mask="url(#path-409-inside-204_78_1223)"/>
<mask id="path-411-inside-205_78_1223" fill="white">
<path d="M502 266H538V282H502V266Z"/>
</mask>
<path d="M502 266H538V282H502V266Z" fill="white" fill-opacity="0.2"/>
<path d="M502 266V262H498V266H502ZM502 270H538V262H502V270ZM506 282V266H498V282H506Z" fill="#650B09" mask="url(#path-411-inside-205_78_1223)"/>
<mask id="path-413-inside-206_78_1223" fill="white">
<path d="M482 246H523V262H482V246Z"/>
</mask>
<path d="M482 246H523V262H482V246Z" fill="white" fill-opacity="0.2"/>
<path d="M482 246V242H478V246H482ZM482 250H523V242H482V250ZM486 262V246H478V262H486Z" fill="#650B09" mask="url(#path-413-inside-206_78_1223)"/>
</g>
<g clip-path="url(#clip42_78_1223)">
<rect width="70" height="18" transform="translate(455 72)" fill="#984215"/>
<mask id="path-415-inside-207_78_1223" fill="white">
<path d="M425 86H461V102H425V86Z"/>
</mask>
<path d="M425 86H461V102H425V86Z" fill="white" fill-opacity="0.2"/>
<path d="M425 86V82H421V86H425ZM425 90H461V82H425V90ZM429 102V86H421V102H429Z" fill="#650B09" mask="url(#path-415-inside-207_78_1223)"/>
<mask id="path-417-inside-208_78_1223" fill="white">
<path d="M442 66H478V82H442V66Z"/>
</mask>
<path d="M442 66H478V82H442V66Z" fill="white" fill-opacity="0.2"/>
<path d="M442 66V62H438V66H442ZM442 70H478V62H442V70ZM446 82V66H438V82H446Z" fill="#650B09" mask="url(#path-417-inside-208_78_1223)"/>
<mask id="path-419-inside-209_78_1223" fill="white">
<path d="M482 66H518V82H482V66Z"/>
</mask>
<path d="M482 66H518V82H482V66Z" fill="white" fill-opacity="0.2"/>
<path d="M482 66V62H478V66H482ZM482 70H518V62H482V70ZM486 82V66H478V82H486Z" fill="#650B09" mask="url(#path-419-inside-209_78_1223)"/>
<mask id="path-421-inside-210_78_1223" fill="white">
<path d="M522 66H558V82H522V66Z"/>
</mask>
<path d="M522 66H558V82H522V66Z" fill="white" fill-opacity="0.2"/>
<path d="M522 66V62H518V66H522ZM522 70H558V62H522V70ZM526 82V66H518V82H526Z" fill="#650B09" mask="url(#path-421-inside-210_78_1223)"/>
<mask id="path-423-inside-211_78_1223" fill="white">
<path d="M465 86H501V102H465V86Z"/>
</mask>
<path d="M465 86H501V102H465V86Z" fill="white" fill-opacity="0.2"/>
<path d="M465 86V82H461V86H465ZM465 90H501V82H465V90ZM469 102V86H461V102H469Z" fill="#650B09" mask="url(#path-423-inside-211_78_1223)"/>
<mask id="path-425-inside-212_78_1223" fill="white">
<path d="M505 86H541V102H505V86Z"/>
</mask>
<path d="M505 86H541V102H505V86Z" fill="white" fill-opacity="0.2"/>
<path d="M505 86V82H501V86H505ZM505 90H541V82H505V90ZM509 102V86H501V102H509Z" fill="#650B09" mask="url(#path-425-inside-212_78_1223)"/>
</g>
<g clip-path="url(#clip43_78_1223)">
<rect width="70" height="18" transform="translate(315 252)" fill="#984215"/>
<mask id="path-427-inside-213_78_1223" fill="white">
<path d="M285 266H321V282H285V266Z"/>
</mask>
<path d="M285 266H321V282H285V266Z" fill="white" fill-opacity="0.2"/>
<path d="M285 266V262H281V266H285ZM285 270H321V262H285V270ZM289 282V266H281V282H289Z" fill="#650B09" mask="url(#path-427-inside-213_78_1223)"/>
<mask id="path-429-inside-214_78_1223" fill="white">
<path d="M302 246H338V262H302V246Z"/>
</mask>
<path d="M302 246H338V262H302V246Z" fill="white" fill-opacity="0.2"/>
<path d="M302 246V242H298V246H302ZM302 250H338V242H302V250ZM306 262V246H298V262H306Z" fill="#650B09" mask="url(#path-429-inside-214_78_1223)"/>
<mask id="path-431-inside-215_78_1223" fill="white">
<path d="M342 246H378V262H342V246Z"/>
</mask>
<path d="M342 246H378V262H342V246Z" fill="white" fill-opacity="0.2"/>
<path d="M342 246V242H338V246H342ZM342 250H378V242H342V250ZM346 262V246H338V262H346Z" fill="#650B09" mask="url(#path-431-inside-215_78_1223)"/>
<mask id="path-433-inside-216_78_1223" fill="white">
<path d="M382 246H418V262H382V246Z"/>
</mask>
<path d="M382 246H418V262H382V246Z" fill="white" fill-opacity="0.2"/>
<path d="M382 246V242H378V246H382ZM382 250H418V242H382V250ZM386 262V246H378V262H386Z" fill="#650B09" mask="url(#path-433-inside-216_78_1223)"/>
<mask id="path-435-inside-217_78_1223" fill="white">
<path d="M325 266H361V282H325V266Z"/>
</mask>
<path d="M325 266H361V282H325V266Z" fill="white" fill-opacity="0.2"/>
<path d="M325 266V262H321V266H325ZM325 270H361V262H325V270ZM329 282V266H321V282H329Z" fill="#650B09" mask="url(#path-435-inside-217_78_1223)"/>
<mask id="path-437-inside-218_78_1223" fill="white">
<path d="M365 266H401V282H365V266Z"/>
</mask>
<path d="M365 266H401V282H365V266Z" fill="white" fill-opacity="0.2"/>
<path d="M365 266V262H361V266H365ZM365 270H401V262H365V270ZM369 282V266H361V282H369Z" fill="#650B09" mask="url(#path-437-inside-218_78_1223)"/>
</g>
<g clip-path="url(#clip44_78_1223)">
<rect width="36" height="19" transform="translate(17 106)" fill="#984215"/>
<mask id="path-439-inside-219_78_1223" fill="white">
<path d="M17 106H53V122H17V106Z"/>
</mask>
<path d="M17 106H53V122H17V106Z" fill="white" fill-opacity="0.2"/>
<path d="M17 106V102H13V106H17ZM17 110H53V102H17V110ZM21 122V106H13V122H21Z" fill="#650B09" mask="url(#path-439-inside-219_78_1223)"/>
</g>
<g clip-path="url(#clip45_78_1223)">
<rect width="36" height="18" transform="translate(17 37)" fill="#984215"/>
<mask id="path-441-inside-220_78_1223" fill="white">
<path d="M0 26H36V42H0V26Z"/>
</mask>
<path d="M0 26H36V42H0V26Z" fill="white" fill-opacity="0.2"/>
<path d="M0 26V22H-4V26H0ZM0 30H36V22H0V30ZM4 42V26H-4V42H4Z" fill="#650B09" mask="url(#path-441-inside-220_78_1223)"/>
<mask id="path-443-inside-221_78_1223" fill="white">
<path d="M20 46H56V62H20V46Z"/>
</mask>
<path d="M20 46H56V62H20V46Z" fill="white" fill-opacity="0.2"/>
<path d="M20 46V42H16V46H20ZM20 50H56V42H20V50ZM24 62V46H16V62H24Z" fill="#650B09" mask="url(#path-443-inside-221_78_1223)"/>
<mask id="path-445-inside-222_78_1223" fill="white">
<path d="M40 26H76V42H40V26Z"/>
</mask>
<path d="M40 26H76V42H40V26Z" fill="white" fill-opacity="0.2"/>
<path d="M40 26V22H36V26H40ZM40 30H76V22H40V30ZM44 42V26H36V42H44Z" fill="#650B09" mask="url(#path-445-inside-222_78_1223)"/>
</g>
<g clip-path="url(#clip46_78_1223)">
<rect width="17" height="18" transform="translate(70 72)" fill="#984215"/>
<mask id="path-447-inside-223_78_1223" fill="white">
<path d="M53 86H89V102H53V86Z"/>
</mask>
<path d="M53 86H89V102H53V86Z" fill="white" fill-opacity="0.2"/>
<path d="M53 86V82H49V86H53ZM53 90H89V82H53V90ZM57 102V86H49V102H57Z" fill="#650B09" mask="url(#path-447-inside-223_78_1223)"/>
<mask id="path-449-inside-224_78_1223" fill="white">
<path d="M70 66H106V82H70V66Z"/>
</mask>
<path d="M70 66H106V82H70V66Z" fill="white" fill-opacity="0.2"/>
<path d="M70 66V62H66V66H70ZM70 70H106V62H70V70ZM74 82V66H66V82H74Z" fill="#650B09" mask="url(#path-449-inside-224_78_1223)"/>
</g>
<g clip-path="url(#clip47_78_1223)">
<rect width="36" height="70" transform="translate(227 200)" fill="#984215"/>
<mask id="path-451-inside-225_78_1223" fill="white">
<path d="M207 203H243V219H207V203Z"/>
</mask>
<path d="M207 203H243V219H207V203Z" fill="white" fill-opacity="0.2"/>
<path d="M207 203V199H203V203H207ZM207 207H243V199H207V207ZM211 219V203H203V219H211Z" fill="#650B09" mask="url(#path-451-inside-225_78_1223)"/>
<mask id="path-453-inside-226_78_1223" fill="white">
<path d="M210 243H246V259H210V243Z"/>
</mask>
<path d="M210 243H246V259H210V243Z" fill="white" fill-opacity="0.2"/>
<path d="M210 243V239H206V243H210ZM210 247H246V239H210V247ZM214 259V243H206V259H214Z" fill="#650B09" mask="url(#path-453-inside-226_78_1223)"/>
<mask id="path-455-inside-227_78_1223" fill="white">
<path d="M227 223H263V239H227V223Z"/>
</mask>
<path d="M227 223H263V239H227V223Z" fill="white" fill-opacity="0.2"/>
<path d="M227 223V219H223V223H227ZM227 227H263V219H227V227ZM231 239V223H223V239H231Z" fill="#650B09" mask="url(#path-455-inside-227_78_1223)"/>
<mask id="path-457-inside-228_78_1223" fill="white">
<path d="M247 203H283V219H247V203Z"/>
</mask>
<path d="M247 203H283V219H247V203Z" fill="white" fill-opacity="0.2"/>
<path d="M247 203V199H243V203H247ZM247 207H283V199H247V207ZM251 219V203H243V219H251Z" fill="#650B09" mask="url(#path-457-inside-228_78_1223)"/>
<mask id="path-459-inside-229_78_1223" fill="white">
<path d="M250 243H286V259H250V243Z"/>
</mask>
<path d="M250 243H286V259H250V243Z" fill="white" fill-opacity="0.2"/>
<path d="M250 243V239H246V243H250ZM250 247H286V239H250V247ZM254 259V243H246V259H254Z" fill="#650B09" mask="url(#path-459-inside-229_78_1223)"/>
<mask id="path-461-inside-230_78_1223" fill="white">
<path d="M227 263H263V279H227V263Z"/>
</mask>
<path d="M227 263H263V279H227V263Z" fill="white" fill-opacity="0.2"/>
<path d="M227 263V259H223V263H227ZM227 267H263V259H227V267ZM231 279V263H223V279H231Z" fill="#650B09" mask="url(#path-461-inside-230_78_1223)"/>
</g>
<g clip-path="url(#clip48_78_1223)">
<rect width="36" height="53" transform="translate(507 217)" fill="#984215"/>
<mask id="path-463-inside-231_78_1223" fill="white">
<path d="M482 206H518V222H482V206Z"/>
</mask>
<path d="M482 206H518V222H482V206Z" fill="white" fill-opacity="0.2"/>
<path d="M482 206V202H478V206H482ZM482 210H518V202H482V210ZM486 222V206H478V222H486Z" fill="#650B09" mask="url(#path-463-inside-231_78_1223)"/>
<mask id="path-465-inside-232_78_1223" fill="white">
<path d="M485 246H521V262H485V246Z"/>
</mask>
<path d="M485 246H521V262H485V246Z" fill="white" fill-opacity="0.2"/>
<path d="M485 246V242H481V246H485ZM485 250H521V242H485V250ZM489 262V246H481V262H489Z" fill="#650B09" mask="url(#path-465-inside-232_78_1223)"/>
<mask id="path-467-inside-233_78_1223" fill="white">
<path d="M502 226H538V242H502V226Z"/>
</mask>
<path d="M502 226H538V242H502V226Z" fill="white" fill-opacity="0.2"/>
<path d="M502 226V222H498V226H502ZM502 230H538V222H502V230ZM506 242V226H498V242H506Z" fill="#650B09" mask="url(#path-467-inside-233_78_1223)"/>
<mask id="path-469-inside-234_78_1223" fill="white">
<path d="M522 206H558V222H522V206Z"/>
</mask>
<path d="M522 206H558V222H522V206Z" fill="white" fill-opacity="0.2"/>
<path d="M522 206V202H518V206H522ZM522 210H558V202H522V210ZM526 222V206H518V222H526Z" fill="#650B09" mask="url(#path-469-inside-234_78_1223)"/>
<mask id="path-471-inside-235_78_1223" fill="white">
<path d="M525 246H561V262H525V246Z"/>
</mask>
<path d="M525 246H561V262H525V246Z" fill="white" fill-opacity="0.2"/>
<path d="M525 246V242H521V246H525ZM525 250H561V242H525V250ZM529 262V246H521V262H529Z" fill="#650B09" mask="url(#path-471-inside-235_78_1223)"/>
<mask id="path-473-inside-236_78_1223" fill="white">
<path d="M502 266H538V282H502V266Z"/>
</mask>
<path d="M502 266H538V282H502V266Z" fill="white" fill-opacity="0.2"/>
<path d="M502 266V262H498V266H502ZM502 270H538V262H502V270ZM506 282V266H498V282H506Z" fill="#650B09" mask="url(#path-473-inside-236_78_1223)"/>
<mask id="path-475-inside-237_78_1223" fill="white">
<path d="M542 226H578V242H542V226Z"/>
</mask>
<path d="M542 226H578V242H542V226Z" fill="white" fill-opacity="0.2"/>
<path d="M542 226V222H538V226H542ZM542 230H578V222H542V230ZM546 242V226H538V242H546Z" fill="#650B09" mask="url(#path-475-inside-237_78_1223)"/>
</g>
<defs>
<clipPath id="clip0_78_1223">
<rect width="36" height="71" fill="white" transform="translate(87 72)"/>
</clipPath>
<clipPath id="clip1_78_1223">
<rect width="36" height="71" fill="white" transform="translate(140 72)"/>
</clipPath>
<clipPath id="clip2_78_1223">
<rect width="36" height="88" fill="white" transform="translate(227 55)"/>
</clipPath>
<clipPath id="clip3_78_1223">
<rect width="38" height="123" fill="white" transform="translate(280 20)"/>
</clipPath>
<clipPath id="clip4_78_1223">
<rect width="36" height="123" fill="white" transform="translate(367 20)"/>
</clipPath>
<clipPath id="clip5_78_1223">
<rect width="35" height="123" fill="white" transform="translate(420 20)"/>
</clipPath>
<clipPath id="clip6_78_1223">
<rect width="35" height="123" fill="white" transform="translate(280 200)"/>
</clipPath>
<clipPath id="clip7_78_1223">
<rect width="35" height="123" fill="white" transform="translate(420 200)"/>
</clipPath>
<clipPath id="clip8_78_1223">
<rect width="35" height="89" fill="white" transform="translate(0 217)"/>
</clipPath>
<clipPath id="clip9_78_1223">
<rect width="36" height="88" fill="white" transform="translate(87 217)"/>
</clipPath>
<clipPath id="clip10_78_1223">
<rect width="36" height="70" fill="white" transform="translate(139 200)"/>
</clipPath>
<clipPath id="clip11_78_1223">
<rect width="36" height="53" fill="white" transform="translate(0 55)"/>
</clipPath>
<clipPath id="clip12_78_1223">
<rect width="49" height="18" fill="white" transform="translate(318 55)"/>
</clipPath>
<clipPath id="clip13_78_1223">
<rect width="50" height="20" fill="white" transform="translate(178 270)"/>
</clipPath>
<clipPath id="clip14_78_1223">
<rect width="15" height="20" fill="white" transform="translate(318 35)"/>
</clipPath>
<clipPath id="clip15_78_1223">
<rect width="18" height="20" fill="white" transform="translate(175 252)"/>
</clipPath>
<clipPath id="clip16_78_1223">
<rect width="18" height="35" fill="white" transform="translate(332 73)"/>
</clipPath>
<clipPath id="clip17_78_1223">
<rect width="18" height="33" fill="white" transform="translate(192 290)"/>
</clipPath>
<clipPath id="clip18_78_1223">
<rect width="17" height="20" fill="white" transform="translate(350 35)"/>
</clipPath>
<clipPath id="clip19_78_1223">
<rect width="18" height="20" fill="white" transform="translate(210 252)"/>
</clipPath>
<clipPath id="clip20_78_1223">
<rect width="18" height="18" fill="white" transform="translate(227 270)"/>
</clipPath>
<clipPath id="clip21_78_1223">
<rect width="18" height="15" fill="white" transform="translate(210 290)"/>
</clipPath>
<clipPath id="clip22_78_1223">
<rect width="18" height="18" fill="white" transform="translate(174 287)"/>
</clipPath>
<clipPath id="clip23_78_1223">
<rect width="21" height="18" fill="white" transform="translate(157 270)"/>
</clipPath>
<clipPath id="clip24_78_1223">
<rect width="36" height="17" fill="white" transform="translate(140 55)"/>
</clipPath>
<clipPath id="clip25_78_1223">
<rect width="36" height="18" fill="white" transform="translate(157 37)"/>
</clipPath>
<clipPath id="clip26_78_1223">
<rect width="35" height="18" fill="white" transform="translate(210 37)"/>
</clipPath>
<clipPath id="clip27_78_1223">
<rect width="52" height="18" fill="white" transform="translate(35 125)"/>
</clipPath>
<clipPath id="clip28_78_1223">
<rect width="88" height="18" fill="white" transform="translate(17 200)"/>
</clipPath>
<clipPath id="clip29_78_1223">
<rect width="88" height="18" fill="white" transform="translate(17 305)"/>
</clipPath>
<clipPath id="clip30_78_1223">
<rect width="51" height="18" fill="white" transform="translate(176 90)"/>
</clipPath>
<clipPath id="clip31_78_1223">
<rect width="53" height="18" fill="white" transform="translate(175 20)"/>
</clipPath>
<clipPath id="clip32_78_1223">
<rect width="88" height="18" fill="white" transform="translate(35 20)"/>
</clipPath>
<clipPath id="clip33_78_1223">
<rect width="88" height="18" fill="white" transform="translate(455 20)"/>
</clipPath>
<clipPath id="clip34_78_1223">
<rect width="88" height="18" fill="white" transform="translate(315 200)"/>
</clipPath>
<clipPath id="clip35_78_1223">
<rect width="70" height="18" fill="white" transform="translate(455 200)"/>
</clipPath>
<clipPath id="clip36_78_1223">
<rect width="88" height="18" fill="white" transform="translate(455 125)"/>
</clipPath>
<clipPath id="clip37_78_1223">
<rect width="88" height="18" fill="white" transform="translate(315 305)"/>
</clipPath>
<clipPath id="clip38_78_1223">
<rect width="53" height="18" fill="white" transform="translate(490 305)"/>
</clipPath>
<clipPath id="clip39_78_1223">
<rect width="53" height="20" fill="white" transform="translate(472 285)"/>
</clipPath>
<clipPath id="clip40_78_1223">
<rect width="53" height="18" fill="white" transform="translate(455 270)"/>
</clipPath>
<clipPath id="clip41_78_1223">
<rect width="18" height="18" fill="white" transform="translate(490 252)"/>
</clipPath>
<clipPath id="clip42_78_1223">
<rect width="70" height="18" fill="white" transform="translate(455 72)"/>
</clipPath>
<clipPath id="clip43_78_1223">
<rect width="70" height="18" fill="white" transform="translate(315 252)"/>
</clipPath>
<clipPath id="clip44_78_1223">
<rect width="36" height="19" fill="white" transform="translate(17 106)"/>
</clipPath>
<clipPath id="clip45_78_1223">
<rect width="36" height="18" fill="white" transform="translate(17 37)"/>
</clipPath>
<clipPath id="clip46_78_1223">
<rect width="17" height="18" fill="white" transform="translate(70 72)"/>
</clipPath>
<clipPath id="clip47_78_1223">
<rect width="36" height="70" fill="white" transform="translate(227 200)"/>
</clipPath>
<clipPath id="clip48_78_1223">
<rect width="36" height="53" fill="white" transform="translate(507 217)"/>
</clipPath>
</defs>
</svg>
