<svg width="81" height="81" viewBox="0 0 81 81" fill="none" xmlns="http://www.w3.org/2000/svg">
<rect x="23" y="26" width="4" height="4" fill="#8E4100"/>
<rect x="23" y="30" width="4" height="4" fill="#8E4100"/>
<rect x="23" y="38" width="4" height="4" fill="#8E4100"/>
<rect x="23" y="50" width="4" height="4" fill="#8E4100"/>
<rect x="23" y="62" width="4" height="4" fill="#8E4100"/>
<rect x="23" y="42" width="4" height="4" fill="#8E4100"/>
<rect x="23" y="54" width="4" height="4" fill="#8E4100"/>
<rect x="23" y="66" width="4" height="4" fill="#8E4100"/>
<rect x="27" y="66" width="4" height="4" fill="#8E4100"/>
<rect x="30.9999" y="66" width="4" height="4" fill="#8E4100"/>
<rect x="27" y="62" width="4" height="4" fill="#8E4100"/>
<rect x="23" y="34" width="4" height="4" fill="#642D00"/>
<rect x="23" y="46" width="4" height="4" fill="#642D00"/>
<rect x="23" y="58" width="4" height="4" fill="#642D00"/>
<rect x="27" y="26" width="4" height="4" fill="#8E4100"/>
<rect x="30.9999" y="26" width="4" height="4" fill="#8E4100"/>
<rect width="4" height="4" transform="matrix(-1 0 0 1 59.0001 26)" fill="#8E4100"/>
<rect width="4" height="4" transform="matrix(-1 0 0 1 63 26)" fill="white"/>
<rect width="4" height="4" transform="matrix(-1 0 0 1 23 26)" fill="white"/>
<rect width="4" height="4" transform="matrix(-1 0 0 1 39 26)" fill="white"/>
<rect width="4" height="4" transform="matrix(-1 0 0 1 39 22)" fill="white"/>
<rect width="4" height="4" transform="matrix(-1 0 0 1 39 18)" fill="white"/>
<rect width="4" height="4" transform="matrix(-1 0 0 1 39 14)" fill="white"/>
<rect width="4" height="4" transform="matrix(-1 0 0 1 35 10)" fill="white"/>
<rect width="4" height="4" transform="matrix(-1 0 0 1 35 6)" fill="white"/>
<rect width="4" height="4" transform="matrix(-1 0 0 1 39 6)" fill="white"/>
<rect width="4" height="4" transform="matrix(-1 0 0 1 43 6)" fill="white"/>
<rect width="4" height="4" transform="matrix(-1 0 0 1 47 6)" fill="white"/>
<rect width="4" height="4" transform="matrix(-1 0 0 1 51 6)" fill="white"/>
<rect width="4" height="4" transform="matrix(-1 0 0 1 51 10)" fill="white"/>
<rect width="4" height="4" transform="matrix(-1 0 0 1 47 14)" fill="white"/>
<rect width="4" height="4" transform="matrix(-1 0 0 1 47 18)" fill="white"/>
<rect width="4" height="4" transform="matrix(-1 0 0 1 47 22)" fill="white"/>
<rect width="4" height="4" transform="matrix(-1 0 0 1 47 26)" fill="white"/>
<rect width="4" height="4" transform="matrix(-1 0 0 1 59.0001 30)" fill="#8E4100"/>
<rect width="4" height="4" transform="matrix(-1 0 0 1 63 30)" fill="white"/>
<rect width="4" height="4" transform="matrix(-1 0 0 1 23 30)" fill="white"/>
<rect width="4" height="4" transform="matrix(-1 0 0 1 59.0001 38)" fill="#8E4100"/>
<rect width="4" height="4" transform="matrix(-1 0 0 1 63 38)" fill="white"/>
<rect width="4" height="4" transform="matrix(-1 0 0 1 23 38)" fill="white"/>
<rect width="4" height="4" transform="matrix(-1 0 0 1 59.0001 50)" fill="#8E4100"/>
<rect width="4" height="4" transform="matrix(-1 0 0 1 63 50)" fill="white"/>
<rect width="4" height="4" transform="matrix(-1 0 0 1 23 50)" fill="white"/>
<rect width="4" height="4" transform="matrix(-1 0 0 1 59.0001 62)" fill="#8E4100"/>
<rect width="4" height="4" transform="matrix(-1 0 0 1 63 62)" fill="white"/>
<rect width="4" height="4" transform="matrix(-1 0 0 1 23 62)" fill="white"/>
<rect width="4" height="4" transform="matrix(-1 0 0 1 59.0001 42)" fill="#8E4100"/>
<rect width="4" height="4" transform="matrix(-1 0 0 1 63 42)" fill="white"/>
<rect width="4" height="4" transform="matrix(-1 0 0 1 23 42)" fill="white"/>
<rect width="4" height="4" transform="matrix(-1 0 0 1 59.0001 54)" fill="#8E4100"/>
<rect width="4" height="4" transform="matrix(-1 0 0 1 63 54)" fill="white"/>
<rect width="4" height="4" transform="matrix(-1 0 0 1 23 54)" fill="white"/>
<rect width="4" height="4" transform="matrix(-1 0 0 1 59.0001 66)" fill="#8E4100"/>
<rect width="4" height="4" transform="matrix(-1 0 0 1 63 66)" fill="white"/>
<rect width="4" height="4" transform="matrix(-1 0 0 1 23 66)" fill="white"/>
<rect width="4" height="4" transform="matrix(-1 0 0 1 59.0001 70)" fill="white"/>
<rect width="4" height="4" transform="matrix(-1 0 0 1 47.0001 66)" fill="white"/>
<rect width="4" height="4" transform="matrix(-1 0 0 1 35.0001 70)" fill="white"/>
<rect width="4" height="4" transform="matrix(-1 0 0 1 59.0001 22)" fill="white"/>
<rect width="4" height="4" transform="matrix(-1 0 0 1 35.0001 22)" fill="white"/>
<rect width="4" height="4" transform="matrix(-1 0 0 1 55 66)" fill="#8E4100"/>
<rect width="4" height="4" transform="matrix(-1 0 0 1 55 70)" fill="white"/>
<rect width="4" height="4" transform="matrix(-1 0 0 1 43 66)" fill="white"/>
<rect width="4" height="4" transform="matrix(-1 0 0 1 31 70)" fill="white"/>
<rect width="4" height="4" transform="matrix(-1 0 0 1 55 22)" fill="white"/>
<rect width="4" height="4" transform="matrix(-1 0 0 1 31 22)" fill="white"/>
<rect width="4" height="4" transform="matrix(-1 0 0 1 51 66)" fill="#8E4100"/>
<rect width="4" height="4" transform="matrix(-1 0 0 1 51 70)" fill="white"/>
<rect width="4" height="4" transform="matrix(-1 0 0 1 39 66)" fill="white"/>
<rect width="4" height="4" transform="matrix(-1 0 0 1 27 70)" fill="white"/>
<rect width="4" height="4" transform="matrix(-1 0 0 1 51 22)" fill="white"/>
<rect width="4" height="4" transform="matrix(-1 0 0 1 27 22)" fill="white"/>
<rect width="4" height="4" transform="matrix(-1 0 0 1 55 62)" fill="#8E4100"/>
<rect width="4" height="4" transform="matrix(-1 0 0 1 59.0001 34)" fill="#642D00"/>
<rect width="4" height="4" transform="matrix(-1 0 0 1 63 34)" fill="white"/>
<rect width="4" height="4" transform="matrix(-1 0 0 1 23 34)" fill="white"/>
<rect width="4" height="4" transform="matrix(-1 0 0 1 59.0001 46)" fill="#642D00"/>
<rect width="4" height="4" transform="matrix(-1 0 0 1 63 46)" fill="white"/>
<rect width="4" height="4" transform="matrix(-1 0 0 1 23 46)" fill="white"/>
<rect width="4" height="4" transform="matrix(-1 0 0 1 59.0001 58)" fill="#642D00"/>
<rect width="4" height="4" transform="matrix(-1 0 0 1 63 58)" fill="white"/>
<rect width="4" height="4" transform="matrix(-1 0 0 1 23 58)" fill="white"/>
<rect width="4" height="4" transform="matrix(-1 0 0 1 55 26)" fill="#8E4100"/>
<rect width="4" height="4" transform="matrix(-1 0 0 1 55 30)" fill="#FFEE25"/>
<rect width="4" height="4" transform="matrix(-1 0 0 1 30.9999 30)" fill="#FFEE25"/>
<rect width="4" height="4" transform="matrix(-1 0 0 1 35 30)" fill="#FFEE25"/>
<rect width="4" height="4" transform="matrix(-1 0 0 1 39 30)" fill="#FFEE25"/>
<rect width="4" height="4" transform="matrix(-1 0 0 1 43 30)" fill="#E88029"/>
<rect width="4" height="4" transform="matrix(-1 0 0 1 43 26)" fill="#E88029"/>
<rect width="4" height="4" transform="matrix(-1 0 0 1 43 22)" fill="#E88029"/>
<rect width="4" height="4" transform="matrix(-1 0 0 1 43 18)" fill="#E88029"/>
<rect width="4" height="4" transform="matrix(-1 0 0 1 43 14)" fill="#E88029"/>
<rect width="4" height="4" transform="matrix(-1 0 0 1 43 10)" fill="#E88029"/>
<rect width="4" height="4" transform="matrix(-1 0 0 1 39 10)" fill="#E88029"/>
<rect width="4" height="4" transform="matrix(-1 0 0 1 47 10)" fill="#E88029"/>
<rect width="4" height="4" transform="matrix(-1 0 0 1 47 30)" fill="#FFEE25"/>
<rect width="4" height="4" transform="matrix(-1 0 0 1 51 30)" fill="#FFEE25"/>
<rect width="4" height="4" transform="matrix(-1 0 0 1 55 34)" fill="#FFEE25"/>
<rect width="4" height="4" transform="matrix(-1 0 0 1 30.9999 34)" fill="#FFEE25"/>
<rect width="4" height="4" transform="matrix(-1 0 0 1 35 34)" fill="#FFEE25"/>
<rect width="4" height="4" transform="matrix(-1 0 0 1 39 34)" fill="#F8A824"/>
<rect width="4" height="4" transform="matrix(-1 0 0 1 43 34)" fill="#F8A824"/>
<rect width="4" height="4" transform="matrix(-1 0 0 1 47 34)" fill="#F8A824"/>
<rect width="4" height="4" transform="matrix(-1 0 0 1 51 34)" fill="#FFEE25"/>
<rect width="4" height="4" transform="matrix(-1 0 0 1 55 38)" fill="#FFEE25"/>
<rect width="4" height="4" transform="matrix(-1 0 0 1 30.9999 38)" fill="#FFEE25"/>
<rect width="4" height="4" transform="matrix(-1 0 0 1 35 38)" fill="#F8A824"/>
<rect width="4" height="4" transform="matrix(-1 0 0 1 39 38)" fill="#F8A824"/>
<rect width="8" height="12" transform="matrix(-1 0 0 1 47 38)" fill="#F8A824"/>
<rect width="4" height="4" transform="matrix(-1 0 0 1 51 38)" fill="#F8A824"/>
<rect width="4" height="4" transform="matrix(-1 0 0 1 55 42)" fill="#FFEE25"/>
<rect width="4" height="4" transform="matrix(-1 0 0 1 30.9999 42)" fill="#FFEE25"/>
<rect width="4" height="4" transform="matrix(-1 0 0 1 35 42)" fill="#F8A824"/>
<rect width="4" height="4" transform="matrix(-1 0 0 1 51 42)" fill="#F8A824"/>
<rect width="4" height="4" transform="matrix(-1 0 0 1 55 46)" fill="#FFEE25"/>
<rect width="4" height="4" transform="matrix(-1 0 0 1 30.9999 46)" fill="#FFEE25"/>
<rect width="4" height="4" transform="matrix(-1 0 0 1 35 46)" fill="#F8A824"/>
<rect width="4" height="4" transform="matrix(-1 0 0 1 51 46)" fill="#F8A824"/>
<rect width="4" height="4" transform="matrix(-1 0 0 1 55 50)" fill="#FFEE25"/>
<rect width="4" height="4" transform="matrix(-1 0 0 1 30.9999 50)" fill="#FFEE25"/>
<rect width="4" height="4" transform="matrix(-1 0 0 1 35 50)" fill="#F8A824"/>
<rect width="4" height="12" transform="matrix(-1 0 0 1 39 42)" fill="#F8A824"/>
<rect width="4" height="4" transform="matrix(-1 0 0 1 47 50)" fill="#F8A824"/>
<rect width="4" height="4" transform="matrix(-1 0 0 1 51 50)" fill="#F8A824"/>
<rect width="4" height="4" transform="matrix(-1 0 0 1 55 54)" fill="#FFEE25"/>
<rect width="4" height="4" transform="matrix(-1 0 0 1 30.9999 54)" fill="#FFEE25"/>
<rect width="4" height="4" transform="matrix(-1 0 0 1 35 54)" fill="#FFEE25"/>
<rect width="4" height="4" transform="matrix(-1 0 0 1 39 54)" fill="#F8A824"/>
<rect width="4" height="4" transform="matrix(-1 0 0 1 35 54)" fill="#F8A824"/>
<rect width="4" height="8" transform="matrix(-1 0 0 1 43 50)" fill="#F8A824"/>
<rect width="4" height="4" transform="matrix(-1 0 0 1 47 54)" fill="#F8A824"/>
<rect width="4" height="4" transform="matrix(-1 0 0 1 51 54)" fill="#FFEE25"/>
<rect width="4" height="4" transform="matrix(-1 0 0 1 55 58)" fill="#FFEE25"/>
<rect width="4" height="4" transform="matrix(-1 0 0 1 30.9999 58)" fill="#FFEE25"/>
<rect width="4" height="4" transform="matrix(-1 0 0 1 35 58)" fill="#FFEE25"/>
<rect width="4" height="4" transform="matrix(-1 0 0 1 39 58)" fill="#FFEE25"/>
<rect width="4" height="4" transform="matrix(-1 0 0 1 43 58)" fill="#FFEE25"/>
<rect width="4" height="4" transform="matrix(-1 0 0 1 47 58)" fill="#FFEE25"/>
<rect width="4" height="4" transform="matrix(-1 0 0 1 51 58)" fill="#FFEE25"/>
<rect width="4" height="4" transform="matrix(-1 0 0 1 51 62)" fill="#FFEE25"/>
<rect width="4" height="4" transform="matrix(-1 0 0 1 35 62)" fill="#FFEE25"/>
<rect width="4" height="4" transform="matrix(-1 0 0 1 47 62)" fill="#F8A824"/>
<rect width="4" height="4" transform="matrix(-1 0 0 1 43 62)" fill="#F8A824"/>
<rect width="4" height="4" transform="matrix(-1 0 0 1 39 62)" fill="#F8A824"/>
<rect width="4" height="4" transform="matrix(-1 0 0 1 51 26)" fill="#8E4100"/>
<rect width="4" height="4" transform="matrix(-1 0 0 1 51 54)" fill="#F8A824"/>
<rect width="4" height="4" transform="matrix(-1 0 0 1 51 34)" fill="#F8A824"/>
<rect width="4" height="4" transform="matrix(-1 0 0 1 35 34)" fill="#F8A824"/>
<mask id="path-149-outside-1_7_2595" maskUnits="userSpaceOnUse" x="33" y="35" width="16" height="22" fill="black">
<rect fill="white" x="33" y="35" width="16" height="22"/>
<path d="M47.3926 36.9465C45.8012 38.3921 44.7975 40.2845 44.5456 42.3144L43.969 47.0364C43.9635 47.0815 43.9685 47.1272 43.9837 47.1704C43.999 47.2136 44.0241 47.2534 44.0575 47.2873C44.0908 47.3211 44.1317 47.3482 44.1773 47.3667C44.223 47.3853 44.2725 47.3948 44.3225 47.3949C44.6057 47.3949 44.8773 47.4969 45.0775 47.6785C45.2777 47.86 45.3902 48.1063 45.3902 48.3631C45.3902 48.6199 45.2777 48.8662 45.0775 49.0477C44.8773 49.2293 44.6057 49.3313 44.3225 49.3313C44.0871 49.3335 43.8524 49.356 43.6217 49.3985C43.3501 48.9696 43.0452 48.5589 42.7092 48.1695C42.0136 47.3286 41.3568 46.5342 41.3568 45.3508V41.579C41.9449 40.7833 42.2738 39.8534 42.3059 38.8959C42.2701 37.9008 41.9156 36.9366 41.2857 36.1212C41.2509 36.0833 41.2074 36.0527 41.1582 36.0318C41.109 36.0109 41.0553 36 41.0009 36C40.9466 36 40.8929 36.0109 40.8437 36.0318C40.7945 36.0527 40.751 36.0833 40.7162 36.1212C40.0863 36.9366 39.7318 37.9008 39.696 38.8959C39.7281 39.8534 40.057 40.7833 40.6451 41.579V45.3508C40.6451 46.5342 39.9883 47.3303 39.2927 48.1695C38.9567 48.5589 38.6518 48.9696 38.3802 49.3985C38.1495 49.356 37.9148 49.3335 37.6794 49.3313C37.3962 49.3313 37.1246 49.2293 36.9244 49.0477C36.7242 48.8662 36.6117 48.6199 36.6117 48.3631C36.6117 48.1063 36.7242 47.86 36.9244 47.6785C37.1246 47.4969 37.3962 47.3949 37.6794 47.3949C37.7294 47.3948 37.7789 47.3853 37.8246 47.3667C37.8702 47.3482 37.9111 47.3211 37.9444 47.2873C37.9778 47.2534 38.0029 47.2136 38.0182 47.1704C38.0334 47.1272 38.0384 47.0815 38.0329 47.0364L37.4544 42.3144C37.2025 40.2845 36.1988 38.3921 34.6074 36.9465C34.5576 36.9015 34.4942 36.8708 34.4252 36.8583C34.3562 36.8459 34.2847 36.8523 34.2197 36.8767C34.1547 36.9011 34.0992 36.9424 34.0601 36.9955C34.021 37.0485 34.0001 37.1108 34 37.1746V52.236C34 52.3216 34.0375 52.4037 34.1042 52.4643C34.171 52.5248 34.2615 52.5588 34.3559 52.5588H38.0096C38.6664 54.4686 40.664 55.8534 40.7841 55.9351C40.8467 55.9773 40.9225 56 41.0005 56C41.0784 56 41.1543 55.9773 41.2169 55.9351C41.3369 55.8534 43.3346 54.4686 43.9913 52.5588H47.6441C47.7385 52.5588 47.829 52.5248 47.8958 52.4643C47.9625 52.4037 48 52.3216 48 52.236V37.1746C47.9999 37.1108 47.979 37.0485 47.9399 36.9955C47.9008 36.9424 47.8453 36.9011 47.7803 36.8767C47.7153 36.8523 47.6438 36.8459 47.5748 36.8583C47.5058 36.8708 47.4424 36.9015 47.3926 36.9465ZM34.7137 38.0112C35.842 39.2613 36.5481 40.7805 36.7469 42.3859L37.2865 46.789C36.9532 46.8584 36.6489 47.0133 36.41 47.2352C36.1711 47.457 36.0075 47.7365 35.9389 48.0404H34.7137V38.0112ZM37.798 51.3754C37.7994 51.5555 37.8152 51.7353 37.8454 51.9133H34.7137V48.6858H35.9355C36.0182 49.05 36.2367 49.3771 36.5543 49.6123C36.8718 49.8474 37.269 49.9762 37.6789 49.9768C37.8093 49.9786 37.9394 49.9881 38.0685 50.0052C37.8879 50.4434 37.7963 50.9076 37.798 51.3754ZM40.4078 38.8959C40.429 38.2076 40.6324 37.534 41.0009 36.9319C41.3695 37.534 41.5729 38.2076 41.5941 38.8959C41.5729 39.5843 41.3695 40.2579 41.0009 40.8599C40.6324 40.2579 40.429 39.5843 40.4078 38.8959ZM38.5098 51.3754C38.5086 50.9615 38.5948 50.5512 38.7636 50.1666C39.1883 50.3157 39.57 50.5505 39.8799 50.8531C40.1898 51.1557 40.4198 51.5182 40.5525 51.9133H38.5639C38.5286 51.7358 38.5105 51.5558 38.5098 51.3754ZM40.6451 54.9733C39.8284 54.304 39.1845 53.4796 38.7594 52.5588H40.6451V54.9733ZM41.0009 51.1921C40.5976 50.4624 39.9149 49.891 39.0806 49.5848C39.3193 49.2289 39.5802 48.8856 39.8621 48.5567C40.3129 48.0539 40.6952 47.5038 41.0009 46.9181C41.3067 47.5038 41.689 48.0539 42.1398 48.5567C42.4217 48.8856 42.6826 49.2289 42.9213 49.5848C42.087 49.891 41.4043 50.4624 41.0009 51.1921ZM41.3568 54.9733V52.5588H43.2425C42.8174 53.4796 42.1735 54.304 41.3568 54.9733ZM43.438 51.9133H41.4494C41.5821 51.5182 41.8121 51.1557 42.122 50.8531C42.4319 50.5505 42.8136 50.3157 43.2383 50.1666C43.4071 50.5512 43.4933 50.9615 43.4921 51.3754C43.4914 51.5558 43.4733 51.7358 43.438 51.9133ZM47.2882 51.9133H44.1565C44.1867 51.7353 44.2025 51.5555 44.2039 51.3754C44.2056 50.9076 44.114 50.4434 43.9334 50.0052C44.0623 49.9882 44.1923 49.9787 44.3225 49.9768C44.7325 49.9762 45.1296 49.8474 45.4472 49.6123C45.7647 49.3771 45.9832 49.05 46.0659 48.6858H47.2882V51.9133ZM47.2882 48.0404H46.063C45.9944 47.7365 45.8308 47.457 45.5919 47.2352C45.353 47.0133 45.0487 46.8584 44.7154 46.789L45.2549 42.3859C45.4538 40.7805 46.1599 39.2613 47.2882 38.0112V48.0404Z"/>
</mask>
<path d="M47.3926 36.9465C45.8012 38.3921 44.7975 40.2845 44.5456 42.3144L43.969 47.0364C43.9635 47.0815 43.9685 47.1272 43.9837 47.1704C43.999 47.2136 44.0241 47.2534 44.0575 47.2873C44.0908 47.3211 44.1317 47.3482 44.1773 47.3667C44.223 47.3853 44.2725 47.3948 44.3225 47.3949C44.6057 47.3949 44.8773 47.4969 45.0775 47.6785C45.2777 47.86 45.3902 48.1063 45.3902 48.3631C45.3902 48.6199 45.2777 48.8662 45.0775 49.0477C44.8773 49.2293 44.6057 49.3313 44.3225 49.3313C44.0871 49.3335 43.8524 49.356 43.6217 49.3985C43.3501 48.9696 43.0452 48.5589 42.7092 48.1695C42.0136 47.3286 41.3568 46.5342 41.3568 45.3508V41.579C41.9449 40.7833 42.2738 39.8534 42.3059 38.8959C42.2701 37.9008 41.9156 36.9366 41.2857 36.1212C41.2509 36.0833 41.2074 36.0527 41.1582 36.0318C41.109 36.0109 41.0553 36 41.0009 36C40.9466 36 40.8929 36.0109 40.8437 36.0318C40.7945 36.0527 40.751 36.0833 40.7162 36.1212C40.0863 36.9366 39.7318 37.9008 39.696 38.8959C39.7281 39.8534 40.057 40.7833 40.6451 41.579V45.3508C40.6451 46.5342 39.9883 47.3303 39.2927 48.1695C38.9567 48.5589 38.6518 48.9696 38.3802 49.3985C38.1495 49.356 37.9148 49.3335 37.6794 49.3313C37.3962 49.3313 37.1246 49.2293 36.9244 49.0477C36.7242 48.8662 36.6117 48.6199 36.6117 48.3631C36.6117 48.1063 36.7242 47.86 36.9244 47.6785C37.1246 47.4969 37.3962 47.3949 37.6794 47.3949C37.7294 47.3948 37.7789 47.3853 37.8246 47.3667C37.8702 47.3482 37.9111 47.3211 37.9444 47.2873C37.9778 47.2534 38.0029 47.2136 38.0182 47.1704C38.0334 47.1272 38.0384 47.0815 38.0329 47.0364L37.4544 42.3144C37.2025 40.2845 36.1988 38.3921 34.6074 36.9465C34.5576 36.9015 34.4942 36.8708 34.4252 36.8583C34.3562 36.8459 34.2847 36.8523 34.2197 36.8767C34.1547 36.9011 34.0992 36.9424 34.0601 36.9955C34.021 37.0485 34.0001 37.1108 34 37.1746V52.236C34 52.3216 34.0375 52.4037 34.1042 52.4643C34.171 52.5248 34.2615 52.5588 34.3559 52.5588H38.0096C38.6664 54.4686 40.664 55.8534 40.7841 55.9351C40.8467 55.9773 40.9225 56 41.0005 56C41.0784 56 41.1543 55.9773 41.2169 55.9351C41.3369 55.8534 43.3346 54.4686 43.9913 52.5588H47.6441C47.7385 52.5588 47.829 52.5248 47.8958 52.4643C47.9625 52.4037 48 52.3216 48 52.236V37.1746C47.9999 37.1108 47.979 37.0485 47.9399 36.9955C47.9008 36.9424 47.8453 36.9011 47.7803 36.8767C47.7153 36.8523 47.6438 36.8459 47.5748 36.8583C47.5058 36.8708 47.4424 36.9015 47.3926 36.9465ZM34.7137 38.0112C35.842 39.2613 36.5481 40.7805 36.7469 42.3859L37.2865 46.789C36.9532 46.8584 36.6489 47.0133 36.41 47.2352C36.1711 47.457 36.0075 47.7365 35.9389 48.0404H34.7137V38.0112ZM37.798 51.3754C37.7994 51.5555 37.8152 51.7353 37.8454 51.9133H34.7137V48.6858H35.9355C36.0182 49.05 36.2367 49.3771 36.5543 49.6123C36.8718 49.8474 37.269 49.9762 37.6789 49.9768C37.8093 49.9786 37.9394 49.9881 38.0685 50.0052C37.8879 50.4434 37.7963 50.9076 37.798 51.3754ZM40.4078 38.8959C40.429 38.2076 40.6324 37.534 41.0009 36.9319C41.3695 37.534 41.5729 38.2076 41.5941 38.8959C41.5729 39.5843 41.3695 40.2579 41.0009 40.8599C40.6324 40.2579 40.429 39.5843 40.4078 38.8959ZM38.5098 51.3754C38.5086 50.9615 38.5948 50.5512 38.7636 50.1666C39.1883 50.3157 39.57 50.5505 39.8799 50.8531C40.1898 51.1557 40.4198 51.5182 40.5525 51.9133H38.5639C38.5286 51.7358 38.5105 51.5558 38.5098 51.3754ZM40.6451 54.9733C39.8284 54.304 39.1845 53.4796 38.7594 52.5588H40.6451V54.9733ZM41.0009 51.1921C40.5976 50.4624 39.9149 49.891 39.0806 49.5848C39.3193 49.2289 39.5802 48.8856 39.8621 48.5567C40.3129 48.0539 40.6952 47.5038 41.0009 46.9181C41.3067 47.5038 41.689 48.0539 42.1398 48.5567C42.4217 48.8856 42.6826 49.2289 42.9213 49.5848C42.087 49.891 41.4043 50.4624 41.0009 51.1921ZM41.3568 54.9733V52.5588H43.2425C42.8174 53.4796 42.1735 54.304 41.3568 54.9733ZM43.438 51.9133H41.4494C41.5821 51.5182 41.8121 51.1557 42.122 50.8531C42.4319 50.5505 42.8136 50.3157 43.2383 50.1666C43.4071 50.5512 43.4933 50.9615 43.4921 51.3754C43.4914 51.5558 43.4733 51.7358 43.438 51.9133ZM47.2882 51.9133H44.1565C44.1867 51.7353 44.2025 51.5555 44.2039 51.3754C44.2056 50.9076 44.114 50.4434 43.9334 50.0052C44.0623 49.9882 44.1923 49.9787 44.3225 49.9768C44.7325 49.9762 45.1296 49.8474 45.4472 49.6123C45.7647 49.3771 45.9832 49.05 46.0659 48.6858H47.2882V51.9133ZM47.2882 48.0404H46.063C45.9944 47.7365 45.8308 47.457 45.5919 47.2352C45.353 47.0133 45.0487 46.8584 44.7154 46.789L45.2549 42.3859C45.4538 40.7805 46.1599 39.2613 47.2882 38.0112V48.0404Z" fill="#642D00"/>
<path d="M47.3926 36.9465C45.8012 38.3921 44.7975 40.2845 44.5456 42.3144L43.969 47.0364C43.9635 47.0815 43.9685 47.1272 43.9837 47.1704C43.999 47.2136 44.0241 47.2534 44.0575 47.2873C44.0908 47.3211 44.1317 47.3482 44.1773 47.3667C44.223 47.3853 44.2725 47.3948 44.3225 47.3949C44.6057 47.3949 44.8773 47.4969 45.0775 47.6785C45.2777 47.86 45.3902 48.1063 45.3902 48.3631C45.3902 48.6199 45.2777 48.8662 45.0775 49.0477C44.8773 49.2293 44.6057 49.3313 44.3225 49.3313C44.0871 49.3335 43.8524 49.356 43.6217 49.3985C43.3501 48.9696 43.0452 48.5589 42.7092 48.1695C42.0136 47.3286 41.3568 46.5342 41.3568 45.3508V41.579C41.9449 40.7833 42.2738 39.8534 42.3059 38.8959C42.2701 37.9008 41.9156 36.9366 41.2857 36.1212C41.2509 36.0833 41.2074 36.0527 41.1582 36.0318C41.109 36.0109 41.0553 36 41.0009 36C40.9466 36 40.8929 36.0109 40.8437 36.0318C40.7945 36.0527 40.751 36.0833 40.7162 36.1212C40.0863 36.9366 39.7318 37.9008 39.696 38.8959C39.7281 39.8534 40.057 40.7833 40.6451 41.579V45.3508C40.6451 46.5342 39.9883 47.3303 39.2927 48.1695C38.9567 48.5589 38.6518 48.9696 38.3802 49.3985C38.1495 49.356 37.9148 49.3335 37.6794 49.3313C37.3962 49.3313 37.1246 49.2293 36.9244 49.0477C36.7242 48.8662 36.6117 48.6199 36.6117 48.3631C36.6117 48.1063 36.7242 47.86 36.9244 47.6785C37.1246 47.4969 37.3962 47.3949 37.6794 47.3949C37.7294 47.3948 37.7789 47.3853 37.8246 47.3667C37.8702 47.3482 37.9111 47.3211 37.9444 47.2873C37.9778 47.2534 38.0029 47.2136 38.0182 47.1704C38.0334 47.1272 38.0384 47.0815 38.0329 47.0364L37.4544 42.3144C37.2025 40.2845 36.1988 38.3921 34.6074 36.9465C34.5576 36.9015 34.4942 36.8708 34.4252 36.8583C34.3562 36.8459 34.2847 36.8523 34.2197 36.8767C34.1547 36.9011 34.0992 36.9424 34.0601 36.9955C34.021 37.0485 34.0001 37.1108 34 37.1746V52.236C34 52.3216 34.0375 52.4037 34.1042 52.4643C34.171 52.5248 34.2615 52.5588 34.3559 52.5588H38.0096C38.6664 54.4686 40.664 55.8534 40.7841 55.9351C40.8467 55.9773 40.9225 56 41.0005 56C41.0784 56 41.1543 55.9773 41.2169 55.9351C41.3369 55.8534 43.3346 54.4686 43.9913 52.5588H47.6441C47.7385 52.5588 47.829 52.5248 47.8958 52.4643C47.9625 52.4037 48 52.3216 48 52.236V37.1746C47.9999 37.1108 47.979 37.0485 47.9399 36.9955C47.9008 36.9424 47.8453 36.9011 47.7803 36.8767C47.7153 36.8523 47.6438 36.8459 47.5748 36.8583C47.5058 36.8708 47.4424 36.9015 47.3926 36.9465ZM34.7137 38.0112C35.842 39.2613 36.5481 40.7805 36.7469 42.3859L37.2865 46.789C36.9532 46.8584 36.6489 47.0133 36.41 47.2352C36.1711 47.457 36.0075 47.7365 35.9389 48.0404H34.7137V38.0112ZM37.798 51.3754C37.7994 51.5555 37.8152 51.7353 37.8454 51.9133H34.7137V48.6858H35.9355C36.0182 49.05 36.2367 49.3771 36.5543 49.6123C36.8718 49.8474 37.269 49.9762 37.6789 49.9768C37.8093 49.9786 37.9394 49.9881 38.0685 50.0052C37.8879 50.4434 37.7963 50.9076 37.798 51.3754ZM40.4078 38.8959C40.429 38.2076 40.6324 37.534 41.0009 36.9319C41.3695 37.534 41.5729 38.2076 41.5941 38.8959C41.5729 39.5843 41.3695 40.2579 41.0009 40.8599C40.6324 40.2579 40.429 39.5843 40.4078 38.8959ZM38.5098 51.3754C38.5086 50.9615 38.5948 50.5512 38.7636 50.1666C39.1883 50.3157 39.57 50.5505 39.8799 50.8531C40.1898 51.1557 40.4198 51.5182 40.5525 51.9133H38.5639C38.5286 51.7358 38.5105 51.5558 38.5098 51.3754ZM40.6451 54.9733C39.8284 54.304 39.1845 53.4796 38.7594 52.5588H40.6451V54.9733ZM41.0009 51.1921C40.5976 50.4624 39.9149 49.891 39.0806 49.5848C39.3193 49.2289 39.5802 48.8856 39.8621 48.5567C40.3129 48.0539 40.6952 47.5038 41.0009 46.9181C41.3067 47.5038 41.689 48.0539 42.1398 48.5567C42.4217 48.8856 42.6826 49.2289 42.9213 49.5848C42.087 49.891 41.4043 50.4624 41.0009 51.1921ZM41.3568 54.9733V52.5588H43.2425C42.8174 53.4796 42.1735 54.304 41.3568 54.9733ZM43.438 51.9133H41.4494C41.5821 51.5182 41.8121 51.1557 42.122 50.8531C42.4319 50.5505 42.8136 50.3157 43.2383 50.1666C43.4071 50.5512 43.4933 50.9615 43.4921 51.3754C43.4914 51.5558 43.4733 51.7358 43.438 51.9133ZM47.2882 51.9133H44.1565C44.1867 51.7353 44.2025 51.5555 44.2039 51.3754C44.2056 50.9076 44.114 50.4434 43.9334 50.0052C44.0623 49.9882 44.1923 49.9787 44.3225 49.9768C44.7325 49.9762 45.1296 49.8474 45.4472 49.6123C45.7647 49.3771 45.9832 49.05 46.0659 48.6858H47.2882V51.9133ZM47.2882 48.0404H46.063C45.9944 47.7365 45.8308 47.457 45.5919 47.2352C45.353 47.0133 45.0487 46.8584 44.7154 46.789L45.2549 42.3859C45.4538 40.7805 46.1599 39.2613 47.2882 38.0112V48.0404Z" stroke="#642D00" stroke-width="0.8" mask="url(#path-149-outside-1_7_2595)"/>
</svg>
