<svg width="81" height="81" viewBox="0 0 81 81" fill="none" xmlns="http://www.w3.org/2000/svg">
<rect x="23" y="26" width="4" height="4" fill="#8E4100"/>
<rect x="23" y="30" width="4" height="4" fill="#8E4100"/>
<rect x="23" y="38" width="4" height="4" fill="#8E4100"/>
<rect x="23" y="50" width="4" height="4" fill="#8E4100"/>
<rect x="23" y="62" width="4" height="4" fill="#8E4100"/>
<rect x="23" y="42" width="4" height="4" fill="#8E4100"/>
<rect x="23" y="54" width="4" height="4" fill="#8E4100"/>
<rect x="23" y="66" width="4" height="4" fill="#8E4100"/>
<rect x="27" y="66" width="4" height="4" fill="#8E4100"/>
<rect x="30.9999" y="66" width="4" height="4" fill="#8E4100"/>
<rect x="27" y="62" width="4" height="4" fill="#8E4100"/>
<rect x="23" y="34" width="4" height="4" fill="#642D00"/>
<rect x="23" y="46" width="4" height="4" fill="#642D00"/>
<rect x="23" y="58" width="4" height="4" fill="#642D00"/>
<rect x="27" y="26" width="4" height="4" fill="#8E4100"/>
<rect x="30.9999" y="26" width="4" height="4" fill="#8E4100"/>
<rect width="4" height="4" transform="matrix(-1 0 0 1 59.0001 26)" fill="#8E4100"/>
<rect width="4" height="4" transform="matrix(-1 0 0 1 63 26)" fill="white"/>
<rect width="4" height="4" transform="matrix(-1 0 0 1 23 26)" fill="white"/>
<rect width="4" height="4" transform="matrix(-1 0 0 1 39 26)" fill="white"/>
<rect width="4" height="4" transform="matrix(-1 0 0 1 39 22)" fill="white"/>
<rect width="4" height="4" transform="matrix(-1 0 0 1 39 18)" fill="white"/>
<rect width="4" height="4" transform="matrix(-1 0 0 1 39 14)" fill="white"/>
<rect width="4" height="4" transform="matrix(-1 0 0 1 35 10)" fill="white"/>
<rect width="4" height="4" transform="matrix(-1 0 0 1 35 6)" fill="white"/>
<rect width="4" height="4" transform="matrix(-1 0 0 1 39 6)" fill="white"/>
<rect width="4" height="4" transform="matrix(-1 0 0 1 43 6)" fill="white"/>
<rect width="4" height="4" transform="matrix(-1 0 0 1 47 6)" fill="white"/>
<rect width="4" height="4" transform="matrix(-1 0 0 1 51 6)" fill="white"/>
<rect width="4" height="4" transform="matrix(-1 0 0 1 51 10)" fill="white"/>
<rect width="4" height="4" transform="matrix(-1 0 0 1 47 14)" fill="white"/>
<rect width="4" height="4" transform="matrix(-1 0 0 1 47 18)" fill="white"/>
<rect width="4" height="4" transform="matrix(-1 0 0 1 47 22)" fill="white"/>
<rect width="4" height="4" transform="matrix(-1 0 0 1 47 26)" fill="white"/>
<rect width="4" height="4" transform="matrix(-1 0 0 1 59.0001 30)" fill="#8E4100"/>
<rect width="4" height="4" transform="matrix(-1 0 0 1 63 30)" fill="white"/>
<rect width="4" height="4" transform="matrix(-1 0 0 1 23 30)" fill="white"/>
<rect width="4" height="4" transform="matrix(-1 0 0 1 59.0001 38)" fill="#8E4100"/>
<rect width="4" height="4" transform="matrix(-1 0 0 1 63 38)" fill="white"/>
<rect width="4" height="4" transform="matrix(-1 0 0 1 23 38)" fill="white"/>
<rect width="4" height="4" transform="matrix(-1 0 0 1 59.0001 50)" fill="#8E4100"/>
<rect width="4" height="4" transform="matrix(-1 0 0 1 63 50)" fill="white"/>
<rect width="4" height="4" transform="matrix(-1 0 0 1 23 50)" fill="white"/>
<rect width="4" height="4" transform="matrix(-1 0 0 1 59.0001 62)" fill="#8E4100"/>
<rect width="4" height="4" transform="matrix(-1 0 0 1 63 62)" fill="white"/>
<rect width="4" height="4" transform="matrix(-1 0 0 1 23 62)" fill="white"/>
<rect width="4" height="4" transform="matrix(-1 0 0 1 59.0001 42)" fill="#8E4100"/>
<rect width="4" height="4" transform="matrix(-1 0 0 1 63 42)" fill="white"/>
<rect width="4" height="4" transform="matrix(-1 0 0 1 23 42)" fill="white"/>
<rect width="4" height="4" transform="matrix(-1 0 0 1 59.0001 54)" fill="#8E4100"/>
<rect width="4" height="4" transform="matrix(-1 0 0 1 63 54)" fill="white"/>
<rect width="4" height="4" transform="matrix(-1 0 0 1 23 54)" fill="white"/>
<rect width="4" height="4" transform="matrix(-1 0 0 1 59.0001 66)" fill="#8E4100"/>
<rect width="4" height="4" transform="matrix(-1 0 0 1 63 66)" fill="white"/>
<rect width="4" height="4" transform="matrix(-1 0 0 1 23 66)" fill="white"/>
<rect width="4" height="4" transform="matrix(-1 0 0 1 59.0001 70)" fill="white"/>
<rect width="4" height="4" transform="matrix(-1 0 0 1 47.0001 66)" fill="white"/>
<rect width="4" height="4" transform="matrix(-1 0 0 1 35.0001 70)" fill="white"/>
<rect width="4" height="4" transform="matrix(-1 0 0 1 59.0001 22)" fill="white"/>
<rect width="4" height="4" transform="matrix(-1 0 0 1 35.0001 22)" fill="white"/>
<rect width="4" height="4" transform="matrix(-1 0 0 1 55 66)" fill="#8E4100"/>
<rect width="4" height="4" transform="matrix(-1 0 0 1 55 70)" fill="white"/>
<rect width="4" height="4" transform="matrix(-1 0 0 1 43 66)" fill="white"/>
<rect width="4" height="4" transform="matrix(-1 0 0 1 31 70)" fill="white"/>
<rect width="4" height="4" transform="matrix(-1 0 0 1 55 22)" fill="white"/>
<rect width="4" height="4" transform="matrix(-1 0 0 1 31 22)" fill="white"/>
<rect width="4" height="4" transform="matrix(-1 0 0 1 51 66)" fill="#8E4100"/>
<rect width="4" height="4" transform="matrix(-1 0 0 1 51 70)" fill="white"/>
<rect width="4" height="4" transform="matrix(-1 0 0 1 39 66)" fill="white"/>
<rect width="4" height="4" transform="matrix(-1 0 0 1 27 70)" fill="white"/>
<rect width="4" height="4" transform="matrix(-1 0 0 1 51 22)" fill="white"/>
<rect width="4" height="4" transform="matrix(-1 0 0 1 27 22)" fill="white"/>
<rect width="4" height="4" transform="matrix(-1 0 0 1 55 62)" fill="#8E4100"/>
<rect width="4" height="4" transform="matrix(-1 0 0 1 59.0001 34)" fill="#642D00"/>
<rect width="4" height="4" transform="matrix(-1 0 0 1 63 34)" fill="white"/>
<rect width="4" height="4" transform="matrix(-1 0 0 1 23 34)" fill="white"/>
<rect width="4" height="4" transform="matrix(-1 0 0 1 59.0001 46)" fill="#642D00"/>
<rect width="4" height="4" transform="matrix(-1 0 0 1 63 46)" fill="white"/>
<rect width="4" height="4" transform="matrix(-1 0 0 1 23 46)" fill="white"/>
<rect width="4" height="4" transform="matrix(-1 0 0 1 59.0001 58)" fill="#642D00"/>
<rect width="4" height="4" transform="matrix(-1 0 0 1 63 58)" fill="white"/>
<rect width="4" height="4" transform="matrix(-1 0 0 1 23 58)" fill="white"/>
<rect width="4" height="4" transform="matrix(-1 0 0 1 55 26)" fill="#8E4100"/>
<rect width="4" height="4" transform="matrix(-1 0 0 1 55 30)" fill="#FFEE25"/>
<rect width="4" height="4" transform="matrix(-1 0 0 1 30.9999 30)" fill="#FFEE25"/>
<rect width="4" height="4" transform="matrix(-1 0 0 1 35 30)" fill="#FFEE25"/>
<rect width="4" height="4" transform="matrix(-1 0 0 1 39 30)" fill="#FFEE25"/>
<rect width="4" height="4" transform="matrix(-1 0 0 1 43 30)" fill="#E88029"/>
<rect width="4" height="4" transform="matrix(-1 0 0 1 43 26)" fill="#E88029"/>
<rect width="4" height="4" transform="matrix(-1 0 0 1 43 22)" fill="#E88029"/>
<rect width="4" height="4" transform="matrix(-1 0 0 1 43 18)" fill="#E88029"/>
<rect width="4" height="4" transform="matrix(-1 0 0 1 43 14)" fill="#E88029"/>
<rect width="4" height="4" transform="matrix(-1 0 0 1 43 10)" fill="#E88029"/>
<rect width="4" height="4" transform="matrix(-1 0 0 1 39 10)" fill="#E88029"/>
<rect width="4" height="4" transform="matrix(-1 0 0 1 47 10)" fill="#E88029"/>
<rect width="4" height="4" transform="matrix(-1 0 0 1 47 30)" fill="#FFEE25"/>
<rect width="4" height="4" transform="matrix(-1 0 0 1 51 30)" fill="#FFEE25"/>
<rect width="4" height="4" transform="matrix(-1 0 0 1 55 34)" fill="#FFEE25"/>
<rect width="4" height="4" transform="matrix(-1 0 0 1 30.9999 34)" fill="#FFEE25"/>
<rect width="4" height="4" transform="matrix(-1 0 0 1 35 34)" fill="#FFEE25"/>
<rect width="4" height="4" transform="matrix(-1 0 0 1 39 34)" fill="#F8A824"/>
<rect width="4" height="4" transform="matrix(-1 0 0 1 43 34)" fill="#F8A824"/>
<rect width="4" height="4" transform="matrix(-1 0 0 1 47 34)" fill="#F8A824"/>
<rect width="4" height="4" transform="matrix(-1 0 0 1 51 34)" fill="#FFEE25"/>
<rect width="4" height="4" transform="matrix(-1 0 0 1 55 38)" fill="#FFEE25"/>
<rect width="4" height="4" transform="matrix(-1 0 0 1 30.9999 38)" fill="#FFEE25"/>
<rect width="4" height="4" transform="matrix(-1 0 0 1 35 38)" fill="#F8A824"/>
<rect width="4" height="4" transform="matrix(-1 0 0 1 39 38)" fill="#F8A824"/>
<rect width="4" height="4" transform="matrix(-1 0 0 1 43 38)" fill="#E88029"/>
<rect width="4" height="4" transform="matrix(-1 0 0 1 47 38)" fill="#F8A824"/>
<rect width="4" height="4" transform="matrix(-1 0 0 1 51 38)" fill="#F8A824"/>
<rect width="4" height="4" transform="matrix(-1 0 0 1 55 42)" fill="#FFEE25"/>
<rect width="4" height="4" transform="matrix(-1 0 0 1 30.9999 42)" fill="#FFEE25"/>
<rect width="4" height="4" transform="matrix(-1 0 0 1 35 42)" fill="#F8A824"/>
<rect width="4" height="4" transform="matrix(-1 0 0 1 39 42)" fill="#E88029"/>
<rect width="4" height="4" transform="matrix(-1 0 0 1 43 42)" fill="#E88029"/>
<rect width="4" height="4" transform="matrix(-1 0 0 1 47 42)" fill="#E88029"/>
<rect width="4" height="4" transform="matrix(-1 0 0 1 51 42)" fill="#F8A824"/>
<rect width="4" height="4" transform="matrix(-1 0 0 1 55 46)" fill="#FFEE25"/>
<rect width="4" height="4" transform="matrix(-1 0 0 1 30.9999 46)" fill="#FFEE25"/>
<rect width="4" height="4" transform="matrix(-1 0 0 1 35 46)" fill="#F8A824"/>
<rect width="4" height="4" transform="matrix(-1 0 0 1 39 46)" fill="#E88029"/>
<rect width="4" height="4" transform="matrix(-1 0 0 1 43 46)" fill="#E88029"/>
<rect width="4" height="4" transform="matrix(-1 0 0 1 47 46)" fill="#E88029"/>
<rect width="4" height="4" transform="matrix(-1 0 0 1 51 46)" fill="#F8A824"/>
<rect width="4" height="4" transform="matrix(-1 0 0 1 55 50)" fill="#FFEE25"/>
<rect width="4" height="4" transform="matrix(-1 0 0 1 30.9999 50)" fill="#FFEE25"/>
<rect width="4" height="4" transform="matrix(-1 0 0 1 35 50)" fill="#F8A824"/>
<rect width="4" height="4" transform="matrix(-1 0 0 1 39 50)" fill="#F8A824"/>
<rect width="4" height="4" transform="matrix(-1 0 0 1 43 50)" fill="#E88029"/>
<rect width="4" height="4" transform="matrix(-1 0 0 1 47 50)" fill="#F8A824"/>
<rect width="4" height="4" transform="matrix(-1 0 0 1 51 50)" fill="#F8A824"/>
<rect width="4" height="4" transform="matrix(-1 0 0 1 55 54)" fill="#FFEE25"/>
<rect width="4" height="4" transform="matrix(-1 0 0 1 30.9999 54)" fill="#FFEE25"/>
<rect width="4" height="4" transform="matrix(-1 0 0 1 35 54)" fill="#FFEE25"/>
<rect width="4" height="4" transform="matrix(-1 0 0 1 39 54)" fill="#F8A824"/>
<rect width="4" height="4" transform="matrix(-1 0 0 1 43 54)" fill="#F8A824"/>
<rect width="4" height="4" transform="matrix(-1 0 0 1 47 54)" fill="#F8A824"/>
<rect width="4" height="4" transform="matrix(-1 0 0 1 51 54)" fill="#FFEE25"/>
<rect width="4" height="4" transform="matrix(-1 0 0 1 55 58)" fill="#FFEE25"/>
<rect width="4" height="4" transform="matrix(-1 0 0 1 30.9999 58)" fill="#FFEE25"/>
<rect width="4" height="4" transform="matrix(-1 0 0 1 35 58)" fill="#FFEE25"/>
<rect width="4" height="4" transform="matrix(-1 0 0 1 39 58)" fill="#FFEE25"/>
<rect width="4" height="4" transform="matrix(-1 0 0 1 43 58)" fill="#FFEE25"/>
<rect width="4" height="4" transform="matrix(-1 0 0 1 47 58)" fill="#FFEE25"/>
<rect width="4" height="4" transform="matrix(-1 0 0 1 51 58)" fill="#FFEE25"/>
<rect width="4" height="4" transform="matrix(-1 0 0 1 51 62)" fill="#FFEE25"/>
<rect width="4" height="4" transform="matrix(-1 0 0 1 35 62)" fill="#FFEE25"/>
<rect width="4" height="4" transform="matrix(-1 0 0 1 47 62)" fill="#F8A824"/>
<rect width="4" height="4" transform="matrix(-1 0 0 1 43 62)" fill="#F8A824"/>
<rect width="4" height="4" transform="matrix(-1 0 0 1 39 62)" fill="#F8A824"/>
<rect width="4" height="4" transform="matrix(-1 0 0 1 51 26)" fill="#8E4100"/>
<rect width="4" height="4" transform="matrix(-1 0 0 1 43 44)" fill="white"/>
</svg>
