<svg width="81" height="81" viewBox="0 0 81 81" fill="none" xmlns="http://www.w3.org/2000/svg">
<rect x="38.9999" y="62.0002" width="4.00001" height="4.00001" fill="black"/>
<rect x="38.9999" y="66" width="4.00001" height="4.00001" fill="white"/>
<rect x="42.9996" y="66" width="4.00001" height="4.00001" fill="white"/>
<rect x="42.9996" y="62.0002" width="4.00001" height="4.00001" fill="white"/>
<rect x="47.0005" y="62.0002" width="4.00001" height="4.00001" fill="white"/>
<rect x="47.0005" y="57.9999" width="4.00001" height="4.00001" fill="white"/>
<rect x="51.0002" y="57.9999" width="4.00001" height="4.00001" fill="white"/>
<rect x="51.0002" y="54.0002" width="4.00001" height="4.00001" fill="white"/>
<rect x="54.9999" y="54.0002" width="4.00001" height="4.00001" fill="white"/>
<rect x="54.9999" y="49.9999" width="4.00001" height="4.00001" fill="white"/>
<rect x="58.9995" y="49.9999" width="4.00001" height="4.00001" fill="white"/>
<rect x="58.9995" y="46.0002" width="4.00001" height="4.00001" fill="white"/>
<rect x="63.0005" y="46.0002" width="4.00001" height="4.00001" fill="white"/>
<rect x="63.0005" y="41.9999" width="4.00001" height="4.00001" fill="white"/>
<rect x="67.0001" y="41.9999" width="4.00001" height="4.00001" fill="white"/>
<rect x="67.0001" y="38.0003" width="4.00001" height="4.00001" fill="white"/>
<rect x="67.0001" y="33.9999" width="4.00001" height="4.00001" fill="white"/>
<rect x="70.9998" y="33.9999" width="4.00001" height="4.00001" fill="white"/>
<rect x="70.9998" y="30.0003" width="4.00001" height="4.00001" fill="white"/>
<rect x="70.9998" y="25.9999" width="4.00001" height="4.00001" fill="white"/>
<rect x="70.9998" y="22.0003" width="4.00001" height="4.00001" fill="white"/>
<rect x="67.0001" y="22.0003" width="4.00001" height="4.00001" fill="white"/>
<rect x="67.0001" y="18" width="4.00001" height="4.00001" fill="white"/>
<rect x="63.0005" y="18" width="4.00001" height="4.00001" fill="white"/>
<rect x="63.0005" y="14.0003" width="4.00001" height="4.00001" fill="white"/>
<rect x="58.9995" y="14.0003" width="4.00001" height="4.00001" fill="white"/>
<rect x="58.9995" y="10" width="4.00001" height="4.00001" fill="white"/>
<rect x="54.9999" y="10" width="4.00001" height="4.00001" fill="white"/>
<rect x="51.0002" y="10" width="4.00001" height="4.00001" fill="white"/>
<rect x="47.0005" y="10" width="4.00001" height="4.00001" fill="white"/>
<rect x="42.9996" y="10" width="4.00001" height="4.00001" fill="white"/>
<rect x="42.9996" y="14.0003" width="4.00001" height="4.00001" fill="white"/>
<rect x="38.9999" y="14.0003" width="4.00001" height="4.00001" fill="white"/>
<rect x="38.9999" y="18" width="4.00001" height="4.00001" fill="white"/>
<rect x="35.0002" y="14.0003" width="4.00001" height="4.00001" fill="white"/>
<rect x="35.0002" y="10" width="4.00001" height="4.00001" fill="white"/>
<rect x="31.0007" y="10" width="4.00001" height="4.00001" fill="white"/>
<rect x="26.9996" y="10" width="4.00001" height="4.00001" fill="white"/>
<rect x="23" y="10" width="4.00001" height="4.00001" fill="white"/>
<rect x="19.0003" y="10" width="4.00001" height="4.00001" fill="white"/>
<rect x="19.0003" y="14.0003" width="4.00001" height="4.00001" fill="white"/>
<rect x="15.0007" y="14.0003" width="4.00001" height="4.00001" fill="white"/>
<rect x="15.0007" y="18" width="4.00001" height="4.00001" fill="white"/>
<rect x="10.9996" y="18" width="4.00001" height="4.00001" fill="white"/>
<rect x="10.9996" y="22.0003" width="4.00001" height="4.00001" fill="white"/>
<rect x="7" y="22.0003" width="4.00001" height="4.00001" fill="white"/>
<rect x="7" y="25.9999" width="4.00001" height="4.00001" fill="white"/>
<rect x="7" y="30.0003" width="4.00001" height="4.00001" fill="white"/>
<rect x="7" y="33.9999" width="4.00001" height="4.00001" fill="white"/>
<rect x="10.9996" y="33.9999" width="4.00001" height="4.00001" fill="white"/>
<rect x="10.9996" y="38.0003" width="4.00001" height="4.00001" fill="white"/>
<rect x="10.9996" y="41.9999" width="4.00001" height="4.00001" fill="white"/>
<rect x="15.0007" y="41.9999" width="4.00001" height="4.00001" fill="white"/>
<rect x="15.0007" y="46.0002" width="4.00001" height="4.00001" fill="white"/>
<rect x="19.0003" y="46.0002" width="4.00001" height="4.00001" fill="white"/>
<rect x="19.0003" y="49.9999" width="4.00001" height="4.00001" fill="white"/>
<rect x="23" y="49.9999" width="4.00001" height="4.00001" fill="white"/>
<rect x="23" y="54.0002" width="4.00001" height="4.00001" fill="white"/>
<rect x="26.9996" y="54.0002" width="4.00001" height="4.00001" fill="white"/>
<rect x="26.9996" y="57.9999" width="4.00001" height="4.00001" fill="white"/>
<rect x="31.0007" y="57.9999" width="4.00001" height="4.00001" fill="white"/>
<rect x="31.0007" y="62.0002" width="4.00001" height="4.00001" fill="white"/>
<rect x="35.0002" y="62.0002" width="4.00001" height="4.00001" fill="white"/>
<rect x="35.0002" y="66" width="4.00001" height="4.00001" fill="white"/>
<rect x="38.9999" y="57.9999" width="4.00001" height="4.00001" fill="#FF0000"/>
<rect x="35.0002" y="54.0002" width="4.00001" height="4.00001" fill="#FF0000"/>
<rect x="31.0007" y="49.9999" width="4.00001" height="4.00001" fill="#FF0000"/>
<rect x="26.9996" y="46.0002" width="4.00001" height="4.00001" fill="#FF0000"/>
<rect x="23" y="41.9999" width="4.00001" height="4.00001" fill="#FF0000"/>
<rect x="19.0003" y="38.0003" width="4.00001" height="4.00001" fill="#FF0000"/>
<rect x="19.0003" y="33.9999" width="4.00001" height="4.00001" fill="#FF0000"/>
<rect x="19.0003" y="30.0003" width="4.00001" height="4.00001" fill="#FF0000"/>
<rect x="15.0007" y="30.0003" width="4.00001" height="4.00001" fill="#FF0000"/>
<rect x="15.0007" y="25.9999" width="4.00001" height="4.00001" fill="#FF0000"/>
<rect x="19.0003" y="25.9999" width="4.00001" height="4.00001" fill="#FF0000"/>
<rect x="19.0003" y="22.0003" width="4.00001" height="4.00001" fill="#FF0000"/>
<rect x="23" y="22.0003" width="4.00001" height="4.00001" fill="#FF0000"/>
<rect x="23" y="18" width="4.00001" height="4.00001" fill="#FF0000"/>
<rect x="26.9996" y="18" width="4.00001" height="4.00001" fill="#FF0000"/>
<rect x="31.0007" y="18" width="4.00001" height="4.00001" fill="#FF0000"/>
<rect x="31.0007" y="22.0003" width="4.00001" height="4.00001" fill="#FF0000"/>
<rect x="35.0002" y="22.0003" width="4.00001" height="4.00001" fill="#FF0000"/>
<rect x="35.0002" y="25.9999" width="4.00001" height="4.00001" fill="#FF0000"/>
<rect x="38.9999" y="25.9999" width="4.00001" height="4.00001" fill="#FF0000"/>
<rect x="42.9996" y="25.9999" width="4.00001" height="4.00001" fill="#FF0000"/>
<rect x="42.9996" y="22.0003" width="4.00001" height="4.00001" fill="#FF0000"/>
<rect x="47.0005" y="22.0003" width="4.00001" height="4.00001" fill="#FF0000"/>
<rect x="47.0005" y="18" width="4.00001" height="4.00001" fill="#FF0000"/>
<rect x="51.0002" y="18" width="4.00001" height="4.00001" fill="#FF0000"/>
<rect x="54.9999" y="18" width="4.00001" height="4.00001" fill="#FF0000"/>
<rect x="54.9999" y="22.0003" width="4.00001" height="4.00001" fill="#FF0000"/>
<rect x="58.9995" y="22.0003" width="4.00001" height="4.00001" fill="#FF0000"/>
<rect x="58.9995" y="25.9999" width="4.00001" height="4.00001" fill="#FF0000"/>
<rect x="63.0005" y="25.9999" width="4.00001" height="4.00001" fill="#FF0000"/>
<rect x="63.0005" y="30.0003" width="4.00001" height="4.00001" fill="#FF0000"/>
<rect x="58.9995" y="30.0003" width="4.00001" height="4.00001" fill="#FF0000"/>
<rect x="58.9995" y="33.9999" width="4.00001" height="4.00001" fill="#FF0000"/>
<rect x="58.9995" y="38.0003" width="4.00001" height="4.00001" fill="#FF0000"/>
<rect x="54.9999" y="38.0003" width="4.00001" height="4.00001" fill="#FF0000"/>
<rect x="54.9999" y="41.9999" width="4.00001" height="4.00001" fill="#FF0000"/>
<rect x="51.0002" y="41.9999" width="4.00001" height="4.00001" fill="#FF0000"/>
<rect x="51.0002" y="46.0002" width="4.00001" height="4.00001" fill="#FF0000"/>
<rect x="47.0005" y="46.0002" width="4.00001" height="4.00001" fill="#FF0000"/>
<rect x="47.0005" y="49.9999" width="4.00001" height="4.00001" fill="#FF0000"/>
<rect x="42.9996" y="49.9999" width="4.00001" height="4.00001" fill="#FF0000"/>
<rect x="42.9996" y="54.0002" width="4.00001" height="4.00001" fill="#FF0000"/>
<rect x="38.9999" y="54.0002" width="4.00001" height="4.00001" fill="#FF0000"/>
<rect x="38.9999" y="49.9999" width="4.00001" height="4.00001" fill="#FF0000"/>
<rect x="38.9999" y="46.0002" width="4.00001" height="4.00001" fill="#FF0000"/>
<rect x="38.9999" y="41.9999" width="4.00001" height="4.00001" fill="#FF0000"/>
<rect x="38.9999" y="38.0003" width="4.00001" height="4.00001" fill="#FF0000"/>
<rect x="38.9999" y="33.9999" width="4.00001" height="4.00001" fill="#FF0000"/>
<rect x="38.9999" y="30.0003" width="4.00001" height="4.00001" fill="#FF0000"/>
<rect x="51.0002" y="22.0003" width="4.00001" height="4.00001" fill="#FF0000"/>
<rect x="26.9996" y="22.0003" width="4.00001" height="4.00001" fill="#FF0000"/>
<rect x="23" y="25.9999" width="4.00001" height="4.00001" fill="#FF0000"/>
<rect x="31.0007" y="25.9999" width="4.00001" height="4.00001" fill="#FF0000"/>
<rect x="31.0007" y="30.0003" width="4.00001" height="4.00001" fill="#FF0000"/>
<rect x="31.0007" y="33.9999" width="4.00001" height="4.00001" fill="#FF0000"/>
<rect x="31.0007" y="38.0003" width="4.00001" height="4.00001" fill="#FF0000"/>
<rect x="31.0007" y="41.9999" width="4.00001" height="4.00001" fill="#FF0000"/>
<rect x="31.0007" y="46.0002" width="4.00001" height="4.00001" fill="#FF0000"/>
<rect x="35.0002" y="49.9999" width="4.00001" height="4.00001" fill="#FF0000"/>
<rect x="35.0002" y="46.0002" width="4.00001" height="4.00001" fill="#FF0000"/>
<rect x="35.0002" y="41.9999" width="4.00001" height="4.00001" fill="#FF0000"/>
<rect x="35.0002" y="38.0003" width="4.00001" height="4.00001" fill="#FF0000"/>
<rect x="35.0002" y="33.9999" width="4.00001" height="4.00001" fill="#FF0000"/>
<rect x="35.0002" y="30.0003" width="4.00001" height="4.00001" fill="#FF0000"/>
<rect x="26.9996" y="30.0003" width="4.00001" height="4.00001" fill="#FF0000"/>
<rect x="26.9996" y="33.9999" width="4.00001" height="4.00001" fill="#FF0000"/>
<rect x="26.9996" y="38.0003" width="4.00001" height="4.00001" fill="#FF0000"/>
<rect x="26.9996" y="41.9999" width="4.00001" height="4.00001" fill="#FF0000"/>
<rect x="23" y="38.0003" width="4.00001" height="4.00001" fill="#FF0000"/>
<rect x="23" y="33.9999" width="4.00001" height="4.00001" fill="#FF0000"/>
<rect x="42.9996" y="46.0002" width="4.00001" height="4.00001" fill="#FF0000"/>
<rect x="42.9996" y="41.9999" width="4.00001" height="4.00001" fill="#FF0000"/>
<rect x="42.9996" y="38.0003" width="4.00001" height="4.00001" fill="#FF0000"/>
<rect x="42.9996" y="33.9999" width="4.00001" height="4.00001" fill="#FF0000"/>
<rect x="42.9996" y="30.0003" width="4.00001" height="4.00001" fill="#FF0000"/>
<rect x="47.0005" y="30.0003" width="4.00001" height="4.00001" fill="#FF0000"/>
<rect x="51.0002" y="30.0003" width="4.00001" height="4.00001" fill="#FF0000"/>
<rect x="54.9999" y="30.0003" width="4.00001" height="4.00001" fill="#FF0000"/>
<rect x="54.9999" y="25.9999" width="4.00001" height="4.00001" fill="#FF0000"/>
<rect x="51.0002" y="25.9999" width="4.00001" height="4.00001" fill="#FF0000"/>
<rect x="47.0005" y="25.9999" width="4.00001" height="4.00001" fill="#FF0000"/>
<rect x="47.0005" y="33.9999" width="4.00001" height="4.00001" fill="#FF0000"/>
<rect x="47.0005" y="38.0003" width="4.00001" height="4.00001" fill="#FF0000"/>
<rect x="47.0005" y="41.9999" width="4.00001" height="4.00001" fill="#FF0000"/>
<rect x="51.0002" y="38.0003" width="4.00001" height="4.00001" fill="#FF0000"/>
<rect x="51.0002" y="33.9999" width="4.00001" height="4.00001" fill="#FF0000"/>
<rect x="54.9999" y="33.9999" width="4.00001" height="4.00001" fill="#FF0000"/>
<rect x="26.9996" y="25.9999" width="4.00001" height="4.00001" fill="white"/>
<rect x="23" y="30.0003" width="4.00001" height="4.00001" fill="white"/>
<rect x="42.9996" y="57.9999" width="4.00001" height="4.00001" fill="black"/>
<rect x="47.0005" y="54.0002" width="4.00001" height="4.00001" fill="black"/>
<rect x="51.0002" y="49.9999" width="4.00001" height="4.00001" fill="black"/>
<rect x="54.9999" y="46.0002" width="4.00001" height="4.00001" fill="black"/>
<rect x="58.9995" y="41.9999" width="4.00001" height="4.00001" fill="black"/>
<rect x="63.0005" y="38.0003" width="4.00001" height="4.00001" fill="black"/>
<rect x="63.0005" y="33.9999" width="4.00001" height="4.00001" fill="black"/>
<rect x="67.0001" y="30.0003" width="4.00001" height="4.00001" fill="black"/>
<rect x="67.0001" y="25.9999" width="4.00001" height="4.00001" fill="black"/>
<rect x="63.0005" y="22.0003" width="4.00001" height="4.00001" fill="black"/>
<rect x="58.9995" y="18" width="4.00001" height="4.00001" fill="black"/>
<rect x="54.9999" y="14.0003" width="4.00001" height="4.00001" fill="black"/>
<rect x="51.0002" y="14.0003" width="4.00001" height="4.00001" fill="black"/>
<rect x="47.0005" y="14.0003" width="4.00001" height="4.00001" fill="black"/>
<rect x="42.9996" y="18" width="4.00001" height="4.00001" fill="black"/>
<rect width="4.00001" height="4.00001" transform="matrix(-1 0 0 1 38.9999 57.9999)" fill="black"/>
<rect width="4.00001" height="4.00001" transform="matrix(-1 0 0 1 35.0002 54.0002)" fill="black"/>
<rect width="4.00001" height="4.00001" transform="matrix(-1 0 0 1 31.0007 49.9999)" fill="black"/>
<rect width="4.00001" height="4.00001" transform="matrix(-1 0 0 1 26.9996 46.0002)" fill="black"/>
<rect width="4.00001" height="4.00001" transform="matrix(-1 0 0 1 23 41.9999)" fill="black"/>
<rect width="4.00001" height="4.00001" transform="matrix(-1 0 0 1 19.0003 38.0003)" fill="black"/>
<rect width="4.00001" height="4.00001" transform="matrix(-1 0 0 1 19.0003 33.9999)" fill="black"/>
<rect width="4.00001" height="4.00001" transform="matrix(-1 0 0 1 15.0007 30.0003)" fill="black"/>
<rect width="4.00001" height="4.00001" transform="matrix(-1 0 0 1 15.0007 25.9999)" fill="black"/>
<rect width="4.00001" height="4.00001" transform="matrix(-1 0 0 1 19.0003 22.0003)" fill="black"/>
<rect width="4.00001" height="4.00001" transform="matrix(-1 0 0 1 23 18)" fill="black"/>
<rect width="4.00001" height="4.00001" transform="matrix(-1 0 0 1 26.9996 14.0003)" fill="black"/>
<rect width="4.00001" height="4.00001" transform="matrix(-1 0 0 1 31.0007 14.0003)" fill="black"/>
<rect width="4.00001" height="4.00001" transform="matrix(-1 0 0 1 35.0002 14.0003)" fill="black"/>
<rect width="4.00001" height="4.00001" transform="matrix(-1 0 0 1 38.9999 18)" fill="black"/>
<rect x="38.9999" y="22.0003" width="4.00001" height="4.00001" fill="black"/>
</svg>
