<svg width="81" height="81" viewBox="0 0 81 81" fill="none" xmlns="http://www.w3.org/2000/svg">
<rect width="3.63636" height="3.63636" transform="translate(14.2727 61.8182)" fill="#151515"/>
<rect width="3.63636" height="3.63636" transform="translate(17.9091 65.4545)" fill="#151515"/>
<rect width="3.63636" height="3.63636" transform="translate(21.5455 69.0909)" fill="#151515"/>
<rect width="3.63636" height="3.63636" transform="translate(25.1818 69.0909)" fill="#151515"/>
<rect width="3.63636" height="3.63636" transform="translate(28.8182 72.7273)" fill="#151515"/>
<rect width="3.63636" height="3.63636" transform="translate(32.4545 76.3636)" fill="#151515"/>
<rect width="3.63636" height="3.63636" transform="translate(36.0909 76.3636)" fill="#151515"/>
<rect width="3.63636" height="3.63636" transform="translate(39.7273 76.3636)" fill="#151515"/>
<rect width="3.63636" height="3.63636" transform="translate(43.3636 76.3636)" fill="#151515"/>
<rect width="3.63636" height="3.63636" transform="translate(47 72.7273)" fill="#151515"/>
<rect width="3.63636" height="3.63636" transform="translate(50.6364 69.0909)" fill="#151515"/>
<rect width="3.63636" height="3.63636" transform="translate(54.2727 69.0909)" fill="#151515"/>
<rect width="3.63636" height="3.63636" transform="translate(57.9091 65.4545)" fill="#151515"/>
<rect width="3.63636" height="3.63636" transform="translate(61.5455 61.8182)" fill="#151515"/>
<rect width="3.63636" height="3.63636" transform="translate(65.1818 58.1818)" fill="#151515"/>
<rect width="3.63636" height="3.63636" transform="translate(65.1818 54.5455)" fill="#151515"/>
<rect width="3.63636" height="3.63636" transform="translate(65.1818 50.9091)" fill="#151515"/>
<rect width="3.63636" height="3.63636" transform="translate(65.1818 47.2727)" fill="#151515"/>
<rect width="3.63636" height="3.63636" transform="translate(65.1818 43.6364)" fill="#151515"/>
<rect width="3.63636" height="3.63636" transform="translate(65.1818 40)" fill="#151515"/>
<rect width="3.63636" height="3.63636" transform="translate(68.8182 36.3636)" fill="#151515"/>
<rect width="3.63636" height="3.63636" transform="translate(68.8182 32.7273)" fill="#151515"/>
<rect width="3.63636" height="3.63636" transform="translate(68.8182 29.0909)" fill="#151515"/>
<rect width="3.63636" height="3.63636" transform="translate(68.8182 25.4545)" fill="#151515"/>
<rect width="3.63636" height="3.63636" transform="translate(68.8182 21.8182)" fill="#151515"/>
<rect width="3.63636" height="3.63636" transform="translate(68.8182 18.1818)" fill="#151515"/>
<rect width="3.63636" height="3.63636" transform="translate(68.8182 14.5455)" fill="#151515"/>
<rect width="3.63636" height="3.63636" transform="translate(68.8182 10.9091)" fill="#151515"/>
<rect width="3.63636" height="3.63636" transform="translate(68.8182 7.27272)" fill="#151515"/>
<rect width="3.63636" height="3.63636" transform="translate(65.1818 3.63637)" fill="#151515"/>
<rect width="3.63636" height="3.63636" transform="translate(61.5455 3.63637)" fill="#151515"/>
<rect width="3.63636" height="3.63636" transform="translate(57.9091 3.63637)" fill="#151515"/>
<rect width="3.63636" height="3.63636" transform="translate(54.2727 3.63637)" fill="#151515"/>
<rect width="3.63636" height="3.63636" transform="translate(50.6364 3.63637)" fill="#151515"/>
<rect width="3.63636" height="3.63636" transform="translate(47 3.63637)" fill="#151515"/>
<rect width="3.63636" height="3.63636" transform="translate(43.3636)" fill="#151515"/>
<rect width="3.63636" height="3.63636" transform="translate(39.7273)" fill="#151515"/>
<rect width="3.63636" height="3.63636" transform="translate(36.0909)" fill="#151515"/>
<rect width="3.63636" height="3.63636" transform="translate(32.4545)" fill="#151515"/>
<rect width="3.63636" height="3.63636" transform="translate(28.8182 3.63637)" fill="#151515"/>
<rect width="3.63636" height="3.63636" transform="translate(25.1818 3.63637)" fill="#151515"/>
<rect width="3.63636" height="3.63636" transform="translate(21.5455 3.63637)" fill="#151515"/>
<rect width="3.63636" height="3.63636" transform="translate(17.9091 3.63637)" fill="#151515"/>
<rect width="3.63636" height="3.63636" transform="translate(14.2727 3.63637)" fill="#151515"/>
<rect width="3.63636" height="3.63636" transform="translate(10.6364 3.63637)" fill="#151515"/>
<rect width="3.63636" height="3.63636" transform="translate(7 7.27272)" fill="#151515"/>
<rect width="3.63636" height="3.63636" transform="translate(7 10.9091)" fill="#151515"/>
<rect width="3.63636" height="3.63636" transform="translate(7 14.5455)" fill="#151515"/>
<rect width="3.63636" height="3.63636" transform="translate(14.2727 14.5455)" fill="#3A3A3A"/>
<rect width="3.63636" height="3.63636" transform="translate(17.9091 10.9091)" fill="#3A3A3A"/>
<rect width="3.63636" height="3.63636" transform="translate(21.5455 10.9091)" fill="#3A3A3A"/>
<rect width="3.63636" height="3.63636" transform="translate(25.1818 10.9091)" fill="#3A3A3A"/>
<rect width="3.63636" height="3.63636" transform="translate(28.8182 10.9091)" fill="#3A3A3A"/>
<rect width="3.63636" height="3.63636" transform="translate(32.4545 10.9091)" fill="#3A3A3A"/>
<rect width="3.63636" height="3.63636" transform="translate(14.2727 18.1818)" fill="#3A3A3A"/>
<rect width="3.63636" height="3.63636" transform="translate(14.2727 21.8182)" fill="#3A3A3A"/>
<rect width="3.63636" height="3.63636" transform="translate(14.2727 25.4545)" fill="#3A3A3A"/>
<rect width="3.63636" height="3.63636" transform="translate(14.2727 29.0909)" fill="#3A3A3A"/>
<rect width="3.63636" height="3.63636" transform="translate(14.2727 32.7273)" fill="#3A3A3A"/>
<rect width="3.63636" height="3.63636" transform="translate(14.2727 36.3636)" fill="#3A3A3A"/>
<rect width="3.63636" height="3.63636" transform="translate(17.9091 40)" fill="#3A3A3A"/>
<rect width="3.63636" height="3.63636" transform="translate(17.9091 43.6364)" fill="#3A3A3A"/>
<rect width="3.63636" height="3.63636" transform="translate(17.9091 47.2727)" fill="#3A3A3A"/>
<rect width="3.63636" height="3.63636" transform="translate(17.9091 50.9091)" fill="#3A3A3A"/>
<rect width="3.63636" height="3.63636" transform="translate(17.9091 54.5455)" fill="#3A3A3A"/>
<rect width="3.63636" height="3.63636" transform="translate(21.5455 58.1818)" fill="#3A3A3A"/>
<rect width="3.63636" height="3.63636" transform="translate(25.1818 61.8182)" fill="#3A3A3A"/>
<rect width="3.63636" height="3.63636" transform="translate(28.8182 61.8182)" fill="#3A3A3A"/>
<rect width="3.63636" height="3.63636" transform="translate(32.4545 65.4545)" fill="#3A3A3A"/>
<rect width="3.63636" height="3.63636" transform="translate(36.0909 65.4545)" fill="#3A3A3A"/>
<rect width="3.63636" height="3.63636" transform="translate(39.7273 65.4545)" fill="#3A3A3A"/>
<rect width="3.63636" height="3.63636" transform="translate(43.3636 65.4545)" fill="#3A3A3A"/>
<rect width="3.63636" height="3.63636" transform="translate(47 61.8182)" fill="#3A3A3A"/>
<rect width="3.63636" height="3.63636" transform="translate(50.6364 61.8182)" fill="#3A3A3A"/>
<rect width="3.63636" height="3.63636" transform="translate(54.2727 58.1818)" fill="#3A3A3A"/>
<rect width="3.63636" height="3.63636" transform="translate(57.9091 54.5455)" fill="#3A3A3A"/>
<rect width="3.63636" height="3.63636" transform="translate(57.9091 50.9091)" fill="#3A3A3A"/>
<rect width="3.63636" height="3.63636" transform="translate(57.9091 47.2727)" fill="#3A3A3A"/>
<rect width="3.63636" height="3.63636" transform="translate(57.9091 43.6364)" fill="#3A3A3A"/>
<rect width="3.63636" height="3.63636" transform="translate(57.9091 40)" fill="#3A3A3A"/>
<rect width="3.63636" height="3.63636" transform="translate(57.9091 36.3636)" fill="#3A3A3A"/>
<rect width="3.63636" height="3.63636" transform="translate(61.5455 32.7273)" fill="#3A3A3A"/>
<rect width="3.63636" height="3.63636" transform="translate(61.5455 29.0909)" fill="#3A3A3A"/>
<rect width="3.63636" height="3.63636" transform="translate(61.5455 25.4545)" fill="#3A3A3A"/>
<rect width="3.63636" height="3.63636" transform="translate(61.5455 21.8182)" fill="#3A3A3A"/>
<rect width="3.63636" height="3.63636" transform="translate(61.5455 18.1818)" fill="#3A3A3A"/>
<rect width="3.63636" height="3.63636" transform="translate(61.5455 14.5455)" fill="#3A3A3A"/>
<rect width="3.63636" height="3.63636" transform="translate(57.9091 14.5455)" fill="#FCDCA9"/>
<rect width="3.63636" height="3.63636" transform="translate(54.2727 14.5455)" fill="#FCDCA9"/>
<rect width="3.63636" height="3.63636" transform="translate(50.6364 14.5455)" fill="#FCDCA9"/>
<rect width="3.63636" height="3.63636" transform="translate(36.0909 10.9091)" fill="#C18815"/>
<rect width="3.63636" height="3.63636" transform="translate(39.7273 10.9091)" fill="#C18815"/>
<rect width="3.63636" height="3.63636" transform="translate(17.9091 14.5455)" fill="#C18815"/>
<rect width="3.63636" height="3.63636" transform="translate(17.9091 18.1818)" fill="#C18815"/>
<rect width="3.63636" height="3.63636" transform="translate(21.5455 14.5455)" fill="#C18815"/>
<rect width="3.63636" height="3.63636" transform="translate(21.5455 18.1818)" fill="#C18815"/>
<rect width="3.63636" height="3.63636" transform="translate(21.5455 21.8182)" fill="#C18815"/>
<rect width="3.63636" height="3.63636" transform="translate(21.5455 25.4545)" fill="#C18815"/>
<rect width="3.63636" height="3.63636" transform="translate(21.5455 29.0909)" fill="#C18815"/>
<rect width="3.63636" height="3.63636" transform="translate(25.1818 29.0909)" fill="#C18815"/>
<rect width="3.63636" height="3.63636" transform="translate(25.1818 32.7273)" fill="#C18815"/>
<rect width="3.63636" height="3.63636" transform="translate(21.5455 32.7273)" fill="#C18815"/>
<rect width="3.63636" height="3.63636" transform="translate(25.1818 36.3636)" fill="#C18815"/>
<rect width="3.63636" height="3.63636" transform="translate(25.1818 40)" fill="#C18815"/>
<rect width="3.63636" height="3.63636" transform="translate(25.1818 43.6364)" fill="#C18815"/>
<rect width="3.63636" height="3.63636" transform="translate(25.1818 47.2727)" fill="#C18815"/>
<rect width="3.63636" height="3.63636" transform="translate(25.1818 50.9091)" fill="#C18815"/>
<rect width="3.63636" height="3.63636" transform="translate(28.8182 47.2727)" fill="#C18815"/>
<rect width="3.63636" height="3.63636" transform="translate(28.8182 50.9091)" fill="#C18815"/>
<rect width="3.63636" height="3.63636" transform="translate(28.8182 54.5455)" fill="#C18815"/>
<rect width="3.63636" height="3.63636" transform="translate(32.4545 54.5455)" fill="#C18815"/>
<rect width="3.63636" height="3.63636" transform="translate(36.0909 54.5455)" fill="#C18815"/>
<rect width="3.63636" height="3.63636" transform="translate(36.0909 58.1818)" fill="#C18815"/>
<rect width="3.63636" height="3.63636" transform="translate(36.0909 50.9091)" fill="#C18815"/>
<rect width="3.63636" height="3.63636" transform="translate(32.4545 50.9091)" fill="#C18815"/>
<rect width="3.63636" height="3.63636" transform="translate(32.4545 47.2727)" fill="#C18815"/>
<rect width="3.63636" height="3.63636" transform="translate(32.4545 43.6364)" fill="#C18815"/>
<rect width="3.63636" height="3.63636" transform="translate(32.4545 40)" fill="#C18815"/>
<rect width="3.63636" height="3.63636" transform="translate(32.4545 36.3636)" fill="#C18815"/>
<rect width="3.63636" height="3.63636" transform="translate(32.4545 32.7273)" fill="#C18815"/>
<rect width="3.63636" height="3.63636" transform="translate(32.4545 29.0909)" fill="#C18815"/>
<rect width="3.63636" height="3.63636" transform="translate(32.4545 25.4545)" fill="#C18815"/>
<rect width="3.63636" height="3.63636" transform="translate(28.8182 14.5455)" fill="#C18815"/>
<rect width="3.63636" height="3.63636" transform="translate(28.8182 18.1818)" fill="#C18815"/>
<rect width="3.63636" height="3.63636" transform="translate(28.8182 21.8182)" fill="#C18815"/>
<rect width="3.63636" height="3.63636" transform="translate(36.0909 47.2727)" fill="#C18815"/>
<rect width="3.63636" height="3.63636" transform="translate(36.0909 43.6364)" fill="#C18815"/>
<rect width="3.63636" height="3.63636" transform="translate(36.0909 40)" fill="#C18815"/>
<rect width="3.63636" height="3.63636" transform="translate(36.0909 36.3636)" fill="#C18815"/>
<rect width="3.63636" height="3.63636" transform="translate(36.0909 32.7273)" fill="#C18815"/>
<rect width="3.63636" height="3.63636" transform="translate(36.0909 29.0909)" fill="#C18815"/>
<rect width="3.63636" height="3.63636" transform="translate(36.0909 25.4545)" fill="#C18815"/>
<rect width="3.63636" height="3.63636" transform="translate(32.4545 14.5455)" fill="#C18815"/>
<rect width="3.63636" height="3.63636" transform="translate(32.4545 18.1818)" fill="#C18815"/>
<rect width="3.63636" height="3.63636" transform="translate(32.4545 21.8182)" fill="#C18815"/>
<rect width="3.63636" height="3.63636" transform="translate(36.0909 14.5455)" fill="#C18815"/>
<rect width="3.63636" height="3.63636" transform="translate(36.0909 18.1818)" fill="#C18815"/>
<rect width="3.63636" height="3.63636" transform="translate(36.0909 21.8182)" fill="#C18815"/>
<rect width="3.63636" height="3.63636" transform="translate(39.7273 14.5455)" fill="#C18815"/>
<rect width="3.63636" height="3.63636" transform="translate(39.7273 18.1818)" fill="#C18815"/>
<rect width="3.63636" height="3.63636" transform="translate(39.7273 21.8182)" fill="#C18815"/>
<rect width="3.63636" height="3.63636" transform="translate(39.7273 25.4545)" fill="#C18815"/>
<rect width="3.63636" height="3.63636" transform="translate(43.3636 25.4545)" fill="#C18815"/>
<rect width="3.63636" height="3.63636" transform="translate(47 25.4545)" fill="#C18815"/>
<rect width="3.63636" height="3.63636" transform="translate(50.6364 18.1818)" fill="#C18815"/>
<rect width="3.63636" height="3.63636" transform="translate(54.2727 18.1818)" fill="#C18815"/>
<rect width="3.63636" height="3.63636" transform="translate(54.2727 21.8182)" fill="#C18815"/>
<rect width="3.63636" height="3.63636" transform="translate(54.2727 25.4545)" fill="#C18815"/>
<rect width="3.63636" height="3.63636" transform="translate(54.2727 29.0909)" fill="#C18815"/>
<rect width="3.63636" height="3.63636" transform="translate(54.2727 32.7273)" fill="#C18815"/>
<rect width="3.63636" height="3.63636" transform="translate(50.6364 32.7273)" fill="#C18815"/>
<rect width="3.63636" height="3.63636" transform="translate(50.6364 29.0909)" fill="#C18815"/>
<rect width="3.63636" height="3.63636" transform="translate(47 29.0909)" fill="#C18815"/>
<rect width="3.63636" height="3.63636" transform="translate(47 32.7273)" fill="#C18815"/>
<rect width="3.63636" height="3.63636" transform="translate(43.3636 32.7273)" fill="#C18815"/>
<rect width="3.63636" height="3.63636" transform="translate(43.3636 36.3636)" fill="#C18815"/>
<rect width="3.63636" height="3.63636" transform="translate(43.3636 40)" fill="#C18815"/>
<rect width="3.63636" height="3.63636" transform="translate(47 40)" fill="#C18815"/>
<rect width="3.63636" height="3.63636" transform="translate(50.6364 40)" fill="#C18815"/>
<rect width="3.63636" height="3.63636" transform="translate(50.6364 43.6364)" fill="#C18815"/>
<rect width="3.63636" height="3.63636" transform="translate(50.6364 47.2727)" fill="#C18815"/>
<rect width="3.63636" height="3.63636" transform="translate(50.6364 50.9091)" fill="#C18815"/>
<rect width="3.63636" height="3.63636" transform="translate(50.6364 54.5455)" fill="#C18815"/>
<rect width="3.63636" height="3.63636" transform="translate(50.6364 58.1818)" fill="#C18815"/>
<rect width="3.63636" height="3.63636" transform="translate(47 58.1818)" fill="#C18815"/>
<rect width="3.63636" height="3.63636" transform="translate(47 54.5455)" fill="#C18815"/>
<rect width="3.63636" height="3.63636" transform="translate(47 50.9091)" fill="#C18815"/>
<rect width="3.63636" height="3.63636" transform="translate(47 47.2727)" fill="#C18815"/>
<rect width="3.63636" height="3.63636" transform="translate(47 43.6364)" fill="#C18815"/>
<rect width="3.63636" height="3.63636" transform="translate(43.3636 43.6364)" fill="#C18815"/>
<rect width="3.63636" height="3.63636" transform="translate(47 36.3636)" fill="#C18815"/>
<rect width="3.63636" height="3.63636" transform="translate(50.6364 36.3636)" fill="#C18815"/>
<rect width="3.63636" height="3.63636" transform="translate(43.3636 14.5455)" fill="#C18815"/>
<rect width="3.63636" height="3.63636" transform="translate(43.3636 18.1818)" fill="#C18815"/>
<rect width="3.63636" height="3.63636" transform="translate(43.3636 21.8182)" fill="#C18815"/>
<rect width="3.63636" height="3.63636" transform="translate(39.7273 54.5455)" fill="#C18815"/>
<rect width="3.63636" height="3.63636" transform="translate(39.7273 58.1818)" fill="#C18815"/>
<rect width="3.63636" height="3.63636" transform="translate(39.7273 50.9091)" fill="#C18815"/>
<rect width="3.63636" height="3.63636" transform="translate(43.3636 50.9091)" fill="#8E5F0F"/>
<rect width="3.63636" height="3.63636" transform="translate(43.3636 47.2727)" fill="#8E5F0F"/>
<rect width="3.63636" height="3.63636" transform="translate(43.3636 54.5455)" fill="#8E5F0F"/>
<rect width="3.63636" height="3.63636" transform="translate(43.3636 58.1818)" fill="#8E5F0F"/>
<rect width="3.63636" height="3.63636" transform="translate(43.3636 61.8182)" fill="#8E5F0F"/>
<rect width="3.63636" height="3.63636" transform="translate(39.7273 61.8182)" fill="#9D7007"/>
<rect width="3.63636" height="3.63636" transform="translate(36.0909 61.8182)" fill="#9D7007"/>
<rect width="3.63636" height="3.63636" transform="translate(32.4545 61.8182)" fill="#9D7007"/>
<rect width="3.63636" height="3.63636" transform="translate(32.4545 58.1818)" fill="#9D7007"/>
<rect width="3.63636" height="3.63636" transform="translate(28.8182 58.1818)" fill="#9D7007"/>
<rect width="3.63636" height="3.63636" transform="translate(25.1818 58.1818)" fill="#9D7007"/>
<rect width="3.63636" height="3.63636" transform="translate(25.1818 54.5455)" fill="#9D7007"/>
<rect width="3.63636" height="3.63636" transform="translate(21.5455 54.5455)" fill="#9D7007"/>
<rect width="3.63636" height="3.63636" transform="translate(21.5455 50.9091)" fill="#9D7007"/>
<rect width="3.63636" height="3.63636" transform="translate(21.5455 47.2727)" fill="#9D7007"/>
<rect width="3.63636" height="3.63636" transform="translate(21.5455 43.6364)" fill="#9D7007"/>
<rect width="3.63636" height="3.63636" transform="translate(21.5455 40)" fill="#9D7007"/>
<rect width="3.63636" height="3.63636" transform="translate(21.5455 36.3636)" fill="#9D7007"/>
<rect width="3.63636" height="3.63636" transform="translate(17.9091 36.3636)" fill="#9D7007"/>
<rect width="3.63636" height="3.63636" transform="translate(17.9091 32.7273)" fill="#9D7007"/>
<rect width="3.63636" height="3.63636" transform="translate(17.9091 29.0909)" fill="#9D7007"/>
<rect width="3.63636" height="3.63636" transform="translate(17.9091 25.4545)" fill="#9D7007"/>
<rect width="3.63636" height="3.63636" transform="translate(17.9091 21.8182)" fill="#9D7007"/>
<rect width="3.63636" height="3.63636" transform="translate(39.7273 47.2727)" fill="#8E5F0F"/>
<rect width="3.63636" height="3.63636" transform="translate(39.7273 43.6364)" fill="#8E5F0F"/>
<rect width="3.63636" height="3.63636" transform="translate(39.7273 40)" fill="#8E5F0F"/>
<rect width="3.63636" height="3.63636" transform="translate(39.7273 36.3636)" fill="#8E5F0F"/>
<rect width="3.63636" height="3.63636" transform="translate(39.7273 32.7273)" fill="#8E5F0F"/>
<rect width="3.63636" height="3.63636" transform="translate(39.7273 29.0909)" fill="#8E5F0F"/>
<rect width="3.63636" height="3.63636" transform="translate(43.3636 29.0909)" fill="#8E5F0F"/>
<rect width="3.63636" height="3.63636" transform="translate(50.6364 25.4545)" fill="#8E5F0F"/>
<rect width="3.63636" height="3.63636" transform="translate(50.6364 21.8182)" fill="#8E5F0F"/>
<rect width="3.63636" height="3.63636" transform="translate(47 21.8182)" fill="#8E5F0F"/>
<rect width="3.63636" height="3.63636" transform="translate(47 18.1818)" fill="#8E5F0F"/>
<rect width="3.63636" height="3.63636" transform="translate(47 14.5455)" fill="#8E5F0F"/>
<rect width="3.63636" height="3.63636" transform="translate(25.1818 14.5455)" fill="#8E5F0F"/>
<rect width="3.63636" height="3.63636" transform="translate(25.1818 18.1818)" fill="#8E5F0F"/>
<rect width="3.63636" height="3.63636" transform="translate(25.1818 21.8182)" fill="#8E5F0F"/>
<rect width="3.63636" height="3.63636" transform="translate(25.1818 25.4545)" fill="#8E5F0F"/>
<rect width="3.63636" height="3.63636" transform="translate(28.8182 25.4545)" fill="#8E5F0F"/>
<rect width="3.63636" height="3.63636" transform="translate(28.8182 29.0909)" fill="#8E5F0F"/>
<rect width="3.63636" height="3.63636" transform="translate(28.8182 32.7273)" fill="#8E5F0F"/>
<rect width="3.63636" height="3.63636" transform="translate(28.8182 36.3636)" fill="#8E5F0F"/>
<rect width="3.63636" height="3.63636" transform="translate(28.8182 40)" fill="#8E5F0F"/>
<rect width="3.63636" height="3.63636" transform="translate(28.8182 43.6364)" fill="#8E5F0F"/>
<rect width="3.63636" height="3.63636" transform="translate(57.9091 18.1818)" fill="#FCDCA9"/>
<rect width="3.63636" height="3.63636" transform="translate(57.9091 21.8182)" fill="#FCDCA9"/>
<rect width="3.63636" height="3.63636" transform="translate(57.9091 25.4545)" fill="#FCDCA9"/>
<rect width="3.63636" height="3.63636" transform="translate(57.9091 29.0909)" fill="#FCDCA9"/>
<rect width="3.63636" height="3.63636" transform="translate(57.9091 32.7273)" fill="#FCDCA9"/>
<rect width="3.63636" height="3.63636" transform="translate(54.2727 36.3636)" fill="#FCDCA9"/>
<rect width="3.63636" height="3.63636" transform="translate(54.2727 40)" fill="#FCDCA9"/>
<rect width="3.63636" height="3.63636" transform="translate(54.2727 43.6364)" fill="#FCDCA9"/>
<rect width="3.63636" height="3.63636" transform="translate(54.2727 47.2727)" fill="#FCDCA9"/>
<rect width="3.63636" height="3.63636" transform="translate(54.2727 50.9091)" fill="#FCDCA9"/>
<rect width="3.63636" height="3.63636" transform="translate(54.2727 54.5455)" fill="#FCDCA9"/>
<rect width="3.63636" height="3.63636" transform="translate(57.9091 10.9091)" fill="#3A3A3A"/>
<rect width="3.63636" height="3.63636" transform="translate(61.5455 10.9091)" fill="#6B88AC"/>
<rect width="3.63636" height="3.63636" transform="translate(57.9091 7.27272)" fill="#6B88AC"/>
<rect width="3.63636" height="3.63636" transform="translate(54.2727 7.27272)" fill="#6B88AC"/>
<rect width="3.63636" height="3.63636" transform="translate(50.6364 7.27272)" fill="#6B88AC"/>
<rect width="3.63636" height="3.63636" transform="translate(47 7.27272)" fill="#6B88AC"/>
<rect width="3.63636" height="3.63636" transform="translate(43.3636 7.27272)" fill="#6B88AC"/>
<rect width="3.63636" height="3.63636" transform="translate(43.3636 3.63637)" fill="#6B88AC"/>
<rect width="3.63636" height="3.63636" transform="translate(39.7273 3.63637)" fill="#6B88AC"/>
<rect width="3.63636" height="3.63636" transform="translate(36.0909 3.63637)" fill="#6B88AC"/>
<rect width="3.63636" height="3.63636" transform="translate(32.4545 3.63637)" fill="#6B88AC"/>
<rect width="3.63636" height="3.63636" transform="translate(32.4545 7.27272)" fill="#6B88AC"/>
<rect width="3.63636" height="3.63636" transform="translate(28.8182 7.27272)" fill="#6B88AC"/>
<rect width="3.63636" height="3.63636" transform="translate(25.1818 7.27272)" fill="#6B88AC"/>
<rect width="3.63636" height="3.63636" transform="translate(21.5455 7.27272)" fill="#6B88AC"/>
<rect width="3.63636" height="3.63636" transform="translate(17.9091 7.27272)" fill="#6B88AC"/>
<rect width="3.63636" height="3.63636" transform="translate(14.2727 7.27272)" fill="#526A86"/>
<rect width="3.63636" height="3.63636" transform="translate(14.2727 10.9091)" fill="#526A86"/>
<rect width="3.63636" height="3.63636" transform="translate(10.6364 7.27272)" fill="#526A86"/>
<rect width="3.63636" height="3.63636" transform="translate(10.6364 10.9091)" fill="#526A86"/>
<rect width="3.63636" height="3.63636" transform="translate(10.6364 14.5455)" fill="#526A86"/>
<rect width="3.63636" height="3.63636" transform="translate(10.6364 18.1818)" fill="#526A86"/>
<rect width="3.63636" height="3.63636" transform="translate(10.6364 21.8182)" fill="#526A86"/>
<rect width="3.63636" height="3.63636" transform="translate(10.6364 25.4545)" fill="#526A86"/>
<rect width="3.63636" height="3.63636" transform="translate(10.6364 29.0909)" fill="#526A86"/>
<rect width="3.63636" height="3.63636" transform="translate(10.6364 32.7273)" fill="#526A86"/>
<rect width="3.63636" height="3.63636" transform="translate(10.6364 36.3636)" fill="#526A86"/>
<rect width="3.63636" height="3.63636" transform="translate(10.6364 40)" fill="#526A86"/>
<rect width="3.63636" height="3.63636" transform="translate(14.2727 40)" fill="#526A86"/>
<rect width="3.63636" height="3.63636" transform="translate(14.2727 43.6364)" fill="#526A86"/>
<rect width="3.63636" height="3.63636" transform="translate(14.2727 47.2727)" fill="#526A86"/>
<rect width="3.63636" height="3.63636" transform="translate(14.2727 50.9091)" fill="#526A86"/>
<rect width="3.63636" height="3.63636" transform="translate(14.2727 54.5455)" fill="#526A86"/>
<rect width="3.63636" height="3.63636" transform="translate(14.2727 58.1818)" fill="#526A86"/>
<rect width="3.63636" height="3.63636" transform="translate(17.9091 58.1818)" fill="#526A86"/>
<rect width="3.63636" height="3.63636" transform="translate(17.9091 61.8182)" fill="#526A86"/>
<rect width="3.63636" height="3.63636" transform="translate(21.5455 61.8182)" fill="#526A86"/>
<rect width="3.63636" height="3.63636" transform="translate(21.5455 65.4545)" fill="#526A86"/>
<rect width="3.63636" height="3.63636" transform="translate(25.1818 65.4545)" fill="#526A86"/>
<rect width="3.63636" height="3.63636" transform="translate(28.8182 65.4545)" fill="#526A86"/>
<rect width="3.63636" height="3.63636" transform="translate(28.8182 69.0909)" fill="#526A86"/>
<rect width="3.63636" height="3.63636" transform="translate(32.4545 69.0909)" fill="#526A86"/>
<rect width="3.63636" height="3.63636" transform="translate(36.0909 69.0909)" fill="#526A86"/>
<rect width="3.63636" height="3.63636" transform="translate(39.7273 69.0909)" fill="#526A86"/>
<rect width="3.63636" height="3.63636" transform="translate(43.3636 69.0909)" fill="#526A86"/>
<rect width="3.63636" height="3.63636" transform="translate(32.4545 72.7273)" fill="#526A86"/>
<rect width="3.63636" height="3.63636" transform="translate(36.0909 72.7273)" fill="#526A86"/>
<rect width="3.63636" height="3.63636" transform="translate(39.7273 72.7273)" fill="#526A86"/>
<rect width="3.63636" height="3.63636" transform="translate(43.3636 72.7273)" fill="#526A86"/>
<rect width="3.63636" height="3.63636" transform="translate(47 69.0909)" fill="#6B85A9"/>
<rect width="3.63636" height="3.63636" transform="translate(47 65.4545)" fill="#6B85A9"/>
<rect width="3.63636" height="3.63636" transform="translate(50.6364 65.4545)" fill="#6B85A9"/>
<rect width="3.63636" height="3.63636" transform="translate(54.2727 61.8182)" fill="#6B85A9"/>
<rect width="3.63636" height="3.63636" transform="translate(54.2727 65.4545)" fill="#C2C9D1"/>
<rect width="3.63636" height="3.63636" transform="translate(57.9091 61.8182)" fill="#C2C9D1"/>
<rect width="3.63636" height="3.63636" transform="translate(57.9091 58.1818)" fill="#C2C9D1"/>
<rect width="3.63636" height="3.63636" transform="translate(61.5455 58.1818)" fill="#C2C9D1"/>
<rect width="3.63636" height="3.63636" transform="translate(61.5455 54.5455)" fill="#C2C9D1"/>
<rect width="3.63636" height="3.63636" transform="translate(61.5455 50.9091)" fill="#C2C9D1"/>
<rect width="3.63636" height="3.63636" transform="translate(61.5455 47.2727)" fill="#C2C9D1"/>
<rect width="3.63636" height="3.63636" transform="translate(61.5455 43.6364)" fill="#C2C9D1"/>
<rect width="3.63636" height="3.63636" transform="translate(61.5455 40)" fill="#C2C9D1"/>
<rect width="3.63636" height="3.63636" transform="translate(61.5455 36.3636)" fill="#C2C9D1"/>
<rect width="3.63636" height="3.63636" transform="translate(65.1818 36.3636)" fill="#C2C9D1"/>
<rect width="3.63636" height="3.63636" transform="translate(65.1818 32.7273)" fill="#C2C9D1"/>
<rect width="3.63636" height="3.63636" transform="translate(65.1818 29.0909)" fill="#C2C9D1"/>
<rect width="3.63636" height="3.63636" transform="translate(65.1818 25.4545)" fill="#C2C9D1"/>
<rect width="3.63636" height="3.63636" transform="translate(65.1818 21.8182)" fill="#C2C9D1"/>
<rect width="3.63636" height="3.63636" transform="translate(65.1818 18.1818)" fill="#C2C9D1"/>
<rect width="3.63636" height="3.63636" transform="translate(65.1818 14.5455)" fill="#C2C9D1"/>
<rect width="3.63636" height="3.63636" transform="translate(65.1818 10.9091)" fill="#C2C9D1"/>
<rect width="3.63636" height="3.63636" transform="translate(65.1818 7.27272)" fill="#C2C9D1"/>
<rect width="3.63636" height="3.63636" transform="translate(61.5455 7.27272)" fill="#C2C9D1"/>
<rect width="3.63636" height="3.63636" transform="translate(54.2727 10.9091)" fill="#3A3A3A"/>
<rect width="3.63636" height="3.63636" transform="translate(50.6364 10.9091)" fill="#3A3A3A"/>
<rect width="3.63636" height="3.63636" transform="translate(47 10.9091)" fill="#3A3A3A"/>
<rect width="3.63636" height="3.63636" transform="translate(43.3636 10.9091)" fill="#3A3A3A"/>
<rect width="3.63636" height="3.63636" transform="translate(39.7273 7.27272)" fill="#3A3A3A"/>
<rect width="3.63636" height="3.63636" transform="translate(36.0909 7.27272)" fill="#3A3A3A"/>
<rect width="3.63636" height="3.63636" transform="translate(7 18.1818)" fill="#151515"/>
<rect width="3.63636" height="3.63636" transform="translate(7 21.8182)" fill="#151515"/>
<rect width="3.63636" height="3.63636" transform="translate(7 25.4545)" fill="#151515"/>
<rect width="3.63636" height="3.63636" transform="translate(7 29.0909)" fill="#151515"/>
<rect width="3.63636" height="3.63636" transform="translate(7 32.7273)" fill="#151515"/>
<rect width="3.63636" height="3.63636" transform="translate(7 36.3636)" fill="#151515"/>
<rect width="3.63636" height="3.63636" transform="translate(7 40)" fill="#151515"/>
<rect width="3.63636" height="3.63636" transform="translate(10.6364 43.6364)" fill="#151515"/>
<rect width="3.63636" height="3.63636" transform="translate(10.6364 47.2727)" fill="#151515"/>
<rect width="3.63636" height="3.63636" transform="translate(10.6364 50.9091)" fill="#151515"/>
<rect width="3.63636" height="3.63636" transform="translate(10.6364 54.5455)" fill="#151515"/>
<rect width="3.63636" height="3.63636" transform="translate(10.6364 58.1818)" fill="#151515"/>
</svg>
