<svg width="81" height="81" viewBox="0 0 81 81" fill="none" xmlns="http://www.w3.org/2000/svg">
<rect width="4" height="4" fill="black"/>
<rect x="36" width="4" height="4" fill="black"/>
<rect x="40" width="4" height="4" fill="black"/>
<rect x="77" width="4" height="4" fill="black"/>
<rect x="77" y="77" width="4" height="4" fill="black"/>
<rect x="41" y="77" width="4" height="4" fill="black"/>
<rect x="37" y="77" width="4" height="4" fill="black"/>
<rect y="77" width="4" height="4" fill="black"/>
<rect x="32" y="4" width="4" height="4" fill="#127D4E"/>
<rect x="72" y="4" width="4" height="4" fill="#127D4E"/>
<rect x="73" y="44" width="4" height="4" fill="#127D4E"/>
<rect x="32" y="44" width="4" height="4" fill="#127D4E"/>
<rect x="32" y="16" width="4" height="4" fill="#127D4E"/>
<rect x="72" y="16" width="4" height="4" fill="#127D4E"/>
<rect x="73" y="56" width="4" height="4" fill="#127D4E"/>
<rect x="32" y="56" width="4" height="4" fill="#127D4E"/>
<rect x="28" y="16" width="4" height="4" fill="#127D4E"/>
<rect x="68" y="16" width="4" height="4" fill="#127D4E"/>
<rect x="69" y="56" width="4" height="4" fill="#127D4E"/>
<rect x="28" y="56" width="4" height="4" fill="#127D4E"/>
<rect x="16" y="20" width="4" height="4" fill="#127D4E"/>
<rect x="56" y="20" width="4" height="4" fill="#127D4E"/>
<rect x="57" y="60" width="4" height="4" fill="#127D4E"/>
<rect x="16" y="60" width="4" height="4" fill="#127D4E"/>
<rect x="26" y="31" width="4" height="4" fill="#127D4E"/>
<rect x="66" y="31" width="4" height="4" fill="#127D4E"/>
<rect x="67" y="71" width="4" height="4" fill="#127D4E"/>
<rect x="26" y="71" width="4" height="4" fill="#127D4E"/>
<rect x="36" y="20" width="4" height="4" fill="#127D4E"/>
<rect x="76" y="20" width="4" height="4" fill="#127D4E"/>
<rect x="77" y="60" width="4" height="4" fill="#127D4E"/>
<rect x="36" y="60" width="4" height="4" fill="#127D4E"/>
<rect x="12" width="4" height="4" fill="#127D4E"/>
<rect x="52" width="4" height="4" fill="#127D4E"/>
<rect x="53" y="40" width="4" height="4" fill="#127D4E"/>
<rect x="12" y="40" width="4" height="4" fill="#127D4E"/>
<rect x="4" y="12" width="4" height="4" fill="#127D4E"/>
<rect x="44" y="12" width="4" height="4" fill="#127D4E"/>
<rect x="45" y="52" width="4" height="4" fill="#127D4E"/>
<rect x="4" y="52" width="4" height="4" fill="#127D4E"/>
<rect x="4" y="8" width="4" height="4" fill="#127D4E"/>
<rect x="44" y="8" width="4" height="4" fill="#127D4E"/>
<rect x="45" y="48" width="4" height="4" fill="#127D4E"/>
<rect x="4" y="48" width="4" height="4" fill="#127D4E"/>
<rect x="4" y="4" width="4" height="4" fill="#127D4E"/>
<rect x="44" y="4" width="4" height="4" fill="#127D4E"/>
<rect x="45" y="44" width="4" height="4" fill="#127D4E"/>
<rect x="4" y="44" width="4" height="4" fill="#127D4E"/>
<rect x="4" y="16" width="4" height="4" fill="#34C12A"/>
<rect x="44" y="16" width="4" height="4" fill="#34C12A"/>
<rect x="45" y="56" width="4" height="4" fill="#34C12A"/>
<rect x="4" y="56" width="4" height="4" fill="#34C12A"/>
<rect x="4" y="20" width="4" height="4" fill="#127D4E"/>
<rect x="44" y="20" width="4" height="4" fill="#127D4E"/>
<rect x="45" y="60" width="4" height="4" fill="#127D4E"/>
<rect x="4" y="60" width="4" height="4" fill="#127D4E"/>
<rect x="4" y="24" width="4" height="4" fill="#127D4E"/>
<rect x="44" y="24" width="4" height="4" fill="#127D4E"/>
<rect x="45" y="64" width="4" height="4" fill="#127D4E"/>
<rect x="4" y="64" width="4" height="4" fill="#127D4E"/>
<rect x="4" y="28" width="4" height="4" fill="#127D4E"/>
<rect x="44" y="28" width="4" height="4" fill="#127D4E"/>
<rect x="45" y="68" width="4" height="4" fill="#127D4E"/>
<rect x="4" y="68" width="4" height="4" fill="#127D4E"/>
<rect x="16" width="4" height="4" fill="#127D4E"/>
<rect x="56" width="4" height="4" fill="#127D4E"/>
<rect x="57" y="40" width="4" height="4" fill="#127D4E"/>
<rect x="16" y="40" width="4" height="4" fill="#127D4E"/>
<rect x="8" y="12" width="4" height="4" fill="#127D4E"/>
<rect x="48" y="12" width="4" height="4" fill="#127D4E"/>
<rect x="49" y="52" width="4" height="4" fill="#127D4E"/>
<rect x="8" y="52" width="4" height="4" fill="#127D4E"/>
<rect x="8" y="8" width="4" height="4" fill="#127D4E"/>
<rect x="48" y="8" width="4" height="4" fill="#127D4E"/>
<rect x="49" y="48" width="4" height="4" fill="#127D4E"/>
<rect x="8" y="48" width="4" height="4" fill="#127D4E"/>
<rect x="8" y="4" width="4" height="4" fill="#127D4E"/>
<rect x="48" y="4" width="4" height="4" fill="#127D4E"/>
<rect x="49" y="44" width="4" height="4" fill="#127D4E"/>
<rect x="8" y="44" width="4" height="4" fill="#127D4E"/>
<rect x="8" y="16" width="4" height="4" fill="#127D4E"/>
<rect x="48" y="16" width="4" height="4" fill="#127D4E"/>
<rect x="49" y="56" width="4" height="4" fill="#127D4E"/>
<rect x="8" y="56" width="4" height="4" fill="#127D4E"/>
<rect x="8" y="20" width="4" height="4" fill="#127D4E"/>
<rect x="48" y="20" width="4" height="4" fill="#127D4E"/>
<rect x="49" y="60" width="4" height="4" fill="#127D4E"/>
<rect x="8" y="60" width="4" height="4" fill="#127D4E"/>
<rect x="8" y="24" width="4" height="4" fill="#127D4E"/>
<rect x="48" y="24" width="4" height="4" fill="#127D4E"/>
<rect x="49" y="64" width="4" height="4" fill="#127D4E"/>
<rect x="8" y="64" width="4" height="4" fill="#127D4E"/>
<rect x="8" y="28" width="4" height="4" fill="#127D4E"/>
<rect x="48" y="28" width="4" height="4" fill="#127D4E"/>
<rect x="49" y="68" width="4" height="4" fill="#127D4E"/>
<rect x="8" y="68" width="4" height="4" fill="#127D4E"/>
<rect x="12" y="28" width="4" height="4" fill="#127D4E"/>
<rect x="52" y="28" width="4" height="4" fill="#127D4E"/>
<rect x="53" y="68" width="4" height="4" fill="#127D4E"/>
<rect x="12" y="68" width="4" height="4" fill="#127D4E"/>
<rect x="12" y="16" width="4" height="4" fill="#127D4E"/>
<rect x="52" y="16" width="4" height="4" fill="#127D4E"/>
<rect x="53" y="56" width="4" height="4" fill="#127D4E"/>
<rect x="12" y="56" width="4" height="4" fill="#127D4E"/>
<rect x="20" width="4" height="4" fill="#127D4E"/>
<rect x="60" width="4" height="4" fill="#127D4E"/>
<rect x="61" y="40" width="4" height="4" fill="#127D4E"/>
<rect x="20" y="40" width="4" height="4" fill="#127D4E"/>
<rect x="12" y="12" width="4" height="4" fill="#127D4E"/>
<rect x="52" y="12" width="4" height="4" fill="#127D4E"/>
<rect x="53" y="52" width="4" height="4" fill="#127D4E"/>
<rect x="12" y="52" width="4" height="4" fill="#127D4E"/>
<rect x="12" y="8" width="4" height="4" fill="#127D4E"/>
<rect x="52" y="8" width="4" height="4" fill="#127D4E"/>
<rect x="53" y="48" width="4" height="4" fill="#127D4E"/>
<rect x="12" y="48" width="4" height="4" fill="#127D4E"/>
<rect x="12" y="4" width="4" height="4" fill="#127D4E"/>
<rect x="52" y="4" width="4" height="4" fill="#127D4E"/>
<rect x="53" y="44" width="4" height="4" fill="#127D4E"/>
<rect x="12" y="44" width="4" height="4" fill="#127D4E"/>
<rect x="24" width="4" height="4" fill="#127D4E"/>
<rect x="64" width="4" height="4" fill="#127D4E"/>
<rect x="65" y="40" width="4" height="4" fill="#127D4E"/>
<rect x="24" y="40" width="4" height="4" fill="#127D4E"/>
<rect x="16" y="12" width="4" height="4" fill="#127D4E"/>
<rect x="56" y="12" width="4" height="4" fill="#127D4E"/>
<rect x="57" y="52" width="4" height="4" fill="#127D4E"/>
<rect x="16" y="52" width="4" height="4" fill="#127D4E"/>
<rect x="28" width="4" height="4" fill="#127D4E"/>
<rect x="68" width="4" height="4" fill="#127D4E"/>
<rect x="69" y="40" width="4" height="4" fill="#127D4E"/>
<rect x="28" y="40" width="4" height="4" fill="#127D4E"/>
<rect x="20" y="12" width="4" height="4" fill="#127D4E"/>
<rect x="60" y="12" width="4" height="4" fill="#127D4E"/>
<rect x="61" y="52" width="4" height="4" fill="#127D4E"/>
<rect x="20" y="52" width="4" height="4" fill="#127D4E"/>
<rect x="20" y="8" width="4" height="4" fill="#127D4E"/>
<rect x="60" y="8" width="4" height="4" fill="#127D4E"/>
<rect x="61" y="48" width="4" height="4" fill="#127D4E"/>
<rect x="20" y="48" width="4" height="4" fill="#127D4E"/>
<rect x="20" y="4" width="4" height="4" fill="#127D4E"/>
<rect x="60" y="4" width="4" height="4" fill="#127D4E"/>
<rect x="61" y="44" width="4" height="4" fill="#127D4E"/>
<rect x="20" y="44" width="4" height="4" fill="#127D4E"/>
<rect x="16" y="37" width="4" height="4" fill="#127D4E"/>
<rect x="56" y="37" width="4" height="4" fill="#127D4E"/>
<rect x="57" y="77" width="4" height="4" fill="#127D4E"/>
<rect x="16" y="77" width="4" height="4" fill="#127D4E"/>
<rect x="8" y="37" width="4" height="4" fill="#34C12A"/>
<rect x="48" y="37" width="4" height="4" fill="#34C12A"/>
<rect x="49" y="77" width="4" height="4" fill="#34C12A"/>
<rect x="8" y="77" width="4" height="4" fill="#34C12A"/>
<rect x="12" y="37" width="4" height="4" fill="#34C12A"/>
<rect x="52" y="37" width="4" height="4" fill="#34C12A"/>
<rect x="53" y="77" width="4" height="4" fill="#34C12A"/>
<rect x="12" y="77" width="4" height="4" fill="#34C12A"/>
<rect y="32" width="4" height="4" fill="#34C12A"/>
<rect x="40" y="32" width="4" height="4" fill="#34C12A"/>
<rect x="41" y="72" width="4" height="4" fill="#34C12A"/>
<rect y="72" width="4" height="4" fill="#34C12A"/>
<rect x="4" y="32" width="4" height="4" fill="#34C12A"/>
<rect x="44" y="32" width="4" height="4" fill="#34C12A"/>
<rect x="45" y="72" width="4" height="4" fill="#34C12A"/>
<rect x="4" y="72" width="4" height="4" fill="#34C12A"/>
<rect x="8" y="32" width="4" height="4" fill="#34C12A"/>
<rect x="48" y="32" width="4" height="4" fill="#34C12A"/>
<rect x="49" y="72" width="4" height="4" fill="#34C12A"/>
<rect x="8" y="72" width="4" height="4" fill="#34C12A"/>
<rect x="12" y="32" width="4" height="4" fill="#34C12A"/>
<rect x="52" y="32" width="4" height="4" fill="#34C12A"/>
<rect x="53" y="72" width="4" height="4" fill="#34C12A"/>
<rect x="12" y="72" width="4" height="4" fill="#34C12A"/>
<rect x="16" y="32" width="4" height="4" fill="#34C12A"/>
<rect x="56" y="32" width="4" height="4" fill="#34C12A"/>
<rect x="57" y="72" width="4" height="4" fill="#34C12A"/>
<rect x="16" y="72" width="4" height="4" fill="#34C12A"/>
<rect x="20" y="32" width="4" height="4" fill="#34C12A"/>
<rect x="60" y="32" width="4" height="4" fill="#34C12A"/>
<rect x="61" y="72" width="4" height="4" fill="#34C12A"/>
<rect x="20" y="72" width="4" height="4" fill="#34C12A"/>
<rect x="16" y="28" width="4" height="4" fill="#34C12A"/>
<rect x="56" y="28" width="4" height="4" fill="#34C12A"/>
<rect x="57" y="68" width="4" height="4" fill="#34C12A"/>
<rect x="16" y="68" width="4" height="4" fill="#34C12A"/>
<rect x="16" y="24" width="4" height="4" fill="#34C12A"/>
<rect x="56" y="24" width="4" height="4" fill="#34C12A"/>
<rect x="57" y="64" width="4" height="4" fill="#34C12A"/>
<rect x="16" y="64" width="4" height="4" fill="#34C12A"/>
<rect x="12" y="20" width="4" height="4" fill="#34C12A"/>
<rect x="52" y="20" width="4" height="4" fill="#34C12A"/>
<rect x="53" y="60" width="4" height="4" fill="#34C12A"/>
<rect x="12" y="60" width="4" height="4" fill="#34C12A"/>
<rect x="16" y="16" width="4" height="4" fill="#34C12A"/>
<rect x="56" y="16" width="4" height="4" fill="#34C12A"/>
<rect x="57" y="56" width="4" height="4" fill="#34C12A"/>
<rect x="16" y="56" width="4" height="4" fill="#34C12A"/>
<rect x="20" y="16" width="4" height="4" fill="#34C12A"/>
<rect x="60" y="16" width="4" height="4" fill="#34C12A"/>
<rect x="61" y="56" width="4" height="4" fill="#34C12A"/>
<rect x="20" y="56" width="4" height="4" fill="#34C12A"/>
<rect x="32" width="4" height="4" fill="#34C12A"/>
<rect x="72" width="4" height="4" fill="#34C12A"/>
<rect x="73" y="40" width="4" height="4" fill="#34C12A"/>
<rect x="32" y="40" width="4" height="4" fill="#34C12A"/>
<rect x="32" y="8" width="4" height="4" fill="#34C12A"/>
<rect x="72" y="8" width="4" height="4" fill="#34C12A"/>
<rect x="73" y="48" width="4" height="4" fill="#34C12A"/>
<rect x="32" y="48" width="4" height="4" fill="#34C12A"/>
<rect x="32" y="12" width="4" height="4" fill="#34C12A"/>
<rect x="72" y="12" width="4" height="4" fill="#34C12A"/>
<rect x="73" y="52" width="4" height="4" fill="#34C12A"/>
<rect x="32" y="52" width="4" height="4" fill="#34C12A"/>
<rect x="36" y="8" width="4" height="4" fill="#34C12A"/>
<rect x="76" y="8" width="4" height="4" fill="#34C12A"/>
<rect x="77" y="48" width="4" height="4" fill="#34C12A"/>
<rect x="36" y="48" width="4" height="4" fill="#34C12A"/>
<rect x="36" y="12" width="4" height="4" fill="#34C12A"/>
<rect x="76" y="12" width="4" height="4" fill="#34C12A"/>
<rect x="77" y="52" width="4" height="4" fill="#34C12A"/>
<rect x="36" y="52" width="4" height="4" fill="#34C12A"/>
<rect x="36" y="16" width="4" height="4" fill="#34C12A"/>
<rect x="76" y="16" width="4" height="4" fill="#34C12A"/>
<rect x="77" y="56" width="4" height="4" fill="#34C12A"/>
<rect x="36" y="56" width="4" height="4" fill="#34C12A"/>
<rect x="36" y="25" width="4" height="4" fill="#34C12A"/>
<rect x="76" y="25" width="4" height="4" fill="#34C12A"/>
<rect x="77" y="65" width="4" height="4" fill="#34C12A"/>
<rect x="36" y="65" width="4" height="4" fill="#34C12A"/>
<rect x="36" y="29" width="4" height="4" fill="#34C12A"/>
<rect x="76" y="29" width="4" height="4" fill="#34C12A"/>
<rect x="77" y="69" width="4" height="4" fill="#34C12A"/>
<rect x="36" y="69" width="4" height="4" fill="#34C12A"/>
<rect x="36" y="33" width="4" height="4" fill="#34C12A"/>
<rect x="76" y="33" width="4" height="4" fill="#34C12A"/>
<rect x="77" y="73" width="4" height="4" fill="#34C12A"/>
<rect x="36" y="73" width="4" height="4" fill="#34C12A"/>
<rect x="28" y="25" width="4" height="4" fill="#34C12A"/>
<rect x="68" y="25" width="4" height="4" fill="#34C12A"/>
<rect x="69" y="65" width="4" height="4" fill="#34C12A"/>
<rect x="28" y="65" width="4" height="4" fill="#34C12A"/>
<rect x="24" y="25" width="4" height="4" fill="#34C12A"/>
<rect x="64" y="25" width="4" height="4" fill="#34C12A"/>
<rect x="65" y="65" width="4" height="4" fill="#34C12A"/>
<rect x="24" y="65" width="4" height="4" fill="#34C12A"/>
<rect x="20" y="25" width="4" height="4" fill="#34C12A"/>
<rect x="60" y="25" width="4" height="4" fill="#34C12A"/>
<rect x="61" y="65" width="4" height="4" fill="#34C12A"/>
<rect x="20" y="65" width="4" height="4" fill="#34C12A"/>
<rect x="20" y="20" width="4" height="4" fill="#34C12A"/>
<rect x="60" y="20" width="4" height="4" fill="#34C12A"/>
<rect x="61" y="60" width="4" height="4" fill="#34C12A"/>
<rect x="20" y="60" width="4" height="4" fill="#34C12A"/>
<rect x="24" y="20" width="4" height="4" fill="#34C12A"/>
<rect x="64" y="20" width="4" height="4" fill="#34C12A"/>
<rect x="65" y="60" width="4" height="4" fill="#34C12A"/>
<rect x="24" y="60" width="4" height="4" fill="#34C12A"/>
<rect x="28" y="20" width="4" height="4" fill="#34C12A"/>
<rect x="68" y="20" width="4" height="4" fill="#34C12A"/>
<rect x="69" y="60" width="4" height="4" fill="#34C12A"/>
<rect x="28" y="60" width="4" height="4" fill="#34C12A"/>
<rect x="32" y="20" width="4" height="4" fill="#34C12A"/>
<rect x="72" y="20" width="4" height="4" fill="#34C12A"/>
<rect x="73" y="60" width="4" height="4" fill="#34C12A"/>
<rect x="32" y="60" width="4" height="4" fill="#34C12A"/>
<rect x="28" y="12" width="4" height="4" fill="#34C12A"/>
<rect x="68" y="12" width="4" height="4" fill="#34C12A"/>
<rect x="69" y="52" width="4" height="4" fill="#34C12A"/>
<rect x="28" y="52" width="4" height="4" fill="#34C12A"/>
<rect x="28" y="8" width="4" height="4" fill="#34C12A"/>
<rect x="68" y="8" width="4" height="4" fill="#34C12A"/>
<rect x="69" y="48" width="4" height="4" fill="#34C12A"/>
<rect x="28" y="48" width="4" height="4" fill="#34C12A"/>
<rect x="28" y="4" width="4" height="4" fill="#34C12A"/>
<rect x="68" y="4" width="4" height="4" fill="#34C12A"/>
<rect x="69" y="44" width="4" height="4" fill="#34C12A"/>
<rect x="28" y="44" width="4" height="4" fill="#34C12A"/>
<rect x="32" y="33" width="4" height="4" fill="#34C12A"/>
<rect x="72" y="33" width="4" height="4" fill="#34C12A"/>
<rect x="73" y="73" width="4" height="4" fill="#34C12A"/>
<rect x="32" y="73" width="4" height="4" fill="#34C12A"/>
<rect x="32" y="29" width="4" height="4" fill="#34C12A"/>
<rect x="72" y="29" width="4" height="4" fill="#34C12A"/>
<rect x="73" y="69" width="4" height="4" fill="#34C12A"/>
<rect x="32" y="69" width="4" height="4" fill="#34C12A"/>
<rect x="32" y="25" width="4" height="4" fill="#34C12A"/>
<rect x="72" y="25" width="4" height="4" fill="#34C12A"/>
<rect x="73" y="65" width="4" height="4" fill="#34C12A"/>
<rect x="32" y="65" width="4" height="4" fill="#34C12A"/>
<rect x="36" y="4" width="4" height="4" fill="#34C12A"/>
<rect x="76" y="4" width="4" height="4" fill="#34C12A"/>
<rect x="77" y="44" width="4" height="4" fill="#34C12A"/>
<rect x="36" y="44" width="4" height="4" fill="#34C12A"/>
<rect x="16" y="6" width="4" height="4" fill="#34C12A"/>
<rect x="56" y="6" width="4" height="4" fill="#34C12A"/>
<rect x="57" y="46" width="4" height="4" fill="#34C12A"/>
<rect x="16" y="46" width="4" height="4" fill="#34C12A"/>
<rect x="20" y="37" width="4" height="4" fill="#34C12A"/>
<rect x="60" y="37" width="4" height="4" fill="#34C12A"/>
<rect x="61" y="77" width="4" height="4" fill="#34C12A"/>
<rect x="20" y="77" width="4" height="4" fill="#34C12A"/>
<rect x="24" y="37" width="4" height="4" fill="#34C12A"/>
<rect x="64" y="37" width="4" height="4" fill="#34C12A"/>
<rect x="65" y="77" width="4" height="4" fill="#34C12A"/>
<rect x="24" y="77" width="4" height="4" fill="#34C12A"/>
<rect x="28" y="37" width="4" height="4" fill="#34C12A"/>
<rect x="68" y="37" width="4" height="4" fill="#34C12A"/>
<rect x="69" y="77" width="4" height="4" fill="#34C12A"/>
<rect x="28" y="77" width="4" height="4" fill="#34C12A"/>
<rect x="32" y="37" width="4" height="4" fill="#34C12A"/>
<rect x="72" y="37" width="4" height="4" fill="#34C12A"/>
<rect x="73" y="77" width="4" height="4" fill="#34C12A"/>
<rect x="32" y="77" width="4" height="4" fill="#34C12A"/>
<rect x="8" width="4" height="4" fill="#127D4E"/>
<rect x="48" width="4" height="4" fill="#127D4E"/>
<rect x="49" y="40" width="4" height="4" fill="#127D4E"/>
<rect x="8" y="40" width="4" height="4" fill="#127D4E"/>
<rect y="12" width="4" height="4" fill="#127D4E"/>
<rect x="40" y="12" width="4" height="4" fill="#127D4E"/>
<rect x="41" y="52" width="4" height="4" fill="#127D4E"/>
<rect y="52" width="4" height="4" fill="#127D4E"/>
<rect y="8" width="4" height="4" fill="#127D4E"/>
<rect x="40" y="8" width="4" height="4" fill="#127D4E"/>
<rect x="41" y="48" width="4" height="4" fill="#127D4E"/>
<rect y="48" width="4" height="4" fill="#127D4E"/>
<rect y="4" width="4" height="4" fill="#127D4E"/>
<rect x="40" y="4" width="4" height="4" fill="#127D4E"/>
<rect x="41" y="44" width="4" height="4" fill="#127D4E"/>
<rect y="44" width="4" height="4" fill="#127D4E"/>
<rect y="16" width="4" height="4" fill="#127D4E"/>
<rect x="40" y="16" width="4" height="4" fill="#127D4E"/>
<rect x="41" y="56" width="4" height="4" fill="#127D4E"/>
<rect y="56" width="4" height="4" fill="#127D4E"/>
<rect y="20" width="4" height="4" fill="#127D4E"/>
<rect x="40" y="20" width="4" height="4" fill="#127D4E"/>
<rect x="41" y="60" width="4" height="4" fill="#127D4E"/>
<rect y="60" width="4" height="4" fill="#127D4E"/>
<rect y="24" width="4" height="4" fill="#127D4E"/>
<rect x="40" y="24" width="4" height="4" fill="#127D4E"/>
<rect x="41" y="64" width="4" height="4" fill="#127D4E"/>
<rect y="64" width="4" height="4" fill="#127D4E"/>
<rect y="28" width="4" height="4" fill="#127D4E"/>
<rect x="40" y="28" width="4" height="4" fill="#127D4E"/>
<rect x="41" y="68" width="4" height="4" fill="#127D4E"/>
<rect y="68" width="4" height="4" fill="#127D4E"/>
<rect x="77" y="36" width="4" height="4" fill="black"/>
<rect x="77" y="40" width="4" height="4" fill="black"/>
<rect y="40" width="4" height="4" fill="black"/>
<rect y="36" width="4" height="4" fill="black"/>
<rect x="36" y="36" width="4" height="4" fill="black"/>
<rect x="40" y="36" width="4" height="4" fill="black"/>
<rect x="40" y="40" width="4" height="4" fill="black"/>
<rect x="36" y="40" width="4" height="4" fill="black"/>
</svg>
