<svg width="81" height="81" viewBox="0 0 81 81" fill="none" xmlns="http://www.w3.org/2000/svg">
<rect width="81" height="81" fill="#A3A3A3"/>
<rect width="4" height="4" transform="translate(77 5)" fill="#727272"/>
<rect width="4" height="4" transform="translate(77 45)" fill="#727272"/>
<rect width="4" height="4" transform="translate(36 45)" fill="#727272"/>
<rect width="4" height="4" transform="translate(77 9)" fill="#727272"/>
<rect width="4" height="4" transform="translate(77 49)" fill="#727272"/>
<rect width="4" height="4" transform="translate(36 49)" fill="#727272"/>
<rect width="4" height="4" transform="translate(77 13)" fill="#727272"/>
<rect width="4" height="4" transform="translate(77 53)" fill="#727272"/>
<rect width="4" height="4" transform="translate(36 53)" fill="#727272"/>
<rect width="4" height="4" transform="translate(77 17)" fill="#727272"/>
<rect width="4" height="4" transform="translate(77 57)" fill="#727272"/>
<rect width="4" height="4" transform="translate(36 57)" fill="#727272"/>
<rect width="4" height="4" transform="translate(77 21)" fill="#727272"/>
<rect width="4" height="4" transform="translate(77 61)" fill="#727272"/>
<rect width="4" height="4" transform="translate(36 61)" fill="#727272"/>
<rect width="4" height="4" transform="translate(77 25)" fill="#727272"/>
<rect width="4" height="4" transform="translate(77 65)" fill="#727272"/>
<rect width="4" height="4" transform="translate(36 65)" fill="#727272"/>
<rect width="4" height="4" transform="translate(77 29)" fill="#727272"/>
<rect width="4" height="4" transform="translate(77 69)" fill="#727272"/>
<rect width="4" height="4" transform="translate(36 69)" fill="#727272"/>
<rect width="4" height="4" transform="translate(77 33)" fill="#727272"/>
<rect width="4" height="4" transform="translate(77 73)" fill="#727272"/>
<rect width="4" height="4" transform="translate(36 73)" fill="#727272"/>
<rect width="4" height="4" transform="translate(77 37)" fill="#727272"/>
<rect width="4" height="4" transform="translate(77 77)" fill="#727272"/>
<rect width="4" height="4" transform="translate(36 77)" fill="#727272"/>
<rect width="4" height="4" transform="translate(73 37)" fill="#727272"/>
<rect width="4" height="4" transform="translate(73 77)" fill="#727272"/>
<rect width="4" height="4" transform="translate(32 77)" fill="#727272"/>
<rect width="4" height="4" transform="translate(73 33)" fill="#727272"/>
<rect width="4" height="4" transform="translate(73 73)" fill="#727272"/>
<rect width="4" height="4" transform="translate(32 73)" fill="#727272"/>
<rect width="4" height="4" transform="translate(73 29)" fill="#727272"/>
<rect width="4" height="4" transform="translate(73 69)" fill="#727272"/>
<rect width="4" height="4" transform="translate(32 69)" fill="#727272"/>
<rect width="4" height="4" transform="translate(73 25)" fill="#727272"/>
<rect width="4" height="4" transform="translate(73 65)" fill="#727272"/>
<rect width="4" height="4" transform="translate(32 65)" fill="#727272"/>
<rect width="4" height="4" transform="translate(69 37)" fill="#727272"/>
<rect width="4" height="4" transform="translate(69 77)" fill="#727272"/>
<rect width="4" height="4" transform="translate(28 77)" fill="#727272"/>
<rect width="4" height="4" transform="translate(69 33)" fill="#727272"/>
<rect width="4" height="4" transform="translate(69 73)" fill="#727272"/>
<rect width="4" height="4" transform="translate(28 73)" fill="#727272"/>
<rect width="4" height="4" transform="translate(69 29)" fill="#727272"/>
<rect width="4" height="4" transform="translate(69 69)" fill="#727272"/>
<rect width="4" height="4" transform="translate(28 69)" fill="#727272"/>
<rect width="4" height="4" transform="translate(69 25)" fill="#727272"/>
<rect width="4" height="4" transform="translate(69 65)" fill="#727272"/>
<rect width="4" height="4" transform="translate(28 65)" fill="#727272"/>
<rect width="4" height="4" transform="translate(65 37)" fill="#727272"/>
<rect width="4" height="4" transform="translate(65 77)" fill="#727272"/>
<rect width="4" height="4" transform="translate(24 77)" fill="#727272"/>
<rect width="4" height="4" transform="translate(65 33)" fill="#727272"/>
<rect width="4" height="4" transform="translate(65 73)" fill="#727272"/>
<rect width="4" height="4" transform="translate(24 73)" fill="#727272"/>
<rect width="4" height="4" transform="translate(65 29)" fill="#727272"/>
<rect width="4" height="4" transform="translate(65 69)" fill="#727272"/>
<rect width="4" height="4" transform="translate(24 69)" fill="#727272"/>
<rect width="4" height="4" transform="translate(65 25)" fill="#727272"/>
<rect width="4" height="4" transform="translate(65 65)" fill="#727272"/>
<rect width="4" height="4" transform="translate(24 65)" fill="#727272"/>
<rect width="4" height="4" transform="translate(61 37)" fill="#727272"/>
<rect width="4" height="4" transform="translate(61 77)" fill="#727272"/>
<rect width="4" height="4" transform="translate(20 77)" fill="#727272"/>
<rect width="4" height="4" transform="translate(61 33)" fill="#727272"/>
<rect width="4" height="4" transform="translate(61 73)" fill="#727272"/>
<rect width="4" height="4" transform="translate(20 73)" fill="#727272"/>
<rect width="4" height="4" transform="translate(61 29)" fill="#727272"/>
<rect width="4" height="4" transform="translate(61 69)" fill="#727272"/>
<rect width="4" height="4" transform="translate(20 69)" fill="#727272"/>
<rect width="4" height="4" transform="translate(61 25)" fill="#727272"/>
<rect width="4" height="4" transform="translate(61 65)" fill="#727272"/>
<rect width="4" height="4" transform="translate(20 65)" fill="#727272"/>
<rect width="4" height="4" transform="translate(73 21)" fill="#727272"/>
<rect width="4" height="4" transform="translate(73 61)" fill="#727272"/>
<rect width="4" height="4" transform="translate(32 61)" fill="#727272"/>
<rect width="4" height="4" transform="translate(69 21)" fill="#727272"/>
<rect width="4" height="4" transform="translate(69 61)" fill="#727272"/>
<rect width="4" height="4" transform="translate(28 61)" fill="#727272"/>
<rect width="4" height="4" transform="translate(65 21)" fill="#727272"/>
<rect width="4" height="4" transform="translate(65 61)" fill="#727272"/>
<rect width="4" height="4" transform="translate(24 61)" fill="#727272"/>
<rect width="4" height="4" transform="translate(73 17)" fill="#727272"/>
<rect width="4" height="4" transform="translate(73 57)" fill="#727272"/>
<rect width="4" height="4" transform="translate(32 57)" fill="#727272"/>
<rect width="4" height="4" transform="translate(69 17)" fill="#727272"/>
<rect width="4" height="4" transform="translate(69 57)" fill="#727272"/>
<rect width="4" height="4" transform="translate(28 57)" fill="#727272"/>
<rect width="4" height="4" transform="translate(73 13)" fill="#727272"/>
<rect width="4" height="4" transform="translate(73 53)" fill="#727272"/>
<rect width="4" height="4" transform="translate(32 53)" fill="#727272"/>
<rect width="4" height="4" transform="translate(73 9)" fill="#727272"/>
<rect width="4" height="4" transform="translate(73 49)" fill="#727272"/>
<rect width="4" height="4" transform="translate(32 49)" fill="#727272"/>
<rect width="4" height="4" transform="translate(69 13)" fill="#727272"/>
<rect width="4" height="4" transform="translate(69 53)" fill="#727272"/>
<rect width="4" height="4" transform="translate(28 53)" fill="#727272"/>
<rect width="4" height="4" transform="translate(65 17)" fill="#727272"/>
<rect width="4" height="4" transform="translate(65 57)" fill="#727272"/>
<rect width="4" height="4" transform="translate(24 57)" fill="#727272"/>
<rect width="4" height="4" transform="translate(61 21)" fill="#727272"/>
<rect width="4" height="4" transform="translate(61 61)" fill="#727272"/>
<rect width="4" height="4" transform="translate(20 61)" fill="#727272"/>
<rect width="4" height="4" transform="translate(57 37)" fill="#727272"/>
<rect width="4" height="4" transform="translate(57 77)" fill="#727272"/>
<rect width="4" height="4" transform="translate(16 77)" fill="#727272"/>
<rect width="4" height="4" transform="translate(57 33)" fill="#727272"/>
<rect width="4" height="4" transform="translate(57 73)" fill="#727272"/>
<rect width="4" height="4" transform="translate(16 73)" fill="#727272"/>
<rect width="4" height="4" transform="translate(57 29)" fill="#727272"/>
<rect width="4" height="4" transform="translate(57 69)" fill="#727272"/>
<rect width="4" height="4" transform="translate(16 69)" fill="#727272"/>
<rect width="4" height="4" transform="translate(57 25)" fill="#727272"/>
<rect width="4" height="4" transform="translate(57 65)" fill="#727272"/>
<rect width="4" height="4" transform="translate(16 65)" fill="#727272"/>
<rect width="4" height="4" transform="translate(53 37)" fill="#727272"/>
<rect width="4" height="4" transform="translate(53 77)" fill="#727272"/>
<rect width="4" height="4" transform="translate(12 77)" fill="#727272"/>
<rect width="4" height="4" transform="translate(53 33)" fill="#727272"/>
<rect width="4" height="4" transform="translate(53 73)" fill="#727272"/>
<rect width="4" height="4" transform="translate(12 73)" fill="#727272"/>
<rect width="4" height="4" transform="translate(53 29)" fill="#727272"/>
<rect width="4" height="4" transform="translate(53 69)" fill="#727272"/>
<rect width="4" height="4" transform="translate(12 69)" fill="#727272"/>
<rect width="4" height="4" transform="translate(49 37)" fill="#727272"/>
<rect width="4" height="4" transform="translate(49 77)" fill="#727272"/>
<rect width="4" height="4" transform="translate(8 77)" fill="#727272"/>
<rect width="4" height="4" transform="translate(49 33)" fill="#727272"/>
<rect width="4" height="4" transform="translate(49 73)" fill="#727272"/>
<rect width="4" height="4" transform="translate(8 73)" fill="#727272"/>
<rect width="4" height="4" transform="translate(45 37)" fill="#727272"/>
<rect width="4" height="4" transform="translate(45 77)" fill="#727272"/>
<rect width="4" height="4" transform="translate(4 77)" fill="#727272"/>
<rect width="20" height="20" transform="translate(50 9)" fill="#F6F6F6"/>
<rect width="20" height="20" transform="translate(50 51)" fill="#F6F6F6"/>
<rect width="20" height="20" transform="translate(10 51)" fill="#F6F6F6"/>
<rect width="4" height="4" transform="translate(36 5)" fill="#727272"/>
<rect width="4" height="4" transform="translate(36 9)" fill="#727272"/>
<rect width="4" height="4" transform="translate(36 13)" fill="#727272"/>
<rect width="4" height="4" transform="translate(36 17)" fill="#727272"/>
<rect width="4" height="4" transform="translate(36 21)" fill="#727272"/>
<rect width="4" height="4" transform="translate(36 25)" fill="#727272"/>
<rect width="4" height="4" transform="translate(36 29)" fill="#727272"/>
<rect width="4" height="4" transform="translate(36 33)" fill="#727272"/>
<rect width="4" height="4" transform="translate(36 37)" fill="#727272"/>
<rect width="4" height="4" transform="translate(32 37)" fill="#727272"/>
<rect width="4" height="4" transform="translate(32 33)" fill="#727272"/>
<rect width="4" height="4" transform="translate(32 29)" fill="#727272"/>
<rect width="4" height="4" transform="translate(32 25)" fill="#727272"/>
<rect width="4" height="4" transform="translate(28 37)" fill="#727272"/>
<rect width="4" height="4" transform="translate(28 33)" fill="#727272"/>
<rect width="4" height="4" transform="translate(28 29)" fill="#727272"/>
<rect width="4" height="4" transform="translate(28 25)" fill="#727272"/>
<rect width="4" height="4" transform="translate(24 37)" fill="#727272"/>
<rect width="4" height="4" transform="translate(24 33)" fill="#727272"/>
<rect width="4" height="4" transform="translate(24 29)" fill="#727272"/>
<rect width="4" height="4" transform="translate(24 25)" fill="#727272"/>
<rect width="4" height="4" transform="translate(20 37)" fill="#727272"/>
<rect width="4" height="4" transform="translate(20 33)" fill="#727272"/>
<rect width="4" height="4" transform="translate(20 29)" fill="#727272"/>
<rect width="4" height="4" transform="translate(20 25)" fill="#727272"/>
<rect width="4" height="4" transform="translate(32 21)" fill="#727272"/>
<rect width="4" height="4" transform="translate(28 21)" fill="#727272"/>
<rect width="4" height="4" transform="translate(24 21)" fill="#727272"/>
<rect width="4" height="4" transform="translate(32 17)" fill="#727272"/>
<rect width="4" height="4" transform="translate(28 17)" fill="#727272"/>
<rect width="4" height="4" transform="translate(32 13)" fill="#727272"/>
<rect width="4" height="4" transform="translate(32 9)" fill="#727272"/>
<rect width="4" height="4" transform="translate(28 13)" fill="#727272"/>
<rect width="4" height="4" transform="translate(24 17)" fill="#727272"/>
<rect width="4" height="4" transform="translate(20 21)" fill="#727272"/>
<rect width="4" height="4" transform="translate(16 37)" fill="#727272"/>
<rect width="4" height="4" transform="translate(16 33)" fill="#727272"/>
<rect width="4" height="4" transform="translate(16 29)" fill="#727272"/>
<rect width="4" height="4" transform="translate(16 25)" fill="#727272"/>
<rect width="4" height="4" transform="translate(12 37)" fill="#727272"/>
<rect width="4" height="4" transform="translate(12 33)" fill="#727272"/>
<rect width="4" height="4" transform="translate(12 29)" fill="#727272"/>
<rect width="4" height="4" transform="translate(8 37)" fill="#727272"/>
<rect width="4" height="4" transform="translate(8 33)" fill="#727272"/>
<rect width="4" height="4" transform="translate(4 37)" fill="#727272"/>
<rect width="20" height="20" transform="translate(10 9)" fill="#F6F6F6"/>
</svg>
