<svg width="81" height="81" viewBox="0 0 81 81" fill="none" xmlns="http://www.w3.org/2000/svg">
<g clip-path="url(#clip0_6_834)">
<rect width="81" height="81" fill="#4761CB"/>
<rect width="81" height="20" fill="#96CCE8"/>
<rect width="81" height="20" transform="translate(0 8)" fill="#69A2DE"/>
<rect width="4" height="4" transform="translate(3 4)" fill="#69A2DE"/>
<rect width="10" height="4" transform="translate(0 20)" fill="#4761CB"/>
<rect width="10" height="4" transform="translate(0 24)" fill="#69A2DE"/>
<rect width="11" height="4" transform="translate(10 24)" fill="#4761CB"/>
<rect width="11" height="4" transform="translate(10 28)" fill="#69A2DE"/>
<rect width="4" height="4" transform="translate(16 41)" fill="#69A2DE"/>
<rect width="4" height="4" transform="translate(37 41)" fill="#69A2DE"/>
<rect width="4" height="4" transform="translate(57 41)" fill="#69A2DE"/>
<rect width="4" height="4" transform="translate(76 41)" fill="#69A2DE"/>
<rect width="4" height="4" transform="translate(6 51)" fill="#34336E"/>
<rect width="4" height="4" transform="translate(6 61)" fill="#34336E"/>
<rect width="4" height="4" transform="translate(6 71)" fill="#34336E"/>
<rect width="4" height="4" transform="translate(11 66)" fill="#34336E"/>
<rect width="4" height="4" transform="translate(16 71)" fill="#34336E"/>
<rect width="4" height="4" transform="translate(26 71)" fill="#34336E"/>
<rect width="4" height="4" transform="translate(37 71)" fill="#34336E"/>
<rect width="4" height="4" transform="translate(46 71)" fill="#34336E"/>
<rect width="4" height="4" transform="translate(57 71)" fill="#34336E"/>
<rect width="4" height="4" transform="translate(67 71)" fill="#34336E"/>
<rect width="4" height="4" transform="translate(76 71)" fill="#34336E"/>
<rect width="4" height="4" transform="translate(67 61)" fill="#34336E"/>
<rect width="4" height="4" transform="translate(46 61)" fill="#34336E"/>
<rect width="4" height="4" transform="translate(26 61)" fill="#34336E"/>
<rect width="4" height="4" transform="translate(20 66)" fill="#34336E"/>
<rect width="4" height="4" transform="translate(31 66)" fill="#34336E"/>
<rect width="4" height="4" transform="translate(41 66)" fill="#34336E"/>
<rect width="4" height="4" transform="translate(51 66)" fill="#34336E"/>
<rect width="4" height="4" transform="translate(62 66)" fill="#34336E"/>
<rect width="4" height="4" transform="translate(72 66)" fill="#34336E"/>
<rect width="4" height="4" transform="translate(1 66)" fill="#34336E"/>
<rect width="81" height="6" transform="translate(0 75)" fill="#34336E"/>
<rect width="4" height="4" transform="translate(16 56)" fill="#34336E"/>
<rect width="4" height="4" transform="translate(26 51)" fill="#69A2DE"/>
<rect width="4" height="4" transform="translate(37 56)" fill="#34336E"/>
<rect width="4" height="4" transform="translate(46 51)" fill="#69A2DE"/>
<rect width="4" height="4" transform="translate(57 56)" fill="#34336E"/>
<rect width="4" height="4" transform="translate(67 51)" fill="#69A2DE"/>
<rect width="4" height="4" transform="translate(76 56)" fill="#34336E"/>
<rect width="10" height="4" transform="translate(31 24)" fill="#4761CB"/>
<rect width="10" height="4" transform="translate(31 28)" fill="#69A2DE"/>
<rect width="10" height="4" transform="translate(51 24)" fill="#4761CB"/>
<rect width="10" height="4" transform="translate(51 28)" fill="#69A2DE"/>
<rect width="10" height="4" transform="translate(71 24)" fill="#4761CB"/>
<rect width="10" height="4" transform="translate(71 28)" fill="#69A2DE"/>
<rect width="10" height="4" transform="translate(21 20)" fill="#4761CB"/>
<rect width="10" height="4" transform="translate(21 24)" fill="#69A2DE"/>
<rect width="10" height="4" transform="translate(41 20)" fill="#4761CB"/>
<rect width="10" height="4" transform="translate(41 24)" fill="#69A2DE"/>
<rect width="10" height="4" transform="translate(61 20)" fill="#4761CB"/>
<rect width="10" height="4" transform="translate(61 24)" fill="#69A2DE"/>
<rect width="4" height="4" transform="translate(11 4)" fill="#69A2DE"/>
<rect width="4" height="4" transform="translate(19 4)" fill="#69A2DE"/>
<rect width="4" height="4" transform="translate(27 4)" fill="#69A2DE"/>
<rect width="4" height="4" transform="translate(35 4)" fill="#69A2DE"/>
<rect width="4" height="4" transform="translate(43 4)" fill="#69A2DE"/>
<rect width="4" height="4" transform="translate(51 4)" fill="#69A2DE"/>
<rect width="4" height="4" transform="translate(59 4)" fill="#69A2DE"/>
<rect width="4" height="4" transform="translate(67 4)" fill="#69A2DE"/>
<rect width="4" height="4" transform="translate(75 4)" fill="#69A2DE"/>
</g>
<defs>
<clipPath id="clip0_6_834">
<rect width="81" height="81" fill="white"/>
</clipPath>
</defs>
</svg>
